<svg width="1280" height="720" viewBox="0 0 1280 720" fill="none" xmlns="http://www.w3.org/2000/svg">
<g clip-path="url(#clip0_177_147)">
<rect width="1280" height="720" fill="#0079C2"/>
<path d="M636 402C636.283 402 636.521 401.904 636.713 401.712C636.905 401.52 637.001 401.283 637 401C637 400.717 636.904 400.479 636.712 400.288C636.52 400.097 636.283 400.001 636 400C635.717 400 635.479 400.096 635.288 400.288C635.097 400.48 635.001 400.717 635 401C635 401.283 635.096 401.521 635.288 401.713C635.48 401.905 635.717 402.001 636 402ZM636 398C636.283 398 636.521 397.904 636.713 397.712C636.905 397.52 637.001 397.283 637 397C637 396.717 636.904 396.479 636.712 396.288C636.52 396.097 636.283 396.001 636 396C635.717 396 635.479 396.096 635.288 396.288C635.097 396.48 635.001 396.717 635 397C635 397.283 635.096 397.521 635.288 397.713C635.48 397.905 635.717 398.001 636 398ZM636 394C636.283 394 636.521 393.904 636.713 393.712C636.905 393.52 637.001 393.283 637 393C637 392.717 636.904 392.479 636.712 392.288C636.52 392.097 636.283 392.001 636 392C635.717 392 635.479 392.096 635.288 392.288C635.097 392.48 635.001 392.717 635 393C635 393.283 635.096 393.521 635.288 393.713C635.48 393.905 635.717 394.001 636 394ZM639 402H645V400H639V402ZM639 398H645V396H639V398ZM639 394H645V392H639V394ZM633 406C632.45 406 631.979 405.804 631.588 405.413C631.197 405.022 631.001 404.551 631 404V390C631 389.45 631.196 388.979 631.588 388.588C631.98 388.197 632.451 388.001 633 388H647C647.55 388 648.021 388.196 648.413 388.588C648.805 388.98 649.001 389.451 649 390V404C649 404.55 648.804 405.021 648.413 405.413C648.022 405.805 647.551 406.001 647 406H633Z" fill="#D3E7FE"/>
<path d="M640.75 283.75C640.75 284.745 640.355 285.698 639.652 286.402C638.948 287.105 637.994 287.5 637 287.5C636.005 287.5 635.052 287.105 634.348 286.402C633.645 285.698 633.25 284.745 633.25 283.75C633.25 282.755 633.645 281.802 634.348 281.098C635.052 280.395 636.005 280 637 280C637.994 280 638.948 280.395 639.652 281.098C640.355 281.802 640.75 282.755 640.75 283.75ZM644.35 295.009C644.515 295.822 643.828 296.5 643 296.5H631C630.17 296.5 629.485 295.822 629.647 295.009C629.992 293.314 630.912 291.79 632.252 290.695C633.592 289.6 635.269 289.002 636.999 289.002C638.729 289.002 640.406 289.6 641.746 290.695C643.086 291.79 644.006 293.314 644.351 295.009M649.003 295H646.618C646.606 294.854 646.586 294.709 646.558 294.565C646.272 293.15 645.674 291.816 644.807 290.661C645.91 290.357 647.087 290.484 648.099 291.017C649.111 291.549 649.882 292.447 650.257 293.527C650.527 294.31 649.832 295 649.003 295ZM646 289C646.796 289 647.559 288.684 648.121 288.121C648.684 287.559 649 286.796 649 286C649 285.204 648.684 284.441 648.121 283.879C647.559 283.316 646.796 283 646 283C645.204 283 644.441 283.316 643.879 283.879C643.316 284.441 643 285.204 643 286C643 286.796 643.316 287.559 643.879 288.121C644.441 288.684 645.204 289 646 289Z" fill="#D3E7FE"/>
<path d="M631.75 341.5C631.551 341.5 631.36 341.421 631.22 341.28C631.079 341.14 631 340.949 631 340.75V334.751C631 334.553 631.079 334.362 631.22 334.221C631.36 334.081 631.551 334.001 631.75 334.001H637.75C637.949 334.001 638.14 334.081 638.28 334.221C638.421 334.362 638.5 334.553 638.5 334.751V340.75C638.5 340.949 638.421 341.14 638.28 341.28C638.14 341.421 637.949 341.5 637.75 341.5H631.75ZM642.25 341.5C642.051 341.5 641.86 341.421 641.72 341.28C641.579 341.14 641.5 340.949 641.5 340.75V334.751C641.5 334.553 641.579 334.362 641.72 334.221C641.86 334.081 642.051 334.001 642.25 334.001H648.248C648.447 334.001 648.638 334.081 648.779 334.221C648.919 334.362 648.998 334.553 648.998 334.751V340.75C648.998 340.949 648.919 341.14 648.779 341.28C648.638 341.421 648.447 341.5 648.248 341.5H642.25ZM631.75 352C631.551 352 631.36 351.921 631.22 351.78C631.079 351.64 631 351.449 631 351.25V345.25C631 345.051 631.079 344.86 631.22 344.72C631.36 344.579 631.551 344.5 631.75 344.5H637.75C637.949 344.5 638.14 344.579 638.28 344.72C638.421 344.86 638.5 345.051 638.5 345.25V351.25C638.5 351.449 638.421 351.64 638.28 351.78C638.14 351.921 637.949 352 637.75 352H631.75ZM642.25 352C642.051 352 641.86 351.921 641.72 351.78C641.579 351.64 641.5 351.449 641.5 351.25V345.25C641.5 345.051 641.579 344.86 641.72 344.72C641.86 344.579 642.051 344.5 642.25 344.5H648.248C648.447 344.5 648.638 344.579 648.779 344.72C648.919 344.86 648.998 345.051 648.998 345.25V351.25C648.998 351.449 648.919 351.64 648.779 351.78C648.638 351.921 648.447 352 648.248 352H642.25Z" fill="#D3E7FE"/>
<path d="M268.703 282.945V273.297H293.625V296.109C291.203 298.453 287.688 300.523 283.078 302.32C278.495 304.091 273.846 304.977 269.133 304.977C263.143 304.977 257.922 303.727 253.469 301.227C249.016 298.701 245.669 295.107 243.43 290.445C241.19 285.758 240.07 280.667 240.07 275.172C240.07 269.208 241.32 263.909 243.82 259.273C246.32 254.638 249.979 251.083 254.797 248.609C258.469 246.708 263.039 245.758 268.508 245.758C275.617 245.758 281.164 247.255 285.148 250.25C289.159 253.219 291.737 257.333 292.883 262.594L281.398 264.742C280.591 261.93 279.068 259.716 276.828 258.102C274.615 256.461 271.841 255.641 268.508 255.641C263.456 255.641 259.432 257.242 256.438 260.445C253.469 263.648 251.984 268.401 251.984 274.703C251.984 281.5 253.495 286.604 256.516 290.016C259.536 293.401 263.495 295.094 268.391 295.094C270.812 295.094 273.234 294.625 275.656 293.688C278.104 292.724 280.201 291.565 281.945 290.211V282.945H268.703ZM304.367 304V246.734H328.703C334.823 246.734 339.263 247.255 342.023 248.297C344.81 249.312 347.036 251.135 348.703 253.766C350.37 256.396 351.203 259.404 351.203 262.789C351.203 267.086 349.94 270.641 347.414 273.453C344.888 276.24 341.112 277.997 336.086 278.727C338.586 280.185 340.643 281.786 342.258 283.531C343.898 285.276 346.099 288.375 348.859 292.828L355.852 304H342.023L333.664 291.539C330.695 287.086 328.664 284.286 327.57 283.141C326.477 281.969 325.318 281.174 324.094 280.758C322.87 280.315 320.93 280.094 318.273 280.094H315.93V304H304.367ZM315.93 270.953H324.484C330.031 270.953 333.495 270.719 334.875 270.25C336.255 269.781 337.336 268.974 338.117 267.828C338.898 266.682 339.289 265.25 339.289 263.531C339.289 261.604 338.768 260.055 337.727 258.883C336.711 257.685 335.266 256.93 333.391 256.617C332.453 256.487 329.641 256.422 324.953 256.422H315.93V270.953ZM362.062 246.734H373.625V277.75C373.625 282.672 373.768 285.862 374.055 287.32C374.549 289.664 375.721 291.552 377.57 292.984C379.445 294.391 381.997 295.094 385.227 295.094C388.508 295.094 390.982 294.43 392.648 293.102C394.315 291.747 395.318 290.094 395.656 288.141C395.995 286.188 396.164 282.945 396.164 278.414V246.734H407.727V276.812C407.727 283.688 407.414 288.544 406.789 291.383C406.164 294.221 405.005 296.617 403.312 298.57C401.646 300.523 399.406 302.086 396.594 303.258C393.781 304.404 390.109 304.977 385.578 304.977C380.109 304.977 375.956 304.352 373.117 303.102C370.305 301.826 368.078 300.185 366.438 298.18C364.797 296.148 363.716 294.026 363.195 291.812C362.44 288.531 362.062 283.688 362.062 277.281V246.734ZM419.953 304V246.734H438.508C445.539 246.734 450.122 247.021 452.258 247.594C455.539 248.453 458.286 250.328 460.5 253.219C462.714 256.083 463.82 259.794 463.82 264.352C463.82 267.867 463.182 270.823 461.906 273.219C460.63 275.615 459.003 277.503 457.023 278.883C455.07 280.237 453.078 281.135 451.047 281.578C448.286 282.125 444.289 282.398 439.055 282.398H431.516V304H419.953ZM431.516 256.422V272.672H437.844C442.401 272.672 445.448 272.372 446.984 271.773C448.521 271.174 449.719 270.237 450.578 268.961C451.464 267.685 451.906 266.201 451.906 264.508C451.906 262.424 451.294 260.706 450.07 259.352C448.846 257.997 447.297 257.151 445.422 256.812C444.042 256.552 441.268 256.422 437.102 256.422H431.516ZM470.969 275.719C470.969 269.885 471.841 264.99 473.586 261.031C474.888 258.115 476.659 255.497 478.898 253.18C481.164 250.862 483.638 249.143 486.32 248.023C489.888 246.513 494.003 245.758 498.664 245.758C507.102 245.758 513.846 248.375 518.898 253.609C523.977 258.844 526.516 266.122 526.516 275.445C526.516 284.69 524.003 291.93 518.977 297.164C513.951 302.372 507.232 304.977 498.82 304.977C490.305 304.977 483.534 302.385 478.508 297.203C473.482 291.995 470.969 284.833 470.969 275.719ZM482.883 275.328C482.883 281.812 484.38 286.734 487.375 290.094C490.37 293.427 494.172 295.094 498.781 295.094C503.391 295.094 507.167 293.44 510.109 290.133C513.078 286.799 514.562 281.812 514.562 275.172C514.562 268.609 513.117 263.714 510.227 260.484C507.362 257.255 503.547 255.641 498.781 255.641C494.016 255.641 490.174 257.281 487.258 260.562C484.341 263.818 482.883 268.74 482.883 275.328ZM255.266 396V338.734H272.57L282.961 377.797L293.234 338.734H310.578V396H299.836V350.922L288.469 396H277.336L266.008 350.922V396H255.266ZM373.703 396H361.125L356.125 382.992H333.234L328.508 396H316.242L338.547 338.734H350.773L373.703 396ZM352.414 373.344L344.523 352.094L336.789 373.344H352.414ZM406.516 374.945V365.297H431.438V388.109C429.016 390.453 425.5 392.523 420.891 394.32C416.307 396.091 411.659 396.977 406.945 396.977C400.956 396.977 395.734 395.727 391.281 393.227C386.828 390.701 383.482 387.107 381.242 382.445C379.003 377.758 377.883 372.667 377.883 367.172C377.883 361.208 379.133 355.909 381.633 351.273C384.133 346.638 387.792 343.083 392.609 340.609C396.281 338.708 400.852 337.758 406.32 337.758C413.43 337.758 418.977 339.255 422.961 342.25C426.971 345.219 429.549 349.333 430.695 354.594L419.211 356.742C418.404 353.93 416.88 351.716 414.641 350.102C412.427 348.461 409.654 347.641 406.32 347.641C401.268 347.641 397.245 349.242 394.25 352.445C391.281 355.648 389.797 360.401 389.797 366.703C389.797 373.5 391.307 378.604 394.328 382.016C397.349 385.401 401.307 387.094 406.203 387.094C408.625 387.094 411.047 386.625 413.469 385.688C415.917 384.724 418.013 383.565 419.758 382.211V374.945H406.516ZM441.789 396V338.734H453.352V396H441.789ZM501.047 374.945L512.258 378.5C510.539 384.75 507.674 389.398 503.664 392.445C499.68 395.466 494.615 396.977 488.469 396.977C480.865 396.977 474.615 394.385 469.719 389.203C464.823 383.995 462.375 376.885 462.375 367.875C462.375 358.344 464.836 350.948 469.758 345.688C474.68 340.401 481.151 337.758 489.172 337.758C496.177 337.758 501.867 339.828 506.242 343.969C508.846 346.417 510.799 349.932 512.102 354.516L500.656 357.25C499.979 354.281 498.56 351.938 496.398 350.219C494.263 348.5 491.659 347.641 488.586 347.641C484.341 347.641 480.891 349.164 478.234 352.211C475.604 355.258 474.289 360.193 474.289 367.016C474.289 374.255 475.591 379.411 478.195 382.484C480.799 385.557 484.185 387.094 488.352 387.094C491.424 387.094 494.068 386.117 496.281 384.164C498.495 382.211 500.083 379.138 501.047 374.945Z" fill="url(#paint0_linear_177_147)"/>
<path d="M830.06 407.489L832.873 407.216C833.042 408.16 833.384 408.853 833.898 409.296C834.419 409.738 835.119 409.96 835.998 409.96C836.929 409.96 837.628 409.764 838.097 409.374C838.572 408.977 838.81 408.514 838.81 407.987C838.81 407.649 838.709 407.362 838.507 407.128C838.312 406.887 837.967 406.679 837.472 406.503C837.134 406.386 836.362 406.177 835.158 405.878C833.608 405.494 832.521 405.022 831.896 404.462C831.017 403.674 830.578 402.714 830.578 401.581C830.578 400.852 830.783 400.171 831.193 399.54C831.61 398.902 832.205 398.417 832.98 398.085C833.761 397.753 834.702 397.587 835.802 397.587C837.599 397.587 838.95 397.981 839.855 398.768C840.766 399.556 841.245 400.608 841.291 401.923L838.4 402.05C838.276 401.314 838.009 400.787 837.599 400.468C837.195 400.142 836.587 399.979 835.773 399.979C834.933 399.979 834.276 400.152 833.8 400.497C833.494 400.718 833.341 401.014 833.341 401.386C833.341 401.724 833.485 402.014 833.771 402.255C834.136 402.561 835.021 402.88 836.427 403.212C837.833 403.544 838.872 403.889 839.542 404.247C840.22 404.598 840.747 405.083 841.125 405.702C841.509 406.314 841.701 407.072 841.701 407.977C841.701 408.798 841.473 409.566 841.017 410.282C840.561 410.998 839.917 411.532 839.083 411.884C838.25 412.229 837.212 412.401 835.968 412.401C834.158 412.401 832.768 411.985 831.798 411.151C830.828 410.311 830.249 409.091 830.06 407.489ZM844.132 412.147V397.831H854.748V400.253H847.023V403.427H854.21V405.839H847.023V409.735H855.021V412.147H844.132ZM857.482 412.147V397.831H863.566C865.096 397.831 866.206 397.961 866.896 398.221C867.593 398.475 868.149 398.931 868.566 399.589C868.983 400.246 869.191 400.998 869.191 401.845C869.191 402.919 868.875 403.807 868.244 404.511C867.612 405.207 866.668 405.647 865.412 405.829C866.037 406.194 866.551 406.594 866.955 407.03C867.365 407.466 867.915 408.241 868.605 409.354L870.353 412.147H866.896L864.806 409.032C864.064 407.919 863.556 407.219 863.283 406.932C863.009 406.639 862.72 406.441 862.414 406.337C862.108 406.226 861.623 406.171 860.958 406.171H860.373V412.147H857.482ZM860.373 403.886H862.511C863.898 403.886 864.764 403.827 865.109 403.71C865.454 403.593 865.724 403.391 865.919 403.104C866.115 402.818 866.212 402.46 866.212 402.03C866.212 401.548 866.082 401.161 865.822 400.868C865.568 400.569 865.207 400.38 864.738 400.302C864.503 400.269 863.8 400.253 862.628 400.253H860.373V403.886ZM877.492 412.147V397.831H882.13C883.888 397.831 885.034 397.902 885.568 398.046C886.388 398.261 887.075 398.729 887.628 399.452C888.182 400.168 888.458 401.096 888.458 402.235C888.458 403.114 888.299 403.853 887.98 404.452C887.661 405.051 887.254 405.523 886.759 405.868C886.271 406.207 885.773 406.431 885.265 406.542C884.575 406.679 883.576 406.747 882.267 406.747H880.382V412.147H877.492ZM880.382 400.253V404.315H881.964C883.104 404.315 883.865 404.24 884.25 404.091C884.634 403.941 884.933 403.707 885.148 403.388C885.369 403.069 885.48 402.697 885.48 402.274C885.48 401.753 885.327 401.324 885.021 400.985C884.715 400.647 884.328 400.435 883.859 400.35C883.514 400.285 882.82 400.253 881.779 400.253H880.382ZM890.841 412.147V397.831H896.925C898.455 397.831 899.565 397.961 900.255 398.221C900.952 398.475 901.509 398.931 901.925 399.589C902.342 400.246 902.55 400.998 902.55 401.845C902.55 402.919 902.235 403.807 901.603 404.511C900.972 405.207 900.028 405.647 898.771 405.829C899.396 406.194 899.91 406.594 900.314 407.03C900.724 407.466 901.274 408.241 901.964 409.354L903.712 412.147H900.255L898.166 409.032C897.423 407.919 896.916 407.219 896.642 406.932C896.369 406.639 896.079 406.441 895.773 406.337C895.467 406.226 894.982 406.171 894.318 406.171H893.732V412.147H890.841ZM893.732 403.886H895.871C897.257 403.886 898.123 403.827 898.468 403.71C898.813 403.593 899.083 403.391 899.279 403.104C899.474 402.818 899.572 402.46 899.572 402.03C899.572 401.548 899.442 401.161 899.181 400.868C898.927 400.569 898.566 400.38 898.097 400.302C897.863 400.269 897.16 400.253 895.988 400.253H893.732V403.886ZM905.285 412.147V397.831H915.9V400.253H908.175V403.427H915.363V405.839H908.175V409.735H916.173V412.147H905.285ZM917.892 407.489L920.705 407.216C920.874 408.16 921.216 408.853 921.73 409.296C922.251 409.738 922.951 409.96 923.83 409.96C924.761 409.96 925.46 409.764 925.929 409.374C926.404 408.977 926.642 408.514 926.642 407.987C926.642 407.649 926.541 407.362 926.339 407.128C926.144 406.887 925.799 406.679 925.304 406.503C924.966 406.386 924.194 406.177 922.99 405.878C921.44 405.494 920.353 405.022 919.728 404.462C918.849 403.674 918.41 402.714 918.41 401.581C918.41 400.852 918.615 400.171 919.025 399.54C919.442 398.902 920.037 398.417 920.812 398.085C921.593 397.753 922.534 397.587 923.634 397.587C925.431 397.587 926.782 397.981 927.687 398.768C928.598 399.556 929.077 400.608 929.123 401.923L926.232 402.05C926.108 401.314 925.841 400.787 925.431 400.468C925.028 400.142 924.419 399.979 923.605 399.979C922.765 399.979 922.108 400.152 921.632 400.497C921.326 400.718 921.173 401.014 921.173 401.386C921.173 401.724 921.317 402.014 921.603 402.255C921.968 402.561 922.853 402.88 924.259 403.212C925.666 403.544 926.704 403.889 927.375 404.247C928.052 404.598 928.579 405.083 928.957 405.702C929.341 406.314 929.533 407.072 929.533 407.977C929.533 408.798 929.305 409.566 928.849 410.282C928.393 410.998 927.749 411.532 926.916 411.884C926.082 412.229 925.044 412.401 923.8 412.401C921.99 412.401 920.6 411.985 919.63 411.151C918.66 410.311 918.081 409.091 917.892 407.489ZM931.964 412.147V397.831H942.58V400.253H934.855V403.427H942.042V405.839H934.855V409.735H942.853V412.147H931.964ZM945.333 412.147V397.831H948.146L954.005 407.391V397.831H956.691V412.147H953.791L948.019 402.811V412.147H945.333ZM962.98 412.147V400.253H958.732V397.831H970.109V400.253H965.871V412.147H962.98ZM971.984 412.147V397.831H982.599V400.253H974.875V403.427H982.062V405.839H974.875V409.735H982.873V412.147H971.984Z" fill="url(#paint1_linear_177_147)" fill-opacity="0.6"/>
<path d="M1076.9 504.977C1076.9 506.969 1076.48 508.52 1075.63 509.629C1074.79 510.73 1073.66 511.281 1072.25 511.281C1071.59 511.281 1071.05 511.188 1070.63 511V509.055C1071.05 509.359 1071.6 509.512 1072.27 509.512C1074.04 509.512 1074.93 508.008 1074.93 505V494.195H1076.9V504.977ZM1089.51 511H1087.59V509.125H1087.54C1086.7 510.562 1085.47 511.281 1083.85 511.281C1082.65 511.281 1081.71 510.965 1081.04 510.332C1080.36 509.699 1080.03 508.859 1080.03 507.812C1080.03 505.57 1081.35 504.266 1083.99 503.898L1087.59 503.395C1087.59 501.355 1086.76 500.336 1085.11 500.336C1083.67 500.336 1082.36 500.828 1081.2 501.812V499.844C1082.38 499.094 1083.74 498.719 1085.28 498.719C1088.1 498.719 1089.51 500.211 1089.51 503.195V511ZM1087.59 504.93L1084.69 505.328C1083.8 505.453 1083.13 505.676 1082.68 505.996C1082.22 506.309 1082 506.867 1082 507.672C1082 508.258 1082.2 508.738 1082.62 509.113C1083.04 509.48 1083.6 509.664 1084.29 509.664C1085.25 509.664 1086.03 509.332 1086.65 508.668C1087.27 507.996 1087.59 507.148 1087.59 506.125V504.93ZM1110.17 511H1108.25V504.109C1108.25 502.781 1108.04 501.82 1107.62 501.227C1107.22 500.633 1106.53 500.336 1105.56 500.336C1104.74 500.336 1104.04 500.711 1103.46 501.461C1102.89 502.211 1102.61 503.109 1102.61 504.156V511H1100.69V503.875C1100.69 501.516 1099.78 500.336 1097.96 500.336C1097.11 500.336 1096.42 500.691 1095.87 501.402C1095.32 502.105 1095.05 503.023 1095.05 504.156V511H1093.13V499H1095.05V500.898H1095.1C1095.95 499.445 1097.19 498.719 1098.82 498.719C1099.64 498.719 1100.36 498.949 1100.97 499.41C1101.58 499.863 1102 500.461 1102.22 501.203C1103.11 499.547 1104.44 498.719 1106.21 498.719C1108.85 498.719 1110.17 500.348 1110.17 503.605V511ZM1114.79 495.953C1114.44 495.953 1114.15 495.836 1113.91 495.602C1113.66 495.367 1113.54 495.07 1113.54 494.711C1113.54 494.352 1113.66 494.055 1113.91 493.82C1114.15 493.578 1114.44 493.457 1114.79 493.457C1115.14 493.457 1115.43 493.578 1115.68 493.82C1115.93 494.055 1116.05 494.352 1116.05 494.711C1116.05 495.055 1115.93 495.348 1115.68 495.59C1115.43 495.832 1115.14 495.953 1114.79 495.953ZM1115.72 511H1113.8V499H1115.72V511ZM1121.54 511H1119.61V493.234H1121.54V511ZM1135.07 505.48H1126.6C1126.63 506.816 1126.99 507.848 1127.68 508.574C1128.36 509.301 1129.31 509.664 1130.51 509.664C1131.86 509.664 1133.11 509.219 1134.24 508.328V510.133C1133.18 510.898 1131.79 511.281 1130.05 511.281C1128.36 511.281 1127.03 510.738 1126.06 509.652C1125.09 508.559 1124.61 507.023 1124.61 505.047C1124.61 503.18 1125.13 501.66 1126.19 500.488C1127.25 499.309 1128.57 498.719 1130.14 498.719C1131.71 498.719 1132.92 499.227 1133.78 500.242C1134.64 501.258 1135.07 502.668 1135.07 504.473V505.48ZM1133.1 503.852C1133.09 502.742 1132.82 501.879 1132.29 501.262C1131.77 500.645 1131.04 500.336 1130.1 500.336C1129.2 500.336 1128.43 500.66 1127.79 501.309C1127.16 501.957 1126.77 502.805 1126.62 503.852H1133.1ZM1144.83 511V494.195H1149.61C1151.07 494.195 1152.22 494.551 1153.07 495.262C1153.92 495.973 1154.35 496.898 1154.35 498.039C1154.35 498.992 1154.09 499.82 1153.57 500.523C1153.06 501.227 1152.35 501.727 1151.44 502.023V502.07C1152.57 502.203 1153.48 502.633 1154.16 503.359C1154.84 504.078 1155.18 505.016 1155.18 506.172C1155.18 507.609 1154.66 508.773 1153.63 509.664C1152.6 510.555 1151.3 511 1149.73 511H1144.83ZM1146.8 495.977V501.402H1148.82C1149.89 501.402 1150.74 501.145 1151.36 500.629C1151.98 500.105 1152.29 499.371 1152.29 498.426C1152.29 496.793 1151.21 495.977 1149.06 495.977H1146.8ZM1146.8 503.172V509.219H1149.47C1150.63 509.219 1151.52 508.945 1152.16 508.398C1152.8 507.852 1153.12 507.102 1153.12 506.148C1153.12 504.164 1151.77 503.172 1149.06 503.172H1146.8ZM1166.92 511H1165V509.125H1164.95C1164.12 510.562 1162.89 511.281 1161.26 511.281C1160.07 511.281 1159.13 510.965 1158.45 510.332C1157.78 509.699 1157.44 508.859 1157.44 507.812C1157.44 505.57 1158.76 504.266 1161.4 503.898L1165 503.395C1165 501.355 1164.18 500.336 1162.53 500.336C1161.08 500.336 1159.78 500.828 1158.61 501.812V499.844C1159.79 499.094 1161.15 498.719 1162.69 498.719C1165.51 498.719 1166.92 500.211 1166.92 503.195V511ZM1165 504.93L1162.11 505.328C1161.21 505.453 1160.54 505.676 1160.09 505.996C1159.64 506.309 1159.41 506.867 1159.41 507.672C1159.41 508.258 1159.62 508.738 1160.03 509.113C1160.45 509.48 1161.01 509.664 1161.71 509.664C1162.66 509.664 1163.45 509.332 1164.06 508.668C1164.69 507.996 1165 507.148 1165 506.125V504.93ZM1176.8 500.945C1176.46 500.688 1175.98 500.559 1175.35 500.559C1174.53 500.559 1173.84 500.945 1173.29 501.719C1172.74 502.492 1172.46 503.547 1172.46 504.883V511H1170.54V499H1172.46V501.473H1172.51C1172.79 500.629 1173.2 499.973 1173.77 499.504C1174.33 499.027 1174.96 498.789 1175.65 498.789C1176.15 498.789 1176.54 498.844 1176.8 498.953V500.945ZM1185.14 500.945C1184.81 500.688 1184.32 500.559 1183.69 500.559C1182.87 500.559 1182.18 500.945 1181.63 501.719C1181.08 502.492 1180.81 503.547 1180.81 504.883V511H1178.89V499H1180.81V501.473H1180.86C1181.13 500.629 1181.55 499.973 1182.11 499.504C1182.67 499.027 1183.3 498.789 1184 498.789C1184.5 498.789 1184.88 498.844 1185.14 498.953V500.945ZM1192.25 511.281C1190.47 511.281 1189.05 510.723 1187.99 509.605C1186.94 508.48 1186.41 506.992 1186.41 505.141C1186.41 503.125 1186.96 501.551 1188.06 500.418C1189.16 499.285 1190.65 498.719 1192.53 498.719C1194.32 498.719 1195.71 499.27 1196.71 500.371C1197.72 501.473 1198.22 503 1198.22 504.953C1198.22 506.867 1197.68 508.402 1196.59 509.559C1195.52 510.707 1194.07 511.281 1192.25 511.281ZM1192.39 500.336C1191.15 500.336 1190.18 500.758 1189.46 501.602C1188.74 502.438 1188.38 503.594 1188.38 505.07C1188.38 506.492 1188.74 507.613 1189.47 508.434C1190.2 509.254 1191.17 509.664 1192.39 509.664C1193.63 509.664 1194.58 509.262 1195.25 508.457C1195.92 507.652 1196.25 506.508 1196.25 505.023C1196.25 503.523 1195.92 502.367 1195.25 501.555C1194.58 500.742 1193.63 500.336 1192.39 500.336ZM1200.57 510.566V508.504C1201.61 509.277 1202.77 509.664 1204.02 509.664C1205.71 509.664 1206.55 509.102 1206.55 507.977C1206.55 507.656 1206.48 507.387 1206.33 507.168C1206.19 506.941 1206 506.742 1205.75 506.57C1205.5 506.398 1205.21 506.246 1204.88 506.113C1204.55 505.973 1204.2 505.828 1203.81 505.68C1203.28 505.469 1202.81 505.258 1202.41 505.047C1202.01 504.828 1201.67 504.586 1201.4 504.32C1201.13 504.047 1200.93 503.738 1200.79 503.395C1200.66 503.051 1200.59 502.648 1200.59 502.188C1200.59 501.625 1200.72 501.129 1200.98 500.699C1201.23 500.262 1201.58 499.898 1202.01 499.609C1202.44 499.312 1202.93 499.09 1203.47 498.941C1204.03 498.793 1204.6 498.719 1205.18 498.719C1206.22 498.719 1207.15 498.898 1207.97 499.258V501.203C1207.09 500.625 1206.07 500.336 1204.93 500.336C1204.57 500.336 1204.24 500.379 1203.95 500.465C1203.66 500.543 1203.41 500.656 1203.2 500.805C1203 500.953 1202.84 501.133 1202.72 501.344C1202.61 501.547 1202.56 501.773 1202.56 502.023C1202.56 502.336 1202.61 502.598 1202.72 502.809C1202.84 503.02 1203.01 503.207 1203.23 503.371C1203.45 503.535 1203.71 503.684 1204.02 503.816C1204.34 503.949 1204.69 504.094 1205.09 504.25C1205.62 504.453 1206.1 504.664 1206.52 504.883C1206.94 505.094 1207.3 505.336 1207.6 505.609C1207.89 505.875 1208.12 506.184 1208.28 506.535C1208.44 506.887 1208.52 507.305 1208.52 507.789C1208.52 508.383 1208.39 508.898 1208.12 509.336C1207.87 509.773 1207.52 510.137 1207.08 510.426C1206.64 510.715 1206.14 510.93 1205.57 511.07C1205 511.211 1204.4 511.281 1203.78 511.281C1202.54 511.281 1201.47 511.043 1200.57 510.566ZM1216.5 511.281C1214.73 511.281 1213.31 510.723 1212.25 509.605C1211.2 508.48 1210.67 506.992 1210.67 505.141C1210.67 503.125 1211.22 501.551 1212.32 500.418C1213.42 499.285 1214.91 498.719 1216.79 498.719C1218.57 498.719 1219.97 499.27 1220.97 500.371C1221.98 501.473 1222.48 503 1222.48 504.953C1222.48 506.867 1221.94 508.402 1220.85 509.559C1219.77 510.707 1218.32 511.281 1216.5 511.281ZM1216.64 500.336C1215.41 500.336 1214.43 500.758 1213.71 501.602C1213 502.438 1212.64 503.594 1212.64 505.07C1212.64 506.492 1213 507.613 1213.73 508.434C1214.45 509.254 1215.43 509.664 1216.64 509.664C1217.89 509.664 1218.84 509.262 1219.5 508.457C1220.18 507.652 1220.51 506.508 1220.51 505.023C1220.51 503.523 1220.18 502.367 1219.5 501.555C1218.84 500.742 1217.89 500.336 1216.64 500.336Z" fill="url(#paint2_linear_177_147)"/>
<path d="M747.682 238.641V224.325H750.572V229.96H756.236V224.325H759.127V238.641H756.236V232.382H750.572V238.641H747.682ZM762.037 238.641V224.325H764.928V238.641H762.037ZM766.959 233.983L769.771 233.71C769.941 234.654 770.283 235.347 770.797 235.79C771.318 236.233 772.018 236.454 772.896 236.454C773.827 236.454 774.527 236.259 774.996 235.868C775.471 235.471 775.709 235.009 775.709 234.481C775.709 234.143 775.608 233.856 775.406 233.622C775.211 233.381 774.866 233.173 774.371 232.997C774.033 232.88 773.261 232.671 772.057 232.372C770.507 231.988 769.42 231.516 768.795 230.956C767.916 230.168 767.477 229.208 767.477 228.075C767.477 227.346 767.682 226.665 768.092 226.034C768.508 225.396 769.104 224.911 769.879 224.579C770.66 224.247 771.601 224.081 772.701 224.081C774.498 224.081 775.849 224.475 776.754 225.262C777.665 226.05 778.144 227.102 778.189 228.417L775.299 228.544C775.175 227.808 774.908 227.281 774.498 226.962C774.094 226.636 773.486 226.473 772.672 226.473C771.832 226.473 771.174 226.646 770.699 226.991C770.393 227.212 770.24 227.509 770.24 227.88C770.24 228.218 770.383 228.508 770.67 228.749C771.035 229.055 771.92 229.374 773.326 229.706C774.732 230.038 775.771 230.383 776.441 230.741C777.118 231.093 777.646 231.578 778.023 232.196C778.408 232.808 778.6 233.566 778.6 234.471C778.6 235.292 778.372 236.06 777.916 236.776C777.46 237.492 776.816 238.026 775.982 238.378C775.149 238.723 774.111 238.895 772.867 238.895C771.057 238.895 769.667 238.479 768.697 237.645C767.727 236.805 767.148 235.585 766.959 233.983ZM784.254 238.641V226.747H780.006V224.325H791.383V226.747H787.145V238.641H784.254ZM792.672 231.571C792.672 230.113 792.89 228.889 793.326 227.899C793.652 227.17 794.094 226.516 794.654 225.936C795.221 225.357 795.839 224.927 796.51 224.647C797.402 224.27 798.43 224.081 799.596 224.081C801.705 224.081 803.391 224.735 804.654 226.044C805.924 227.352 806.559 229.172 806.559 231.503C806.559 233.814 805.93 235.624 804.674 236.932C803.417 238.234 801.738 238.885 799.635 238.885C797.506 238.885 795.813 238.238 794.557 236.942C793.3 235.64 792.672 233.85 792.672 231.571ZM795.65 231.473C795.65 233.094 796.025 234.325 796.773 235.165C797.522 235.998 798.473 236.415 799.625 236.415C800.777 236.415 801.721 236.001 802.457 235.175C803.199 234.341 803.57 233.094 803.57 231.434C803.57 229.794 803.209 228.57 802.486 227.762C801.77 226.955 800.816 226.552 799.625 226.552C798.434 226.552 797.473 226.962 796.744 227.782C796.015 228.596 795.65 229.826 795.65 231.473ZM797.838 223.505L799.186 220.585H802.262L799.576 223.505H797.838ZM808.834 238.641V224.325H814.918C816.448 224.325 817.558 224.455 818.248 224.716C818.945 224.969 819.501 225.425 819.918 226.083C820.335 226.74 820.543 227.492 820.543 228.339C820.543 229.413 820.227 230.302 819.596 231.005C818.964 231.701 818.02 232.141 816.764 232.323C817.389 232.688 817.903 233.088 818.307 233.524C818.717 233.96 819.267 234.735 819.957 235.848L821.705 238.641H818.248L816.158 235.526C815.416 234.413 814.908 233.713 814.635 233.427C814.361 233.134 814.072 232.935 813.766 232.831C813.46 232.72 812.975 232.665 812.311 232.665H811.725V238.641H808.834ZM811.725 230.38H813.863C815.25 230.38 816.116 230.321 816.461 230.204C816.806 230.087 817.076 229.885 817.271 229.598C817.467 229.312 817.564 228.954 817.564 228.524C817.564 228.042 817.434 227.655 817.174 227.362C816.92 227.063 816.559 226.874 816.09 226.796C815.855 226.763 815.152 226.747 813.98 226.747H811.725V230.38ZM823.189 238.641V224.325H826.08V238.641H823.189ZM841.754 238.641H838.609L837.359 235.389H831.637L830.455 238.641H827.389L832.965 224.325H836.021L841.754 238.641ZM836.432 232.977L834.459 227.665L832.525 232.977H836.432ZM848.111 224.325H853.395C854.586 224.325 855.494 224.416 856.119 224.598C856.959 224.846 857.678 225.285 858.277 225.917C858.876 226.548 859.332 227.323 859.645 228.241C859.957 229.152 860.113 230.279 860.113 231.62C860.113 232.798 859.967 233.814 859.674 234.667C859.316 235.708 858.805 236.552 858.141 237.196C857.639 237.684 856.962 238.065 856.109 238.339C855.471 238.54 854.618 238.641 853.551 238.641H848.111V224.325ZM851.002 226.747V236.229H853.16C853.967 236.229 854.55 236.184 854.908 236.093C855.377 235.975 855.764 235.777 856.07 235.497C856.383 235.217 856.637 234.758 856.832 234.12C857.027 233.475 857.125 232.6 857.125 231.493C857.125 230.386 857.027 229.537 856.832 228.944C856.637 228.352 856.363 227.889 856.012 227.557C855.66 227.225 855.214 227.001 854.674 226.884C854.27 226.792 853.479 226.747 852.301 226.747H851.002ZM862.574 238.641V224.325H873.189V226.747H865.465V229.921H872.652V232.333H865.465V236.229H873.463V238.641H862.574ZM884.703 238.641V226.747H880.455V224.325H891.832V226.747H887.594V238.641H884.703ZM893.717 238.641V224.325H899.801C901.331 224.325 902.441 224.455 903.131 224.716C903.827 224.969 904.384 225.425 904.801 226.083C905.217 226.74 905.426 227.492 905.426 228.339C905.426 229.413 905.11 230.302 904.479 231.005C903.847 231.701 902.903 232.141 901.646 232.323C902.271 232.688 902.786 233.088 903.189 233.524C903.6 233.96 904.15 234.735 904.84 235.848L906.588 238.641H903.131L901.041 235.526C900.299 234.413 899.791 233.713 899.518 233.427C899.244 233.134 898.954 232.935 898.648 232.831C898.342 232.72 897.857 232.665 897.193 232.665H896.607V238.641H893.717ZM896.607 230.38H898.746C900.133 230.38 900.999 230.321 901.344 230.204C901.689 230.087 901.959 229.885 902.154 229.598C902.35 229.312 902.447 228.954 902.447 228.524C902.447 228.042 902.317 227.655 902.057 227.362C901.803 227.063 901.441 226.874 900.973 226.796C900.738 226.763 900.035 226.747 898.863 226.747H896.607V230.38ZM921.07 238.641H917.926L916.676 235.389H910.953L909.771 238.641H906.705L912.281 224.325H915.338L921.07 238.641ZM915.748 232.977L913.775 227.665L911.842 232.977H915.748ZM922.643 238.641V224.325H925.455L931.314 233.885V224.325H934V238.641H931.1L925.328 229.305V238.641H922.643ZM936.334 233.983L939.146 233.71C939.316 234.654 939.658 235.347 940.172 235.79C940.693 236.233 941.393 236.454 942.271 236.454C943.202 236.454 943.902 236.259 944.371 235.868C944.846 235.471 945.084 235.009 945.084 234.481C945.084 234.143 944.983 233.856 944.781 233.622C944.586 233.381 944.241 233.173 943.746 232.997C943.408 232.88 942.636 232.671 941.432 232.372C939.882 231.988 938.795 231.516 938.17 230.956C937.291 230.168 936.852 229.208 936.852 228.075C936.852 227.346 937.057 226.665 937.467 226.034C937.883 225.396 938.479 224.911 939.254 224.579C940.035 224.247 940.976 224.081 942.076 224.081C943.873 224.081 945.224 224.475 946.129 225.262C947.04 226.05 947.519 227.102 947.564 228.417L944.674 228.544C944.55 227.808 944.283 227.281 943.873 226.962C943.469 226.636 942.861 226.473 942.047 226.473C941.207 226.473 940.549 226.646 940.074 226.991C939.768 227.212 939.615 227.509 939.615 227.88C939.615 228.218 939.758 228.508 940.045 228.749C940.41 229.055 941.295 229.374 942.701 229.706C944.107 230.038 945.146 230.383 945.816 230.741C946.493 231.093 947.021 231.578 947.398 232.196C947.783 232.808 947.975 233.566 947.975 234.471C947.975 235.292 947.747 236.06 947.291 236.776C946.835 237.492 946.191 238.026 945.357 238.378C944.524 238.723 943.486 238.895 942.242 238.895C940.432 238.895 939.042 238.479 938.072 237.645C937.102 236.805 936.523 235.585 936.334 233.983ZM950.426 238.641V224.325H960.24V226.747H953.316V230.135H959.293V232.557H953.316V238.641H950.426ZM962.047 231.571C962.047 230.113 962.265 228.889 962.701 227.899C963.027 227.17 963.469 226.516 964.029 225.936C964.596 225.357 965.214 224.927 965.885 224.647C966.777 224.27 967.805 224.081 968.971 224.081C971.08 224.081 972.766 224.735 974.029 226.044C975.299 227.352 975.934 229.172 975.934 231.503C975.934 233.814 975.305 235.624 974.049 236.932C972.792 238.234 971.113 238.885 969.01 238.885C966.881 238.885 965.188 238.238 963.932 236.942C962.675 235.64 962.047 233.85 962.047 231.571ZM965.025 231.473C965.025 233.094 965.4 234.325 966.148 235.165C966.897 235.998 967.848 236.415 969 236.415C970.152 236.415 971.096 236.001 971.832 235.175C972.574 234.341 972.945 233.094 972.945 231.434C972.945 229.794 972.584 228.57 971.861 227.762C971.145 226.955 970.191 226.552 969 226.552C967.809 226.552 966.848 226.962 966.119 227.782C965.39 228.596 965.025 229.826 965.025 231.473ZM978.209 238.641V224.325H984.293C985.823 224.325 986.933 224.455 987.623 224.716C988.32 224.969 988.876 225.425 989.293 226.083C989.71 226.74 989.918 227.492 989.918 228.339C989.918 229.413 989.602 230.302 988.971 231.005C988.339 231.701 987.395 232.141 986.139 232.323C986.764 232.688 987.278 233.088 987.682 233.524C988.092 233.96 988.642 234.735 989.332 235.848L991.08 238.641H987.623L985.533 235.526C984.791 234.413 984.283 233.713 984.01 233.427C983.736 233.134 983.447 232.935 983.141 232.831C982.835 232.72 982.35 232.665 981.686 232.665H981.1V238.641H978.209ZM981.1 230.38H983.238C984.625 230.38 985.491 230.321 985.836 230.204C986.181 230.087 986.451 229.885 986.646 229.598C986.842 229.312 986.939 228.954 986.939 228.524C986.939 228.042 986.809 227.655 986.549 227.362C986.295 227.063 985.934 226.874 985.465 226.796C985.23 226.763 984.527 226.747 983.355 226.747H981.1V230.38ZM992.613 238.641V224.325H996.939L999.537 234.091L1002.11 224.325H1006.44V238.641H1003.76V227.372L1000.91 238.641H998.131L995.299 227.372V238.641H992.613ZM1022.22 238.641H1019.08L1017.83 235.389H1012.11L1010.92 238.641H1007.86L1013.43 224.325H1016.49L1022.22 238.641ZM1016.9 232.977L1014.93 227.665L1012.99 232.977H1016.9ZM1032.93 233.378L1035.73 234.266C1035.3 235.829 1034.58 236.991 1033.58 237.753C1032.58 238.508 1031.32 238.885 1029.78 238.885C1027.88 238.885 1026.32 238.238 1025.09 236.942C1023.87 235.64 1023.26 233.863 1023.26 231.61C1023.26 229.227 1023.87 227.378 1025.1 226.063C1026.33 224.742 1027.95 224.081 1029.96 224.081C1031.71 224.081 1033.13 224.598 1034.22 225.634C1034.88 226.246 1035.36 227.124 1035.69 228.27L1032.83 228.954C1032.66 228.212 1032.3 227.626 1031.76 227.196C1031.23 226.766 1030.58 226.552 1029.81 226.552C1028.75 226.552 1027.89 226.932 1027.22 227.694C1026.57 228.456 1026.24 229.69 1026.24 231.395C1026.24 233.205 1026.56 234.494 1027.21 235.262C1027.86 236.031 1028.71 236.415 1029.75 236.415C1030.52 236.415 1031.18 236.171 1031.73 235.682C1032.29 235.194 1032.68 234.426 1032.93 233.378ZM1026.85 242.577V241.425C1027.52 241.496 1028.14 241.532 1028.7 241.532C1029.28 241.532 1029.71 241.428 1029.99 241.219C1030.2 241.063 1030.31 240.861 1030.31 240.614C1030.31 240.393 1030.21 240.201 1030.01 240.038C1029.8 239.875 1029.49 239.794 1029.07 239.794C1028.65 239.794 1028.23 239.859 1027.79 239.989L1028.04 239.022C1028.55 238.846 1029.1 238.759 1029.68 238.759C1030.5 238.759 1031.12 238.938 1031.54 239.296C1031.96 239.654 1032.17 240.09 1032.17 240.604C1032.17 241.177 1031.94 241.643 1031.47 242.001C1030.84 242.489 1029.93 242.733 1028.76 242.733C1027.92 242.733 1027.28 242.681 1026.85 242.577ZM1051.13 238.641H1047.98L1046.73 235.389H1041.01L1039.83 238.641H1036.76L1042.34 224.325H1045.4L1051.13 238.641ZM1045.81 232.977L1043.83 227.665L1041.9 232.977H1045.81ZM1041.6 223.534H1040.35C1040.34 223.384 1040.34 223.267 1040.34 223.182C1040.34 222.499 1040.5 221.975 1040.84 221.61C1041.17 221.239 1041.59 221.053 1042.12 221.053C1042.34 221.053 1042.55 221.08 1042.75 221.132C1042.95 221.177 1043.3 221.317 1043.81 221.552C1044.34 221.779 1044.74 221.893 1045.04 221.893C1045.24 221.893 1045.42 221.828 1045.55 221.698C1045.7 221.568 1045.79 221.35 1045.83 221.044H1047.1C1047.09 221.923 1046.92 222.551 1046.6 222.928C1046.28 223.306 1045.87 223.495 1045.36 223.495C1045.14 223.495 1044.92 223.472 1044.7 223.427C1044.55 223.387 1044.18 223.254 1043.58 223.026C1042.98 222.798 1042.54 222.684 1042.27 222.684C1042.06 222.684 1041.9 222.749 1041.78 222.88C1041.67 223.003 1041.6 223.221 1041.6 223.534ZM1052.09 231.571C1052.09 230.113 1052.3 228.889 1052.74 227.899C1053.07 227.17 1053.51 226.516 1054.07 225.936C1054.63 225.357 1055.25 224.927 1055.92 224.647C1056.82 224.27 1057.84 224.081 1059.01 224.081C1061.12 224.081 1062.81 224.735 1064.07 226.044C1065.34 227.352 1065.97 229.172 1065.97 231.503C1065.97 233.814 1065.34 235.624 1064.09 236.932C1062.83 238.234 1061.15 238.885 1059.05 238.885C1056.92 238.885 1055.23 238.238 1053.97 236.942C1052.71 235.64 1052.09 233.85 1052.09 231.571ZM1055.06 231.473C1055.06 233.094 1055.44 234.325 1056.19 235.165C1056.94 235.998 1057.89 236.415 1059.04 236.415C1060.19 236.415 1061.14 236.001 1061.87 235.175C1062.61 234.341 1062.98 233.094 1062.98 231.434C1062.98 229.794 1062.62 228.57 1061.9 227.762C1061.18 226.955 1060.23 226.552 1059.04 226.552C1057.85 226.552 1056.89 226.962 1056.16 227.782C1055.43 228.596 1055.06 229.826 1055.06 231.473Z" fill="url(#paint3_linear_177_147)" fill-opacity="0.6"/>
<path d="M774.605 299.797V285.481H780.689C782.219 285.481 783.329 285.611 784.019 285.871C784.716 286.125 785.272 286.581 785.689 287.239C786.106 287.896 786.314 288.648 786.314 289.494C786.314 290.569 785.998 291.457 785.367 292.16C784.735 292.857 783.791 293.296 782.535 293.479C783.16 293.843 783.674 294.244 784.078 294.68C784.488 295.116 785.038 295.891 785.728 297.004L787.476 299.797H784.019L781.929 296.682C781.187 295.569 780.679 294.869 780.406 294.582C780.132 294.289 779.843 294.091 779.537 293.987C779.231 293.876 778.746 293.821 778.082 293.821H777.496V299.797H774.605ZM777.496 291.535H779.634C781.021 291.535 781.887 291.477 782.232 291.36C782.577 291.242 782.847 291.041 783.042 290.754C783.238 290.468 783.335 290.11 783.335 289.68C783.335 289.198 783.205 288.811 782.945 288.518C782.691 288.218 782.33 288.03 781.861 287.951C781.626 287.919 780.923 287.903 779.751 287.903H777.496V291.535ZM789.048 299.797V285.481H799.664V287.903H791.939V291.076H799.126V293.489H791.939V297.385H799.937V299.797H789.048ZM802.466 299.797V285.598H805.357V297.385H812.544V299.797H802.466ZM827.525 299.797H824.38L823.13 296.545H817.408L816.226 299.797H813.16L818.736 285.481H821.792L827.525 299.797ZM822.203 294.133L820.23 288.821L818.296 294.133H822.203ZM838.228 294.533L841.031 295.422C840.601 296.985 839.885 298.147 838.882 298.908C837.886 299.664 836.62 300.041 835.083 300.041C833.182 300.041 831.62 299.393 830.396 298.098C829.172 296.796 828.56 295.018 828.56 292.766C828.56 290.383 829.175 288.534 830.406 287.219C831.636 285.897 833.254 285.237 835.259 285.237C837.011 285.237 838.433 285.754 839.527 286.789C840.178 287.401 840.666 288.28 840.992 289.426L838.13 290.11C837.961 289.367 837.606 288.781 837.066 288.352C836.532 287.922 835.881 287.707 835.113 287.707C834.052 287.707 833.189 288.088 832.525 288.85C831.867 289.612 831.539 290.845 831.539 292.551C831.539 294.361 831.864 295.65 832.515 296.418C833.166 297.186 834.013 297.571 835.054 297.571C835.822 297.571 836.483 297.326 837.037 296.838C837.59 296.35 837.987 295.582 838.228 294.533ZM832.154 303.733V302.58C832.824 302.652 833.44 302.688 834 302.688C834.579 302.688 835.009 302.584 835.289 302.375C835.503 302.219 835.611 302.017 835.611 301.77C835.611 301.548 835.51 301.356 835.308 301.194C835.106 301.031 834.794 300.949 834.371 300.949C833.954 300.949 833.528 301.015 833.091 301.145L833.345 300.178C833.853 300.002 834.4 299.914 834.986 299.914C835.8 299.914 836.418 300.093 836.841 300.451C837.264 300.809 837.476 301.246 837.476 301.76C837.476 302.333 837.242 302.798 836.773 303.156C836.141 303.645 835.236 303.889 834.058 303.889C833.218 303.889 832.583 303.837 832.154 303.733ZM842.935 292.727C842.935 291.268 843.153 290.045 843.589 289.055C843.915 288.326 844.358 287.671 844.917 287.092C845.484 286.513 846.102 286.083 846.773 285.803C847.665 285.425 848.694 285.237 849.859 285.237C851.968 285.237 853.654 285.891 854.917 287.199C856.187 288.508 856.822 290.328 856.822 292.658C856.822 294.97 856.194 296.78 854.937 298.088C853.681 299.39 852.001 300.041 849.898 300.041C847.769 300.041 846.076 299.393 844.82 298.098C843.563 296.796 842.935 295.005 842.935 292.727ZM845.914 292.629C845.914 294.25 846.288 295.481 847.037 296.321C847.785 297.154 848.736 297.571 849.888 297.571C851.041 297.571 851.985 297.157 852.72 296.33C853.462 295.497 853.833 294.25 853.833 292.59C853.833 290.949 853.472 289.726 852.75 288.918C852.033 288.111 851.08 287.707 849.888 287.707C848.697 287.707 847.736 288.117 847.007 288.938C846.278 289.752 845.914 290.982 845.914 292.629ZM847.525 284.69H846.275C846.268 284.54 846.265 284.423 846.265 284.338C846.265 283.655 846.431 283.13 846.763 282.766C847.095 282.395 847.522 282.209 848.042 282.209C848.27 282.209 848.482 282.235 848.677 282.287C848.873 282.333 849.227 282.473 849.742 282.707C850.263 282.935 850.669 283.049 850.962 283.049C851.171 283.049 851.343 282.984 851.48 282.854C851.623 282.724 851.714 282.505 851.753 282.199H853.023C853.016 283.078 852.85 283.707 852.525 284.084C852.206 284.462 851.792 284.651 851.285 284.651C851.063 284.651 850.845 284.628 850.63 284.582C850.481 284.543 850.106 284.41 849.507 284.182C848.908 283.954 848.472 283.84 848.199 283.84C847.99 283.84 847.828 283.905 847.71 284.035C847.593 284.159 847.531 284.377 847.525 284.69ZM859.087 299.797V285.481H869.703V287.903H861.978V291.076H869.166V293.489H861.978V297.385H869.976V299.797H859.087ZM871.695 295.139L874.507 294.865C874.677 295.809 875.018 296.503 875.533 296.946C876.054 297.388 876.753 297.61 877.632 297.61C878.563 297.61 879.263 297.414 879.732 297.024C880.207 296.627 880.445 296.164 880.445 295.637C880.445 295.298 880.344 295.012 880.142 294.778C879.947 294.537 879.602 294.328 879.107 294.153C878.768 294.035 877.997 293.827 876.792 293.528C875.243 293.143 874.156 292.671 873.531 292.112C872.652 291.324 872.212 290.364 872.212 289.231C872.212 288.502 872.417 287.821 872.828 287.19C873.244 286.552 873.84 286.067 874.615 285.735C875.396 285.403 876.337 285.237 877.437 285.237C879.234 285.237 880.585 285.63 881.49 286.418C882.401 287.206 882.88 288.257 882.925 289.573L880.035 289.699C879.911 288.964 879.644 288.436 879.234 288.117C878.83 287.792 878.222 287.629 877.408 287.629C876.568 287.629 875.91 287.802 875.435 288.147C875.129 288.368 874.976 288.664 874.976 289.035C874.976 289.374 875.119 289.664 875.406 289.905C875.77 290.211 876.656 290.53 878.062 290.862C879.468 291.194 880.507 291.539 881.177 291.897C881.854 292.248 882.382 292.733 882.759 293.352C883.143 293.964 883.335 294.722 883.335 295.627C883.335 296.448 883.108 297.216 882.652 297.932C882.196 298.648 881.552 299.182 880.718 299.533C879.885 299.878 878.847 300.051 877.603 300.051C875.793 300.051 874.403 299.634 873.433 298.801C872.463 297.961 871.884 296.74 871.695 295.139ZM896.89 285.481H902.173C903.365 285.481 904.273 285.572 904.898 285.754C905.738 286.002 906.457 286.441 907.056 287.073C907.655 287.704 908.111 288.479 908.423 289.397C908.736 290.308 908.892 291.434 908.892 292.776C908.892 293.954 908.746 294.97 908.453 295.823C908.095 296.864 907.583 297.707 906.919 298.352C906.418 298.84 905.741 299.221 904.888 299.494C904.25 299.696 903.397 299.797 902.33 299.797H896.89V285.481ZM899.781 287.903V297.385H901.939C902.746 297.385 903.329 297.339 903.687 297.248C904.156 297.131 904.543 296.933 904.849 296.653C905.162 296.373 905.416 295.914 905.611 295.276C905.806 294.631 905.904 293.755 905.904 292.649C905.904 291.542 905.806 290.692 905.611 290.1C905.416 289.507 905.142 289.045 904.791 288.713C904.439 288.381 903.993 288.156 903.453 288.039C903.049 287.948 902.258 287.903 901.08 287.903H899.781ZM911.333 285.481H914.224V293.235C914.224 294.465 914.26 295.263 914.332 295.627C914.455 296.213 914.748 296.685 915.21 297.043C915.679 297.395 916.317 297.571 917.125 297.571C917.945 297.571 918.563 297.405 918.98 297.073C919.397 296.734 919.647 296.321 919.732 295.832C919.817 295.344 919.859 294.533 919.859 293.401V285.481H922.75V293C922.75 294.719 922.671 295.933 922.515 296.643C922.359 297.352 922.069 297.951 921.646 298.44C921.229 298.928 920.669 299.319 919.966 299.612C919.263 299.898 918.345 300.041 917.212 300.041C915.845 300.041 914.807 299.885 914.097 299.573C913.394 299.253 912.837 298.843 912.427 298.342C912.017 297.834 911.747 297.304 911.617 296.75C911.428 295.93 911.333 294.719 911.333 293.117V285.481ZM925.816 299.797V285.481H931.9C933.43 285.481 934.54 285.611 935.23 285.871C935.927 286.125 936.483 286.581 936.9 287.239C937.317 287.896 937.525 288.648 937.525 289.494C937.525 290.569 937.209 291.457 936.578 292.16C935.946 292.857 935.002 293.296 933.746 293.479C934.371 293.843 934.885 294.244 935.289 294.68C935.699 295.116 936.249 295.891 936.939 297.004L938.687 299.797H935.23L933.14 296.682C932.398 295.569 931.89 294.869 931.617 294.582C931.343 294.289 931.054 294.091 930.748 293.987C930.442 293.876 929.957 293.821 929.292 293.821H928.707V299.797H925.816ZM928.707 291.535H930.845C932.232 291.535 933.098 291.477 933.443 291.36C933.788 291.242 934.058 291.041 934.253 290.754C934.449 290.468 934.546 290.11 934.546 289.68C934.546 289.198 934.416 288.811 934.156 288.518C933.902 288.218 933.541 288.03 933.072 287.951C932.837 287.919 932.134 287.903 930.962 287.903H928.707V291.535ZM953.169 299.797H950.025L948.775 296.545H943.052L941.871 299.797H938.804L944.38 285.481H947.437L953.169 299.797ZM947.847 294.133L945.875 288.821L943.941 294.133H947.847ZM954.703 285.481H959.986C961.177 285.481 962.085 285.572 962.71 285.754C963.55 286.002 964.27 286.441 964.869 287.073C965.468 287.704 965.923 288.479 966.236 289.397C966.548 290.308 966.705 291.434 966.705 292.776C966.705 293.954 966.558 294.97 966.265 295.823C965.907 296.864 965.396 297.707 964.732 298.352C964.231 298.84 963.554 299.221 962.701 299.494C962.063 299.696 961.21 299.797 960.142 299.797H954.703V285.481ZM957.593 287.903V297.385H959.751C960.559 297.385 961.141 297.339 961.5 297.248C961.968 297.131 962.356 296.933 962.662 296.653C962.974 296.373 963.228 295.914 963.423 295.276C963.619 294.631 963.716 293.755 963.716 292.649C963.716 291.542 963.619 290.692 963.423 290.1C963.228 289.507 962.955 289.045 962.603 288.713C962.251 288.381 961.806 288.156 961.265 288.039C960.861 287.948 960.07 287.903 958.892 287.903H957.593ZM968.58 292.727C968.58 291.268 968.798 290.045 969.234 289.055C969.559 288.326 970.002 287.671 970.562 287.092C971.128 286.513 971.747 286.083 972.417 285.803C973.309 285.425 974.338 285.237 975.503 285.237C977.613 285.237 979.299 285.891 980.562 287.199C981.832 288.508 982.466 290.328 982.466 292.658C982.466 294.97 981.838 296.78 980.582 298.088C979.325 299.39 977.645 300.041 975.542 300.041C973.414 300.041 971.721 299.393 970.464 298.098C969.208 296.796 968.58 295.005 968.58 292.727ZM971.558 292.629C971.558 294.25 971.932 295.481 972.681 296.321C973.43 297.154 974.38 297.571 975.533 297.571C976.685 297.571 977.629 297.157 978.365 296.33C979.107 295.497 979.478 294.25 979.478 292.59C979.478 290.949 979.117 289.726 978.394 288.918C977.678 288.111 976.724 287.707 975.533 287.707C974.341 287.707 973.381 288.117 972.652 288.938C971.923 289.752 971.558 290.982 971.558 292.629ZM984.712 285.481H987.603V293.235C987.603 294.465 987.639 295.263 987.71 295.627C987.834 296.213 988.127 296.685 988.589 297.043C989.058 297.395 989.696 297.571 990.503 297.571C991.324 297.571 991.942 297.405 992.359 297.073C992.776 296.734 993.026 296.321 993.111 295.832C993.195 295.344 993.238 294.533 993.238 293.401V285.481H996.128V293C996.128 294.719 996.05 295.933 995.894 296.643C995.738 297.352 995.448 297.951 995.025 298.44C994.608 298.928 994.048 299.319 993.345 299.612C992.642 299.898 991.724 300.041 990.591 300.041C989.224 300.041 988.186 299.885 987.476 299.573C986.773 299.253 986.216 298.843 985.806 298.342C985.396 297.834 985.126 297.304 984.996 296.75C984.807 295.93 984.712 294.719 984.712 293.117V285.481ZM999.195 299.797V285.481H1005.28C1006.81 285.481 1007.92 285.611 1008.61 285.871C1009.31 286.125 1009.86 286.581 1010.28 287.239C1010.7 287.896 1010.9 288.648 1010.9 289.494C1010.9 290.569 1010.59 291.457 1009.96 292.16C1009.33 292.857 1008.38 293.296 1007.12 293.479C1007.75 293.843 1008.26 294.244 1008.67 294.68C1009.08 295.116 1009.63 295.891 1010.32 297.004L1012.07 299.797H1008.61L1006.52 296.682C1005.78 295.569 1005.27 294.869 1005 294.582C1004.72 294.289 1004.43 294.091 1004.13 293.987C1003.82 293.876 1003.34 293.821 1002.67 293.821H1002.09V299.797H999.195ZM1002.09 291.535H1004.22C1005.61 291.535 1006.48 291.477 1006.82 291.36C1007.17 291.242 1007.44 291.041 1007.63 290.754C1007.83 290.468 1007.93 290.11 1007.93 289.68C1007.93 289.198 1007.8 288.811 1007.53 288.518C1007.28 288.218 1006.92 288.03 1006.45 287.951C1006.22 287.919 1005.51 287.903 1004.34 287.903H1002.09V291.535ZM1026.55 299.797H1023.4L1022.15 296.545H1016.43L1015.25 299.797H1012.18L1017.76 285.481H1020.82L1026.55 299.797ZM1021.23 294.133L1019.25 288.821L1017.32 294.133H1021.23ZM1027.36 295.139L1030.17 294.865C1030.34 295.809 1030.68 296.503 1031.2 296.946C1031.72 297.388 1032.42 297.61 1033.3 297.61C1034.23 297.61 1034.93 297.414 1035.4 297.024C1035.87 296.627 1036.11 296.164 1036.11 295.637C1036.11 295.298 1036.01 295.012 1035.81 294.778C1035.61 294.537 1035.27 294.328 1034.77 294.153C1034.43 294.035 1033.66 293.827 1032.46 293.528C1030.91 293.143 1029.82 292.671 1029.19 292.112C1028.32 291.324 1027.88 290.364 1027.88 289.231C1027.88 288.502 1028.08 287.821 1028.49 287.19C1028.91 286.552 1029.5 286.067 1030.28 285.735C1031.06 285.403 1032 285.237 1033.1 285.237C1034.9 285.237 1036.25 285.63 1037.15 286.418C1038.07 287.206 1038.54 288.257 1038.59 289.573L1035.7 289.699C1035.58 288.964 1035.31 288.436 1034.9 288.117C1034.49 287.792 1033.89 287.629 1033.07 287.629C1032.23 287.629 1031.57 287.802 1031.1 288.147C1030.79 288.368 1030.64 288.664 1030.64 289.035C1030.64 289.374 1030.78 289.664 1031.07 289.905C1031.43 290.211 1032.32 290.53 1033.73 290.862C1035.13 291.194 1036.17 291.539 1036.84 291.897C1037.52 292.248 1038.05 292.733 1038.42 293.352C1038.81 293.964 1039 294.722 1039 295.627C1039 296.448 1038.77 297.216 1038.32 297.932C1037.86 298.648 1037.22 299.182 1036.38 299.533C1035.55 299.878 1034.51 300.051 1033.27 300.051C1031.46 300.051 1030.07 299.634 1029.1 298.801C1028.13 297.961 1027.55 296.74 1027.36 295.139Z" fill="url(#paint4_linear_177_147)" fill-opacity="0.6"/>
<path d="M828.681 354.389H825.536L824.286 351.137H818.563L817.382 354.389H814.315L819.892 340.072H822.948L828.681 354.389ZM823.358 348.725L821.386 343.412L819.452 348.725H823.358ZM831.962 354.389V342.494H827.714V340.072H839.091V342.494H834.853V354.389H831.962ZM840.878 354.389V340.072H843.769V354.389H840.878ZM849.755 354.389V342.494H845.507V340.072H856.884V342.494H852.646V354.389H849.755ZM858.739 340.072H861.63V347.826C861.63 349.057 861.666 349.854 861.737 350.219C861.861 350.805 862.154 351.277 862.616 351.635C863.085 351.987 863.723 352.162 864.53 352.162C865.351 352.162 865.969 351.996 866.386 351.664C866.802 351.326 867.053 350.912 867.138 350.424C867.222 349.936 867.265 349.125 867.265 347.992V340.072H870.155V347.592C870.155 349.311 870.077 350.525 869.921 351.235C869.765 351.944 869.475 352.543 869.052 353.031C868.635 353.52 868.075 353.91 867.372 354.203C866.669 354.49 865.751 354.633 864.618 354.633C863.251 354.633 862.213 354.477 861.503 354.164C860.8 353.845 860.243 353.435 859.833 352.934C859.423 352.426 859.153 351.895 859.022 351.342C858.834 350.522 858.739 349.311 858.739 347.709V340.072ZM873.202 340.072H878.485C879.677 340.072 880.585 340.164 881.21 340.346C882.05 340.593 882.769 341.033 883.368 341.664C883.967 342.296 884.423 343.071 884.735 343.988C885.048 344.9 885.204 346.026 885.204 347.367C885.204 348.546 885.058 349.561 884.765 350.414C884.407 351.456 883.896 352.299 883.231 352.944C882.73 353.432 882.053 353.813 881.2 354.086C880.562 354.288 879.709 354.389 878.642 354.389H873.202V340.072ZM876.093 342.494V351.977H878.251C879.058 351.977 879.641 351.931 879.999 351.84C880.468 351.723 880.855 351.524 881.161 351.244C881.474 350.964 881.728 350.505 881.923 349.867C882.118 349.223 882.216 348.347 882.216 347.24C882.216 346.134 882.118 345.284 881.923 344.692C881.728 344.099 881.454 343.637 881.103 343.305C880.751 342.973 880.305 342.748 879.765 342.631C879.361 342.54 878.57 342.494 877.392 342.494H876.093ZM887.665 354.389V340.072H898.28V342.494H890.556V345.668H897.743V348.08H890.556V351.977H898.554V354.389H887.665ZM906.562 340.072H911.845C913.036 340.072 913.944 340.164 914.569 340.346C915.409 340.593 916.129 341.033 916.728 341.664C917.326 342.296 917.782 343.071 918.095 343.988C918.407 344.9 918.563 346.026 918.563 347.367C918.563 348.546 918.417 349.561 918.124 350.414C917.766 351.456 917.255 352.299 916.591 352.944C916.09 353.432 915.412 353.813 914.56 354.086C913.922 354.288 913.069 354.389 912.001 354.389H906.562V340.072ZM909.452 342.494V351.977H911.61C912.418 351.977 913 351.931 913.358 351.84C913.827 351.723 914.215 351.524 914.521 351.244C914.833 350.964 915.087 350.505 915.282 349.867C915.478 349.223 915.575 348.347 915.575 347.24C915.575 346.134 915.478 345.284 915.282 344.692C915.087 344.099 914.813 343.637 914.462 343.305C914.11 342.973 913.664 342.748 913.124 342.631C912.72 342.54 911.929 342.494 910.751 342.494H909.452ZM921.024 354.389V340.072H931.64V342.494H923.915V345.668H931.103V348.08H923.915V351.977H931.913V354.389H921.024ZM939.921 340.072H945.204C946.396 340.072 947.304 340.164 947.929 340.346C948.769 340.593 949.488 341.033 950.087 341.664C950.686 342.296 951.142 343.071 951.454 343.988C951.767 344.9 951.923 346.026 951.923 347.367C951.923 348.546 951.776 349.561 951.483 350.414C951.125 351.456 950.614 352.299 949.95 352.944C949.449 353.432 948.772 353.813 947.919 354.086C947.281 354.288 946.428 354.389 945.36 354.389H939.921V340.072ZM942.812 342.494V351.977H944.97C945.777 351.977 946.36 351.931 946.718 351.84C947.187 351.723 947.574 351.524 947.88 351.244C948.192 350.964 948.446 350.505 948.642 349.867C948.837 349.223 948.935 348.347 948.935 347.24C948.935 346.134 948.837 345.284 948.642 344.692C948.446 344.099 948.173 343.637 947.821 343.305C947.47 342.973 947.024 342.748 946.483 342.631C946.08 342.54 945.289 342.494 944.11 342.494H942.812ZM953.798 347.319C953.798 345.86 954.016 344.636 954.452 343.647C954.778 342.918 955.22 342.263 955.78 341.684C956.347 341.104 956.965 340.675 957.636 340.395C958.528 340.017 959.556 339.828 960.722 339.828C962.831 339.828 964.517 340.483 965.78 341.791C967.05 343.1 967.685 344.919 967.685 347.25C967.685 349.561 967.056 351.371 965.8 352.68C964.543 353.982 962.864 354.633 960.761 354.633C958.632 354.633 956.939 353.985 955.683 352.69C954.426 351.388 953.798 349.597 953.798 347.319ZM956.776 347.221C956.776 348.842 957.151 350.072 957.899 350.912C958.648 351.746 959.599 352.162 960.751 352.162C961.903 352.162 962.847 351.749 963.583 350.922C964.325 350.089 964.696 348.842 964.696 347.182C964.696 345.541 964.335 344.317 963.612 343.51C962.896 342.703 961.942 342.299 960.751 342.299C959.56 342.299 958.599 342.709 957.87 343.53C957.141 344.343 956.776 345.574 956.776 347.221ZM969.979 354.389V340.072H972.792L978.651 349.633V340.072H981.337V354.389H978.437L972.665 345.053V354.389H969.979ZM983.817 347.319C983.817 345.86 984.035 344.636 984.472 343.647C984.797 342.918 985.24 342.263 985.8 341.684C986.366 341.104 986.985 340.675 987.655 340.395C988.547 340.017 989.576 339.828 990.741 339.828C992.851 339.828 994.537 340.483 995.8 341.791C997.069 343.1 997.704 344.919 997.704 347.25C997.704 349.561 997.076 351.371 995.819 352.68C994.563 353.982 992.883 354.633 990.78 354.633C988.651 354.633 986.959 353.985 985.702 352.69C984.446 351.388 983.817 349.597 983.817 347.319ZM986.796 347.221C986.796 348.842 987.17 350.072 987.919 350.912C988.668 351.746 989.618 352.162 990.771 352.162C991.923 352.162 992.867 351.749 993.603 350.922C994.345 350.089 994.716 348.842 994.716 347.182C994.716 345.541 994.354 344.317 993.632 343.51C992.916 342.703 991.962 342.299 990.771 342.299C989.579 342.299 988.619 342.709 987.89 343.53C987.16 344.343 986.796 345.574 986.796 347.221Z" fill="url(#paint5_linear_177_147)" fill-opacity="0.6"/>
<line x1="582.5" y1="205" x2="582.5" y2="433" stroke="white"/>
<line x1="698.5" y1="205" x2="698.5" y2="433" stroke="white"/>
<line x1="1113.75" y1="204.991" x2="1113.75" y2="394" stroke="white"/>
<line x1="1034" y1="453.5" x2="792" y2="453.5" stroke="white"/>
<line x1="1021" y1="185.5" x2="793" y2="185.5" stroke="white"/>
<line x1="183.999" y1="260.999" x2="183.999" y2="433.003" stroke="white"/>
<line x1="496.996" y1="557.5" x2="268.996" y2="557.5" stroke="white"/>
<line x1="497" y1="453.5" x2="269" y2="453.5" stroke="white"/>
<line x1="502" y1="185.5" x2="274" y2="185.5" stroke="white"/>
<path d="M180.639 498.062H178.355V484.91C178.355 483.871 178.419 482.599 178.547 481.095H178.492C178.273 481.979 178.077 482.613 177.904 482.996L171.205 498.062H170.084L163.398 483.105C163.207 482.668 163.011 481.998 162.811 481.095H162.756C162.829 481.879 162.865 483.16 162.865 484.937V498.062H160.65V478.457H163.686L169.701 492.128C170.166 493.177 170.467 493.96 170.604 494.48H170.686C171.077 493.404 171.392 492.602 171.629 492.074L177.768 478.457H180.639V498.062ZM193.709 498.39C190.929 498.39 188.701 497.474 187.023 495.642C185.355 493.81 184.521 491.427 184.521 488.492C184.521 485.338 185.374 482.822 187.078 480.945C188.783 479.067 191.102 478.128 194.037 478.128C196.744 478.128 198.923 479.04 200.572 480.863C202.231 482.686 203.061 485.069 203.061 488.013C203.061 491.212 202.213 493.742 200.518 495.601C198.822 497.46 196.553 498.39 193.709 498.39ZM193.873 480.207C191.813 480.207 190.141 480.949 188.855 482.435C187.57 483.921 186.928 485.871 186.928 488.287C186.928 490.702 187.552 492.648 188.801 494.125C190.059 495.592 191.695 496.326 193.709 496.326C195.86 496.326 197.555 495.624 198.795 494.22C200.035 492.817 200.654 490.852 200.654 488.328C200.654 485.739 200.053 483.738 198.85 482.326C197.646 480.913 195.988 480.207 193.873 480.207ZM222.721 498.062H219.904L209.814 482.435C209.559 482.043 209.35 481.633 209.186 481.205H209.104C209.176 481.624 209.213 482.522 209.213 483.898V498.062H206.916V478.457H209.896L219.713 493.837C220.123 494.475 220.387 494.913 220.506 495.15H220.561C220.469 494.585 220.424 493.623 220.424 492.265V478.457H222.721V498.062ZM230.158 498.062H227.861V478.457H230.158V498.062ZM246.92 480.535H241.26V498.062H238.963V480.535H233.316V478.457H246.92V480.535ZM256.6 498.39C253.82 498.39 251.591 497.474 249.914 495.642C248.246 493.81 247.412 491.427 247.412 488.492C247.412 485.338 248.264 482.822 249.969 480.945C251.673 479.067 253.993 478.128 256.928 478.128C259.635 478.128 261.813 479.04 263.463 480.863C265.122 482.686 265.951 485.069 265.951 488.013C265.951 491.212 265.104 493.742 263.408 495.601C261.713 497.46 259.443 498.39 256.6 498.39ZM256.764 480.207C254.704 480.207 253.031 480.949 251.746 482.435C250.461 483.921 249.818 485.871 249.818 488.287C249.818 490.702 250.443 492.648 251.691 494.125C252.949 495.592 254.585 496.326 256.6 496.326C258.751 496.326 260.446 495.624 261.686 494.22C262.925 492.817 263.545 490.852 263.545 488.328C263.545 485.739 262.943 483.738 261.74 482.326C260.537 480.913 258.878 480.207 256.764 480.207ZM283.861 498.062H281.127L277.846 492.566C277.545 492.056 277.253 491.623 276.971 491.267C276.688 490.903 276.396 490.606 276.096 490.378C275.804 490.151 275.485 489.987 275.139 489.886C274.801 489.777 274.419 489.722 273.99 489.722H272.104V498.062H269.807V478.457H275.658C276.515 478.457 277.303 478.566 278.023 478.785C278.753 478.994 279.382 479.318 279.91 479.755C280.448 480.193 280.867 480.74 281.168 481.396C281.469 482.043 281.619 482.804 281.619 483.679C281.619 484.363 281.514 484.992 281.305 485.566C281.104 486.131 280.812 486.637 280.43 487.084C280.056 487.53 279.6 487.913 279.062 488.232C278.534 488.542 277.937 488.783 277.271 488.957V489.011C277.6 489.157 277.882 489.326 278.119 489.517C278.365 489.699 278.598 489.918 278.816 490.173C279.035 490.429 279.249 490.72 279.459 491.048C279.678 491.367 279.919 491.741 280.184 492.169L283.861 498.062ZM272.104 480.535V487.644H275.221C275.795 487.644 276.324 487.557 276.807 487.384C277.299 487.211 277.723 486.965 278.078 486.646C278.434 486.318 278.712 485.921 278.912 485.457C279.113 484.983 279.213 484.454 279.213 483.871C279.213 482.822 278.871 482.007 278.188 481.423C277.513 480.831 276.533 480.535 275.248 480.535H272.104ZM301.744 498.062H299.201L297.123 492.566H288.811L286.855 498.062H284.299L291.818 478.457H294.197L301.744 498.062ZM296.371 490.501L293.295 482.148C293.195 481.875 293.094 481.437 292.994 480.835H292.939C292.848 481.391 292.743 481.829 292.625 482.148L289.576 490.501H296.371ZM324.631 498.062H322.348V484.91C322.348 483.871 322.411 482.599 322.539 481.095H322.484C322.266 481.979 322.07 482.613 321.896 482.996L315.197 498.062H314.076L307.391 483.105C307.199 482.668 307.003 481.998 306.803 481.095H306.748C306.821 481.879 306.857 483.16 306.857 484.937V498.062H304.643V478.457H307.678L313.693 492.128C314.158 493.177 314.459 493.96 314.596 494.48H314.678C315.07 493.404 315.384 492.602 315.621 492.074L321.76 478.457H324.631V498.062ZM340.189 498.062H329.799V478.457H339.752V480.535H332.096V487.056H339.178V489.121H332.096V495.984H340.189V498.062ZM359.768 498.062H356.951L346.861 482.435C346.606 482.043 346.396 481.633 346.232 481.205H346.15C346.223 481.624 346.26 482.522 346.26 483.898V498.062H343.963V478.457H346.943L356.76 493.837C357.17 494.475 357.434 494.913 357.553 495.15H357.607C357.516 494.585 357.471 493.623 357.471 492.265V478.457H359.768V498.062ZM376.502 480.535H370.842V498.062H368.545V480.535H362.898V478.457H376.502V480.535ZM386.182 498.39C383.402 498.39 381.173 497.474 379.496 495.642C377.828 493.81 376.994 491.427 376.994 488.492C376.994 485.338 377.846 482.822 379.551 480.945C381.255 479.067 383.575 478.128 386.51 478.128C389.217 478.128 391.395 479.04 393.045 480.863C394.704 482.686 395.533 485.069 395.533 488.013C395.533 491.212 394.686 493.742 392.99 495.601C391.295 497.46 389.025 498.39 386.182 498.39ZM386.346 480.207C384.286 480.207 382.613 480.949 381.328 482.435C380.043 483.921 379.4 485.871 379.4 488.287C379.4 490.702 380.025 492.648 381.273 494.125C382.531 495.592 384.167 496.326 386.182 496.326C388.333 496.326 390.028 495.624 391.268 494.22C392.507 492.817 393.127 490.852 393.127 488.328C393.127 485.739 392.525 483.738 391.322 482.326C390.119 480.913 388.46 480.207 386.346 480.207ZM406.744 498.062V478.457H413.689C420.653 478.457 424.135 481.642 424.135 488.013C424.135 491.067 423.182 493.505 421.277 495.328C419.382 497.151 416.852 498.062 413.689 498.062H406.744ZM411.16 482.052V494.48H413.348C415.262 494.48 416.761 493.906 417.846 492.757C418.939 491.609 419.486 490.046 419.486 488.068C419.486 486.199 418.944 484.732 417.859 483.666C416.784 482.59 415.271 482.052 413.32 482.052H411.16ZM444.191 498.062H439.379L437.984 493.701H431.012L429.631 498.062H424.846L431.982 478.457H437.219L444.191 498.062ZM436.973 490.31L434.867 483.72C434.712 483.228 434.603 482.64 434.539 481.957H434.43C434.384 482.531 434.27 483.1 434.088 483.666L431.955 490.31H436.973ZM445.736 497.31V492.935C446.529 493.6 447.391 494.102 448.32 494.439C449.25 494.767 450.189 494.931 451.137 494.931C451.693 494.931 452.176 494.881 452.586 494.781C453.005 494.681 453.352 494.544 453.625 494.371C453.908 494.188 454.117 493.979 454.254 493.742C454.391 493.496 454.459 493.231 454.459 492.949C454.459 492.566 454.35 492.224 454.131 491.923C453.912 491.623 453.611 491.345 453.229 491.089C452.855 490.834 452.408 490.588 451.889 490.351C451.369 490.114 450.809 489.873 450.207 489.626C448.676 488.988 447.532 488.209 446.775 487.289C446.028 486.368 445.654 485.256 445.654 483.953C445.654 482.932 445.859 482.057 446.27 481.328C446.68 480.589 447.236 479.983 447.938 479.509C448.648 479.035 449.469 478.689 450.398 478.47C451.328 478.242 452.312 478.128 453.352 478.128C454.372 478.128 455.275 478.192 456.059 478.32C456.852 478.438 457.581 478.625 458.246 478.88V482.968C457.918 482.74 457.558 482.54 457.166 482.367C456.783 482.194 456.387 482.052 455.977 481.943C455.566 481.824 455.156 481.738 454.746 481.683C454.345 481.628 453.962 481.601 453.598 481.601C453.096 481.601 452.641 481.651 452.23 481.751C451.82 481.843 451.474 481.975 451.191 482.148C450.909 482.321 450.69 482.531 450.535 482.777C450.38 483.014 450.303 483.283 450.303 483.584C450.303 483.912 450.389 484.208 450.562 484.472C450.736 484.727 450.982 484.974 451.301 485.21C451.62 485.438 452.007 485.666 452.463 485.894C452.919 486.113 453.434 486.341 454.008 486.578C454.792 486.906 455.493 487.257 456.113 487.63C456.742 487.995 457.28 488.41 457.727 488.875C458.173 489.339 458.515 489.873 458.752 490.474C458.989 491.067 459.107 491.759 459.107 492.552C459.107 493.646 458.898 494.567 458.479 495.314C458.068 496.052 457.508 496.654 456.797 497.119C456.086 497.574 455.257 497.903 454.309 498.103C453.37 498.304 452.376 498.404 451.328 498.404C450.253 498.404 449.227 498.313 448.252 498.13C447.286 497.948 446.447 497.675 445.736 497.31ZM484.127 497.365C482.696 498.057 480.827 498.404 478.521 498.404C475.514 498.404 473.148 497.52 471.426 495.751C469.703 493.983 468.842 491.627 468.842 488.683C468.842 485.548 469.808 483.005 471.74 481.054C473.682 479.104 476.197 478.128 479.287 478.128C481.201 478.128 482.814 478.37 484.127 478.853V483.105C482.814 482.321 481.32 481.929 479.643 481.929C477.801 481.929 476.316 482.508 475.186 483.666C474.055 484.823 473.49 486.391 473.49 488.369C473.49 490.265 474.023 491.778 475.09 492.908C476.156 494.029 477.592 494.589 479.396 494.589C481.119 494.589 482.696 494.17 484.127 493.332V497.365ZM504.785 498.062H499.973L498.578 493.701H491.605L490.225 498.062H485.439L492.576 478.457H497.812L504.785 498.062ZM497.566 490.31L495.461 483.72C495.306 483.228 495.197 482.64 495.133 481.957H495.023C494.978 482.531 494.864 483.1 494.682 483.666L492.549 490.31H497.566ZM523.68 498.062H518.607L515.559 493.017C515.331 492.634 515.112 492.293 514.902 491.992C514.693 491.691 514.479 491.436 514.26 491.226C514.05 491.007 513.827 490.843 513.59 490.734C513.362 490.615 513.111 490.556 512.838 490.556H511.648V498.062H507.232V478.457H514.232C518.99 478.457 521.369 480.234 521.369 483.789C521.369 484.472 521.264 485.106 521.055 485.689C520.845 486.263 520.549 486.783 520.166 487.248C519.783 487.712 519.318 488.113 518.771 488.451C518.234 488.788 517.632 489.052 516.967 489.244V489.298C517.258 489.39 517.541 489.54 517.814 489.75C518.088 489.95 518.352 490.187 518.607 490.46C518.863 490.734 519.104 491.03 519.332 491.349C519.569 491.659 519.783 491.964 519.975 492.265L523.68 498.062ZM511.648 481.765V487.22H513.562C514.51 487.22 515.271 486.947 515.846 486.4C516.429 485.844 516.721 485.156 516.721 484.335C516.721 482.622 515.695 481.765 513.645 481.765H511.648ZM538.719 482.052H533.127V498.062H528.697V482.052H523.133V478.457H538.719V482.052ZM553.115 498.062H541.357V478.457H552.664V482.052H545.773V486.414H552.186V489.996H545.773V494.48H553.115V498.062ZM560.676 498.062H556.26V478.457H560.676V498.062ZM581.594 498.062H576.521L573.473 493.017C573.245 492.634 573.026 492.293 572.816 491.992C572.607 491.691 572.393 491.436 572.174 491.226C571.964 491.007 571.741 490.843 571.504 490.734C571.276 490.615 571.025 490.556 570.752 490.556H569.562V498.062H565.146V478.457H572.146C576.904 478.457 579.283 480.234 579.283 483.789C579.283 484.472 579.178 485.106 578.969 485.689C578.759 486.263 578.463 486.783 578.08 487.248C577.697 487.712 577.232 488.113 576.686 488.451C576.148 488.788 575.546 489.052 574.881 489.244V489.298C575.173 489.39 575.455 489.54 575.729 489.75C576.002 489.95 576.266 490.187 576.521 490.46C576.777 490.734 577.018 491.03 577.246 491.349C577.483 491.659 577.697 491.964 577.889 492.265L581.594 498.062ZM569.562 481.765V487.22H571.477C572.424 487.22 573.186 486.947 573.76 486.4C574.343 485.844 574.635 485.156 574.635 484.335C574.635 482.622 573.609 481.765 571.559 481.765H569.562ZM600.68 498.062H595.867L594.473 493.701H587.5L586.119 498.062H581.334L588.471 478.457H593.707L600.68 498.062ZM593.461 490.31L591.355 483.72C591.201 483.228 591.091 482.64 591.027 481.957H590.918C590.872 482.531 590.758 483.1 590.576 483.666L588.443 490.31H593.461ZM602.225 497.31V492.935C603.018 493.6 603.879 494.102 604.809 494.439C605.738 494.767 606.677 494.931 607.625 494.931C608.181 494.931 608.664 494.881 609.074 494.781C609.493 494.681 609.84 494.544 610.113 494.371C610.396 494.188 610.605 493.979 610.742 493.742C610.879 493.496 610.947 493.231 610.947 492.949C610.947 492.566 610.838 492.224 610.619 491.923C610.4 491.623 610.1 491.345 609.717 491.089C609.343 490.834 608.896 490.588 608.377 490.351C607.857 490.114 607.297 489.873 606.695 489.626C605.164 488.988 604.02 488.209 603.264 487.289C602.516 486.368 602.143 485.256 602.143 483.953C602.143 482.932 602.348 482.057 602.758 481.328C603.168 480.589 603.724 479.983 604.426 479.509C605.137 479.035 605.957 478.689 606.887 478.47C607.816 478.242 608.801 478.128 609.84 478.128C610.861 478.128 611.763 478.192 612.547 478.32C613.34 478.438 614.069 478.625 614.734 478.88V482.968C614.406 482.74 614.046 482.54 613.654 482.367C613.271 482.194 612.875 482.052 612.465 481.943C612.055 481.824 611.645 481.738 611.234 481.683C610.833 481.628 610.451 481.601 610.086 481.601C609.585 481.601 609.129 481.651 608.719 481.751C608.309 481.843 607.962 481.975 607.68 482.148C607.397 482.321 607.178 482.531 607.023 482.777C606.868 483.014 606.791 483.283 606.791 483.584C606.791 483.912 606.878 484.208 607.051 484.472C607.224 484.727 607.47 484.974 607.789 485.21C608.108 485.438 608.495 485.666 608.951 485.894C609.407 486.113 609.922 486.341 610.496 486.578C611.28 486.906 611.982 487.257 612.602 487.63C613.23 487.995 613.768 488.41 614.215 488.875C614.661 489.339 615.003 489.873 615.24 490.474C615.477 491.067 615.596 491.759 615.596 492.552C615.596 493.646 615.386 494.567 614.967 495.314C614.557 496.052 613.996 496.654 613.285 497.119C612.574 497.574 611.745 497.903 610.797 498.103C609.858 498.304 608.865 498.404 607.816 498.404C606.741 498.404 605.715 498.313 604.74 498.13C603.774 497.948 602.936 497.675 602.225 497.31ZM622.486 494.617L620.477 501.535H617.113L618.508 494.617H622.486ZM293.227 528.308V535.062H288.811V515.457H295.729C300.669 515.457 303.139 517.539 303.139 521.705C303.139 523.673 302.428 525.268 301.006 526.49C299.593 527.702 297.702 528.308 295.332 528.308H293.227ZM293.227 518.847V524.959H294.963C297.314 524.959 298.49 523.929 298.49 521.869C298.49 519.854 297.314 518.847 294.963 518.847H293.227ZM317.768 535.062H306.01V515.457H317.316V519.052H310.426V523.414H316.838V526.996H310.426V531.48H317.768V535.062ZM337.359 535.062H332.287L329.238 530.017C329.01 529.634 328.792 529.293 328.582 528.992C328.372 528.691 328.158 528.436 327.939 528.226C327.73 528.007 327.507 527.843 327.27 527.734C327.042 527.615 326.791 527.556 326.518 527.556H325.328V535.062H320.912V515.457H327.912C332.67 515.457 335.049 517.234 335.049 520.789C335.049 521.472 334.944 522.106 334.734 522.689C334.525 523.263 334.229 523.783 333.846 524.248C333.463 524.712 332.998 525.113 332.451 525.451C331.913 525.788 331.312 526.052 330.646 526.244V526.298C330.938 526.39 331.221 526.54 331.494 526.75C331.768 526.95 332.032 527.187 332.287 527.46C332.542 527.734 332.784 528.03 333.012 528.349C333.249 528.659 333.463 528.964 333.654 529.265L337.359 535.062ZM325.328 518.765V524.22H327.242C328.19 524.22 328.951 523.947 329.525 523.4C330.109 522.844 330.4 522.156 330.4 521.335C330.4 519.622 329.375 518.765 327.324 518.765H325.328ZM350.539 519.052H343.621V523.865H349.979V527.447H343.621V535.062H339.205V515.457H350.539V519.052ZM358.195 535.062H353.779V515.457H358.195V535.062ZM361.764 534.31V529.935C362.557 530.6 363.418 531.102 364.348 531.439C365.277 531.767 366.216 531.931 367.164 531.931C367.72 531.931 368.203 531.881 368.613 531.781C369.033 531.681 369.379 531.544 369.652 531.371C369.935 531.188 370.145 530.979 370.281 530.742C370.418 530.496 370.486 530.231 370.486 529.949C370.486 529.566 370.377 529.224 370.158 528.923C369.939 528.623 369.639 528.345 369.256 528.089C368.882 527.834 368.436 527.588 367.916 527.351C367.396 527.114 366.836 526.873 366.234 526.626C364.703 525.988 363.559 525.209 362.803 524.289C362.055 523.368 361.682 522.256 361.682 520.953C361.682 519.932 361.887 519.057 362.297 518.328C362.707 517.589 363.263 516.983 363.965 516.509C364.676 516.035 365.496 515.689 366.426 515.47C367.355 515.242 368.34 515.128 369.379 515.128C370.4 515.128 371.302 515.192 372.086 515.32C372.879 515.438 373.608 515.625 374.273 515.88V519.968C373.945 519.74 373.585 519.54 373.193 519.367C372.811 519.194 372.414 519.052 372.004 518.943C371.594 518.824 371.184 518.738 370.773 518.683C370.372 518.628 369.99 518.601 369.625 518.601C369.124 518.601 368.668 518.651 368.258 518.751C367.848 518.843 367.501 518.975 367.219 519.148C366.936 519.321 366.717 519.531 366.562 519.777C366.408 520.014 366.33 520.283 366.33 520.584C366.33 520.912 366.417 521.208 366.59 521.472C366.763 521.727 367.009 521.974 367.328 522.21C367.647 522.438 368.035 522.666 368.49 522.894C368.946 523.113 369.461 523.341 370.035 523.578C370.819 523.906 371.521 524.257 372.141 524.63C372.77 524.995 373.307 525.41 373.754 525.875C374.201 526.339 374.542 526.873 374.779 527.474C375.016 528.067 375.135 528.759 375.135 529.552C375.135 530.646 374.925 531.567 374.506 532.314C374.096 533.052 373.535 533.654 372.824 534.119C372.113 534.574 371.284 534.903 370.336 535.103C369.397 535.304 368.404 535.404 367.355 535.404C366.28 535.404 365.255 535.313 364.279 535.13C363.313 534.948 362.475 534.675 361.764 534.31ZM397.857 535.062H386.1V515.457H397.406V519.052H390.516V523.414H396.928V526.996H390.516V531.48H397.857V535.062ZM425.188 535.062H420.115L417.066 530.017C416.839 529.634 416.62 529.293 416.41 528.992C416.201 528.691 415.986 528.436 415.768 528.226C415.558 528.007 415.335 527.843 415.098 527.734C414.87 527.615 414.619 527.556 414.346 527.556H413.156V535.062H408.74V515.457H415.74C420.498 515.457 422.877 517.234 422.877 520.789C422.877 521.472 422.772 522.106 422.562 522.689C422.353 523.263 422.057 523.783 421.674 524.248C421.291 524.712 420.826 525.113 420.279 525.451C419.742 525.788 419.14 526.052 418.475 526.244V526.298C418.766 526.39 419.049 526.54 419.322 526.75C419.596 526.95 419.86 527.187 420.115 527.46C420.37 527.734 420.612 528.03 420.84 528.349C421.077 528.659 421.291 528.964 421.482 529.265L425.188 535.062ZM413.156 518.765V524.22H415.07C416.018 524.22 416.779 523.947 417.354 523.4C417.937 522.844 418.229 522.156 418.229 521.335C418.229 519.622 417.203 518.765 415.152 518.765H413.156ZM431.449 535.062H427.033V515.457H431.449V535.062ZM435.018 534.31V529.935C435.811 530.6 436.672 531.102 437.602 531.439C438.531 531.767 439.47 531.931 440.418 531.931C440.974 531.931 441.457 531.881 441.867 531.781C442.286 531.681 442.633 531.544 442.906 531.371C443.189 531.188 443.398 530.979 443.535 530.742C443.672 530.496 443.74 530.231 443.74 529.949C443.74 529.566 443.631 529.224 443.412 528.923C443.193 528.623 442.893 528.345 442.51 528.089C442.136 527.834 441.689 527.588 441.17 527.351C440.65 527.114 440.09 526.873 439.488 526.626C437.957 525.988 436.813 525.209 436.057 524.289C435.309 523.368 434.936 522.256 434.936 520.953C434.936 519.932 435.141 519.057 435.551 518.328C435.961 517.589 436.517 516.983 437.219 516.509C437.93 516.035 438.75 515.689 439.68 515.47C440.609 515.242 441.594 515.128 442.633 515.128C443.654 515.128 444.556 515.192 445.34 515.32C446.133 515.438 446.862 515.625 447.527 515.88V519.968C447.199 519.74 446.839 519.54 446.447 519.367C446.064 519.194 445.668 519.052 445.258 518.943C444.848 518.824 444.438 518.738 444.027 518.683C443.626 518.628 443.243 518.601 442.879 518.601C442.378 518.601 441.922 518.651 441.512 518.751C441.102 518.843 440.755 518.975 440.473 519.148C440.19 519.321 439.971 519.531 439.816 519.777C439.661 520.014 439.584 520.283 439.584 520.584C439.584 520.912 439.671 521.208 439.844 521.472C440.017 521.727 440.263 521.974 440.582 522.21C440.901 522.438 441.288 522.666 441.744 522.894C442.2 523.113 442.715 523.341 443.289 523.578C444.073 523.906 444.775 524.257 445.395 524.63C446.023 524.995 446.561 525.41 447.008 525.875C447.454 526.339 447.796 526.873 448.033 527.474C448.27 528.067 448.389 528.759 448.389 529.552C448.389 530.646 448.179 531.567 447.76 532.314C447.35 533.052 446.789 533.654 446.078 534.119C445.367 534.574 444.538 534.903 443.59 535.103C442.651 535.304 441.658 535.404 440.609 535.404C439.534 535.404 438.508 535.313 437.533 535.13C436.567 534.948 435.729 534.675 435.018 534.31ZM465.67 534.365C464.239 535.057 462.37 535.404 460.064 535.404C457.057 535.404 454.691 534.52 452.969 532.751C451.246 530.983 450.385 528.627 450.385 525.683C450.385 522.548 451.351 520.005 453.283 518.054C455.225 516.104 457.74 515.128 460.83 515.128C462.744 515.128 464.357 515.37 465.67 515.853V520.105C464.357 519.321 462.863 518.929 461.186 518.929C459.344 518.929 457.859 519.508 456.729 520.666C455.598 521.823 455.033 523.391 455.033 525.369C455.033 527.265 455.566 528.778 456.633 529.908C457.699 531.029 459.135 531.589 460.939 531.589C462.662 531.589 464.239 531.17 465.67 530.332V534.365ZM477.018 535.404C474.21 535.404 471.923 534.492 470.154 532.669C468.386 530.837 467.502 528.454 467.502 525.519C467.502 522.42 468.4 519.914 470.195 518C471.991 516.085 474.37 515.128 477.332 515.128C480.13 515.128 482.391 516.044 484.113 517.876C485.845 519.709 486.711 522.124 486.711 525.123C486.711 528.203 485.813 530.687 484.018 532.574C482.231 534.46 479.898 535.404 477.018 535.404ZM477.209 518.929C475.66 518.929 474.429 519.513 473.518 520.679C472.606 521.837 472.15 523.373 472.15 525.287C472.15 527.228 472.606 528.764 473.518 529.894C474.429 531.024 475.623 531.589 477.1 531.589C478.622 531.589 479.829 531.043 480.723 529.949C481.616 528.846 482.062 527.319 482.062 525.369C482.062 523.336 481.63 521.755 480.764 520.625C479.898 519.494 478.713 518.929 477.209 518.929ZM489.076 534.31V529.935C489.869 530.6 490.73 531.102 491.66 531.439C492.59 531.767 493.529 531.931 494.477 531.931C495.033 531.931 495.516 531.881 495.926 531.781C496.345 531.681 496.691 531.544 496.965 531.371C497.247 531.188 497.457 530.979 497.594 530.742C497.73 530.496 497.799 530.231 497.799 529.949C497.799 529.566 497.689 529.224 497.471 528.923C497.252 528.623 496.951 528.345 496.568 528.089C496.195 527.834 495.748 527.588 495.229 527.351C494.709 527.114 494.148 526.873 493.547 526.626C492.016 525.988 490.872 525.209 490.115 524.289C489.368 523.368 488.994 522.256 488.994 520.953C488.994 519.932 489.199 519.057 489.609 518.328C490.02 517.589 490.576 516.983 491.277 516.509C491.988 516.035 492.809 515.689 493.738 515.47C494.668 515.242 495.652 515.128 496.691 515.128C497.712 515.128 498.615 515.192 499.398 515.32C500.191 515.438 500.921 515.625 501.586 515.88V519.968C501.258 519.74 500.898 519.54 500.506 519.367C500.123 519.194 499.727 519.052 499.316 518.943C498.906 518.824 498.496 518.738 498.086 518.683C497.685 518.628 497.302 518.601 496.938 518.601C496.436 518.601 495.98 518.651 495.57 518.751C495.16 518.843 494.814 518.975 494.531 519.148C494.249 519.321 494.03 519.531 493.875 519.777C493.72 520.014 493.643 520.283 493.643 520.584C493.643 520.912 493.729 521.208 493.902 521.472C494.076 521.727 494.322 521.974 494.641 522.21C494.96 522.438 495.347 522.666 495.803 522.894C496.258 523.113 496.773 523.341 497.348 523.578C498.132 523.906 498.833 524.257 499.453 524.63C500.082 524.995 500.62 525.41 501.066 525.875C501.513 526.339 501.855 526.873 502.092 527.474C502.329 528.067 502.447 528.759 502.447 529.552C502.447 530.646 502.238 531.567 501.818 532.314C501.408 533.052 500.848 533.654 500.137 534.119C499.426 534.574 498.596 534.903 497.648 535.103C496.71 535.304 495.716 535.404 494.668 535.404C493.592 535.404 492.567 535.313 491.592 535.13C490.626 534.948 489.787 534.675 489.076 534.31Z" fill="url(#paint6_linear_177_147)"/>
<circle cx="660" cy="239" r="3" fill="#7D9AB5"/>
<path d="M1280 582.5C1364.83 582.5 1433.5 644.111 1433.5 720C1433.5 795.889 1364.83 857.5 1280 857.5C1195.17 857.5 1126.5 795.889 1126.5 720C1126.5 644.111 1195.17 582.5 1280 582.5Z" stroke="#CBE4F3"/>
<path d="M1147 389.5C1215.81 389.5 1271.5 439.47 1271.5 501C1271.5 562.53 1215.81 612.5 1147 612.5C1078.19 612.5 1022.5 562.53 1022.5 501C1022.5 439.47 1078.19 389.5 1147 389.5Z" stroke="#CBE4F3"/>
<path d="M165.5 61.5C227.408 61.5 277.5 106.545 277.5 162C277.5 217.455 227.408 262.5 165.5 262.5C103.592 262.5 53.5 217.455 53.5 162C53.5 106.545 103.592 61.5 165.5 61.5Z" stroke="#AACEE2"/>
<path d="M-19 -141.5C64.1694 -141.5 131.5 -80.7867 131.5 -6C131.5 68.7867 64.1694 129.5 -19 129.5C-102.169 129.5 -169.5 68.7867 -169.5 -6C-169.5 -80.7867 -102.169 -141.5 -19 -141.5Z" stroke="#CBE4F3"/>
<path d="M648.727 237.826L640.576 229.679L640.03 229.133C639.906 229.009 639.737 228.94 639.562 228.94C639.386 228.94 639.218 229.009 639.094 229.133L630.397 237.826C630.269 237.953 630.168 238.104 630.1 238.271C630.032 238.437 629.998 238.616 630 238.796C630.009 239.539 630.627 240.131 631.369 240.131H632.266V247.002H646.858V240.131H647.774C648.134 240.131 648.474 239.99 648.729 239.735C648.855 239.61 648.954 239.461 649.022 239.297C649.09 239.133 649.124 238.957 649.124 238.779C649.124 238.421 648.982 238.081 648.727 237.826ZM640.743 245.483H638.381V241.18H640.743V245.483ZM645.339 238.613V245.483H642.093V240.673C642.093 240.207 641.716 239.83 641.249 239.83H637.874C637.408 239.83 637.031 240.207 637.031 240.673V245.483H633.784V238.613H631.759L639.564 230.814L640.051 231.302L647.367 238.613H645.339Z" fill="#7D9AB5"/>
</g>
<defs>
<linearGradient id="paint0_linear_177_147" x1="213.769" y1="230" x2="552.231" y2="446" gradientUnits="userSpaceOnUse">
<stop stop-color="#C2D7E0" stop-opacity="0.8"/>
<stop offset="0.5" stop-color="white" stop-opacity="0.8"/>
</linearGradient>
<linearGradient id="paint1_linear_177_147" x1="906.603" y1="394.147" x2="906.603" y2="417.147" gradientUnits="userSpaceOnUse">
<stop stop-color="white"/>
<stop offset="1" stop-color="#EFEFEF"/>
</linearGradient>
<linearGradient id="paint2_linear_177_147" x1="1206.67" y1="487.56" x2="1079.35" y2="521.001" gradientUnits="userSpaceOnUse">
<stop stop-color="#C2D7E0" stop-opacity="0.8"/>
<stop offset="0.5" stop-color="white" stop-opacity="0.8"/>
</linearGradient>
<linearGradient id="paint3_linear_177_147" x1="906.5" y1="220.641" x2="906.5" y2="243.641" gradientUnits="userSpaceOnUse">
<stop stop-color="white"/>
<stop offset="1" stop-color="#EFEFEF"/>
</linearGradient>
<linearGradient id="paint4_linear_177_147" x1="906.558" y1="281.797" x2="906.558" y2="304.797" gradientUnits="userSpaceOnUse">
<stop stop-color="white"/>
<stop offset="1" stop-color="#EFEFEF"/>
</linearGradient>
<linearGradient id="paint5_linear_177_147" x1="906.415" y1="336.389" x2="906.415" y2="359.389" gradientUnits="userSpaceOnUse">
<stop stop-color="white"/>
<stop offset="1" stop-color="#EFEFEF"/>
</linearGradient>
<linearGradient id="paint6_linear_177_147" x1="578.675" y1="473.981" x2="205.364" y2="604.484" gradientUnits="userSpaceOnUse">
<stop stop-color="#C2D7E0" stop-opacity="0.8"/>
<stop offset="0.5" stop-color="white" stop-opacity="0.8"/>
</linearGradient>
<clipPath id="clip0_177_147">
<rect width="1280" height="720" fill="white"/>
</clipPath>
</defs>
</svg>
