<svg width="320" height="240" viewBox="0 0 320 240" fill="none" xmlns="http://www.w3.org/2000/svg">
<g clip-path="url(#clip0_192_370)">
<rect width="320" height="240" fill="url(#paint0_linear_192_370)"/>
<path d="M230 135.5C314.829 135.5 383.5 197.111 383.5 273C383.5 348.889 314.829 410.5 230 410.5C145.171 410.5 76.5 348.889 76.5 273C76.5 197.111 145.171 135.5 230 135.5Z" stroke="#CBE4F3"/>
<path d="M97 -57.5C165.813 -57.5 221.5 -7.52953 221.5 54C221.5 115.53 165.813 165.5 97 165.5C28.1875 165.5 -27.5 115.53 -27.5 54C-27.5 -7.52953 28.1875 -57.5 97 -57.5Z" stroke="#CBE4F3"/>
<path d="M22 7.5H298C304.351 7.5 309.5 12.6487 309.5 19V42.5H10.5V19C10.5 12.6487 15.6487 7.5 22 7.5Z" fill="#0079C2" stroke="url(#paint1_linear_192_370)"/>
<path d="M45.1782 25.7705C44.436 25.7705 43.8452 25.5337 43.4058 25.0601C42.9663 24.5815 42.7466 23.9443 42.7466 23.1484C42.7466 22.2793 42.9785 21.5957 43.4424 21.0977C43.9111 20.5947 44.541 20.3433 45.332 20.3433C46.0986 20.3433 46.6919 20.5752 47.1118 21.0391C47.5366 21.5029 47.749 22.1548 47.749 22.9946C47.749 23.8345 47.5122 24.5083 47.0386 25.0161C46.5649 25.519 45.9448 25.7705 45.1782 25.7705ZM45.2808 21.3687C44.8804 21.3687 44.563 21.5225 44.3286 21.8301C44.0991 22.1377 43.9844 22.5601 43.9844 23.0972C43.9844 23.6245 44.0967 24.0347 44.3213 24.3276C44.5508 24.6206 44.8633 24.7671 45.2588 24.7671C45.6543 24.7671 45.9644 24.6157 46.189 24.313C46.4136 24.0054 46.5259 23.5806 46.5259 23.0386C46.5259 22.5112 46.4136 22.1011 46.189 21.8081C45.9692 21.5151 45.6665 21.3687 45.2808 21.3687ZM52.29 20.4971L45.5518 31.0732H44.5044L51.2354 20.4971H52.29ZM51.3452 31.1611C50.603 31.1611 50.0122 30.9243 49.5728 30.4507C49.1333 29.9722 48.9136 29.335 48.9136 28.5391C48.9136 27.6699 49.1455 26.9863 49.6094 26.4883C50.0781 25.9854 50.708 25.7339 51.499 25.7339C52.2656 25.7339 52.8589 25.9658 53.2788 26.4297C53.7036 26.8936 53.916 27.5454 53.916 28.3853C53.916 29.2251 53.6792 29.8989 53.2056 30.4067C52.7319 30.9097 52.1118 31.1611 51.3452 31.1611ZM51.4478 26.7593C51.0474 26.7593 50.73 26.9131 50.4956 27.2207C50.2661 27.5283 50.1514 27.9507 50.1514 28.4878C50.1514 29.0151 50.2637 29.4253 50.4883 29.7183C50.7178 30.0112 51.0303 30.1577 51.4258 30.1577C51.8213 30.1577 52.1313 30.0063 52.356 29.7036C52.5806 29.396 52.6929 28.9712 52.6929 28.4292C52.6929 27.9019 52.5806 27.4917 52.356 27.1987C52.1362 26.9058 51.8335 26.7593 51.4478 26.7593ZM61.9067 27.1914V31H60.1709V20.4971H63.3569C64.563 20.4971 65.498 20.7778 66.1621 21.3394C66.8262 21.9009 67.1582 22.6919 67.1582 23.7124C67.1582 24.7329 66.8115 25.5679 66.1182 26.2173C65.4248 26.8667 64.4873 27.1914 63.3057 27.1914H61.9067ZM61.9067 21.9326V25.7705H63.0347C63.7817 25.7705 64.3506 25.5972 64.7412 25.2505C65.1318 24.9038 65.3271 24.4155 65.3271 23.7856C65.3271 22.5503 64.6094 21.9326 63.1738 21.9326H61.9067ZM74.7607 31H68.9453V20.4971H70.6885V29.5278H74.7607V31ZM86.5747 27.7114H81.4624C81.4819 28.4048 81.6943 28.9395 82.0996 29.3154C82.5098 29.6914 83.0713 29.8794 83.7842 29.8794C84.585 29.8794 85.3198 29.6401 85.9888 29.1616V30.5312C85.3052 30.9609 84.4019 31.1758 83.2788 31.1758C82.1753 31.1758 81.3086 30.8364 80.6787 30.1577C80.0537 29.4741 79.7412 28.5146 79.7412 27.2793C79.7412 26.1123 80.0854 25.1626 80.7739 24.4302C81.4673 23.6929 82.3267 23.3242 83.3521 23.3242C84.3774 23.3242 85.1709 23.6538 85.7324 24.313C86.2939 24.9722 86.5747 25.8877 86.5747 27.0596V27.7114ZM84.9341 26.5103C84.9292 25.8999 84.7852 25.4263 84.502 25.0894C84.2188 24.7476 83.8281 24.5767 83.3301 24.5767C82.8418 24.5767 82.4268 24.7549 82.085 25.1113C81.748 25.4678 81.5405 25.9341 81.4624 26.5103H84.9341ZM103.794 31H102.065V24.2031C102.065 23.6465 102.1 22.9653 102.168 22.1597H102.139C102.031 22.6187 101.936 22.9482 101.853 23.1484L98.7183 31H97.5171L94.375 23.207C94.2871 22.9775 94.1943 22.6284 94.0967 22.1597H94.0674C94.1064 22.5796 94.126 23.2656 94.126 24.2178V31H92.5146V20.4971H94.9683L97.7295 27.4917C97.9395 28.0288 98.0762 28.4292 98.1396 28.6929H98.1763C98.3569 28.1411 98.5034 27.731 98.6157 27.4624L101.428 20.4971H103.794V31ZM112.546 27.7114H107.434C107.454 28.4048 107.666 28.9395 108.071 29.3154C108.481 29.6914 109.043 29.8794 109.756 29.8794C110.557 29.8794 111.292 29.6401 111.96 29.1616V30.5312C111.277 30.9609 110.374 31.1758 109.25 31.1758C108.147 31.1758 107.28 30.8364 106.65 30.1577C106.025 29.4741 105.713 28.5146 105.713 27.2793C105.713 26.1123 106.057 25.1626 106.746 24.4302C107.439 23.6929 108.298 23.3242 109.324 23.3242C110.349 23.3242 111.143 23.6538 111.704 24.313C112.266 24.9722 112.546 25.8877 112.546 27.0596V27.7114ZM110.906 26.5103C110.901 25.8999 110.757 25.4263 110.474 25.0894C110.19 24.7476 109.8 24.5767 109.302 24.5767C108.813 24.5767 108.398 24.7549 108.057 25.1113C107.72 25.4678 107.512 25.9341 107.434 26.5103H110.906ZM120.984 31H119.285V29.7256H119.255C118.708 30.6924 117.866 31.1758 116.729 31.1758C115.806 31.1758 115.066 30.8413 114.509 30.1724C113.958 29.4985 113.682 28.583 113.682 27.4258C113.682 26.1855 113.987 25.1919 114.597 24.4448C115.212 23.6978 116.03 23.3242 117.051 23.3242C118.062 23.3242 118.796 23.7295 119.255 24.54H119.285V19.8965H120.984V31ZM119.307 27.5723V26.5908C119.307 26.0586 119.133 25.6069 118.787 25.2358C118.44 24.8647 117.998 24.6792 117.461 24.6792C116.826 24.6792 116.326 24.916 115.959 25.3896C115.598 25.8633 115.417 26.52 115.417 27.3599C115.417 28.1216 115.591 28.7246 115.938 29.1689C116.289 29.6084 116.76 29.8281 117.351 29.8281C117.932 29.8281 118.403 29.6157 118.765 29.1909C119.126 28.7612 119.307 28.2217 119.307 27.5723ZM124.06 21.9253C123.782 21.9253 123.542 21.835 123.342 21.6543C123.147 21.4736 123.049 21.2441 123.049 20.9658C123.049 20.6875 123.147 20.4556 123.342 20.27C123.542 20.0845 123.782 19.9917 124.06 19.9917C124.348 19.9917 124.592 20.0845 124.792 20.27C124.993 20.4556 125.093 20.6875 125.093 20.9658C125.093 21.2295 124.993 21.4565 124.792 21.647C124.592 21.8325 124.348 21.9253 124.06 21.9253ZM124.902 31H123.203V23.5H124.902V31ZM133.948 31H132.249V29.7256H132.219C131.672 30.6924 130.83 31.1758 129.692 31.1758C128.77 31.1758 128.03 30.8413 127.473 30.1724C126.921 29.4985 126.646 28.583 126.646 27.4258C126.646 26.1855 126.951 25.1919 127.561 24.4448C128.176 23.6978 128.994 23.3242 130.015 23.3242C131.025 23.3242 131.76 23.7295 132.219 24.54H132.249V19.8965H133.948V31ZM132.271 27.5723V26.5908C132.271 26.0586 132.097 25.6069 131.75 25.2358C131.404 24.8647 130.962 24.6792 130.425 24.6792C129.79 24.6792 129.29 24.916 128.923 25.3896C128.562 25.8633 128.381 26.52 128.381 27.3599C128.381 28.1216 128.555 28.7246 128.901 29.1689C129.253 29.6084 129.724 29.8281 130.315 29.8281C130.896 29.8281 131.367 29.6157 131.729 29.1909C132.09 28.7612 132.271 28.2217 132.271 27.5723ZM141.924 31H140.276V29.8281H140.247C139.729 30.7266 138.97 31.1758 137.969 31.1758C137.231 31.1758 136.653 30.9756 136.233 30.5752C135.818 30.1748 135.61 29.645 135.61 28.9858C135.61 27.5698 136.426 26.7446 138.057 26.5103L140.283 26.1953C140.283 25.126 139.775 24.5913 138.76 24.5913C137.866 24.5913 137.061 24.8989 136.343 25.5142V24.0273C137.134 23.5586 138.047 23.3242 139.082 23.3242C140.977 23.3242 141.924 24.2568 141.924 26.1221V31ZM140.283 27.3159L138.708 27.5356C138.22 27.5991 137.852 27.7188 137.603 27.8945C137.358 28.0654 137.236 28.3682 137.236 28.8027C137.236 29.1201 137.349 29.3813 137.573 29.5864C137.803 29.7866 138.108 29.8867 138.489 29.8867C139.006 29.8867 139.434 29.7061 139.771 29.3447C140.112 28.9785 140.283 28.5195 140.283 27.9678V27.3159ZM143.535 30.7656V29.1909C144.17 29.6743 144.871 29.916 145.637 29.916C146.663 29.916 147.175 29.6133 147.175 29.0078C147.175 28.8369 147.131 28.6929 147.043 28.5757C146.956 28.4536 146.836 28.3462 146.685 28.2534C146.538 28.1606 146.362 28.0776 146.157 28.0044C145.957 27.9312 145.732 27.8481 145.483 27.7554C145.176 27.6333 144.897 27.5039 144.648 27.3672C144.404 27.2305 144.199 27.0767 144.033 26.9058C143.872 26.73 143.75 26.5322 143.667 26.3125C143.584 26.0928 143.542 25.8364 143.542 25.5435C143.542 25.1821 143.628 24.8647 143.799 24.5913C143.97 24.313 144.199 24.0811 144.487 23.8955C144.775 23.7051 145.103 23.5635 145.469 23.4707C145.835 23.373 146.213 23.3242 146.604 23.3242C147.297 23.3242 147.917 23.4292 148.464 23.6392V25.126C147.937 24.7646 147.332 24.584 146.648 24.584C146.433 24.584 146.238 24.606 146.062 24.6499C145.891 24.6938 145.745 24.7549 145.623 24.833C145.5 24.9111 145.405 25.0063 145.337 25.1187C145.269 25.2261 145.234 25.3457 145.234 25.4775C145.234 25.6387 145.269 25.7754 145.337 25.8877C145.405 26 145.505 26.1001 145.637 26.188C145.774 26.271 145.935 26.3491 146.121 26.4224C146.311 26.4907 146.528 26.5664 146.772 26.6494C147.095 26.7812 147.383 26.9155 147.637 27.0522C147.896 27.189 148.115 27.3452 148.296 27.521C148.477 27.6919 148.616 27.8921 148.713 28.1216C148.811 28.3462 148.86 28.6147 148.86 28.9272C148.86 29.3081 148.772 29.6401 148.596 29.9233C148.42 30.2065 148.186 30.4409 147.893 30.6265C147.6 30.812 147.261 30.9487 146.875 31.0366C146.494 31.1294 146.091 31.1758 145.667 31.1758C144.846 31.1758 144.136 31.0391 143.535 30.7656ZM161.428 31H159.729V29.7256H159.7C159.153 30.6924 158.311 31.1758 157.173 31.1758C156.25 31.1758 155.51 30.8413 154.954 30.1724C154.402 29.4985 154.126 28.583 154.126 27.4258C154.126 26.1855 154.431 25.1919 155.042 24.4448C155.657 23.6978 156.475 23.3242 157.495 23.3242C158.506 23.3242 159.241 23.7295 159.7 24.54H159.729V19.8965H161.428V31ZM159.751 27.5723V26.5908C159.751 26.0586 159.578 25.6069 159.231 25.2358C158.884 24.8647 158.442 24.6792 157.905 24.6792C157.271 24.6792 156.77 24.916 156.404 25.3896C156.042 25.8633 155.862 26.52 155.862 27.3599C155.862 28.1216 156.035 28.7246 156.382 29.1689C156.733 29.6084 157.205 29.8281 157.795 29.8281C158.376 29.8281 158.848 29.6157 159.209 29.1909C159.57 28.7612 159.751 28.2217 159.751 27.5723ZM169.998 27.7114H164.885C164.905 28.4048 165.117 28.9395 165.522 29.3154C165.933 29.6914 166.494 29.8794 167.207 29.8794C168.008 29.8794 168.743 29.6401 169.412 29.1616V30.5312C168.728 30.9609 167.825 31.1758 166.702 31.1758C165.598 31.1758 164.731 30.8364 164.102 30.1577C163.477 29.4741 163.164 28.5146 163.164 27.2793C163.164 26.1123 163.508 25.1626 164.197 24.4302C164.89 23.6929 165.75 23.3242 166.775 23.3242C167.8 23.3242 168.594 23.6538 169.155 24.313C169.717 24.9722 169.998 25.8877 169.998 27.0596V27.7114ZM168.357 26.5103C168.352 25.8999 168.208 25.4263 167.925 25.0894C167.642 24.7476 167.251 24.5767 166.753 24.5767C166.265 24.5767 165.85 24.7549 165.508 25.1113C165.171 25.4678 164.963 25.9341 164.885 26.5103H168.357ZM184.053 31H182.017L180.339 28.1875C180.188 27.9287 180.039 27.709 179.893 27.5283C179.751 27.3428 179.604 27.1914 179.453 27.0742C179.307 26.957 179.146 26.8716 178.97 26.8179C178.794 26.7642 178.596 26.7373 178.376 26.7373H177.673V31H175.938V20.4971H179.395C179.888 20.4971 180.342 20.5557 180.757 20.6729C181.172 20.79 181.533 20.9683 181.841 21.2075C182.148 21.4419 182.388 21.7373 182.559 22.0938C182.734 22.4453 182.822 22.8579 182.822 23.3315C182.822 23.7026 182.766 24.0444 182.654 24.3569C182.546 24.6646 182.39 24.9404 182.185 25.1846C181.985 25.4238 181.741 25.6289 181.453 25.7998C181.169 25.9707 180.85 26.1025 180.493 26.1953V26.2246C180.684 26.332 180.85 26.4517 180.991 26.5835C181.133 26.7104 181.267 26.8423 181.394 26.979C181.521 27.1157 181.646 27.272 181.768 27.4478C181.895 27.6187 182.034 27.8188 182.185 28.0483L184.053 31ZM177.673 21.9106V25.3237H179.124C179.392 25.3237 179.639 25.2822 179.863 25.1992C180.093 25.1162 180.291 24.9966 180.457 24.8403C180.623 24.6841 180.752 24.4937 180.845 24.269C180.938 24.0444 180.984 23.793 180.984 23.5146C180.984 23.0117 180.825 22.6187 180.508 22.3354C180.19 22.0522 179.734 21.9106 179.138 21.9106H177.673ZM185.95 21.9253C185.671 21.9253 185.432 21.835 185.232 21.6543C185.037 21.4736 184.939 21.2441 184.939 20.9658C184.939 20.6875 185.037 20.4556 185.232 20.27C185.432 20.0845 185.671 19.9917 185.95 19.9917C186.238 19.9917 186.482 20.0845 186.682 20.27C186.882 20.4556 186.982 20.6875 186.982 20.9658C186.982 21.2295 186.882 21.4565 186.682 21.647C186.482 21.8325 186.238 21.9253 185.95 21.9253ZM186.792 31H185.093V23.5H186.792V31ZM188.55 30.7656V29.1909C189.185 29.6743 189.885 29.916 190.652 29.916C191.677 29.916 192.19 29.6133 192.19 29.0078C192.19 28.8369 192.146 28.6929 192.058 28.5757C191.97 28.4536 191.851 28.3462 191.699 28.2534C191.553 28.1606 191.377 28.0776 191.172 28.0044C190.972 27.9312 190.747 27.8481 190.498 27.7554C190.19 27.6333 189.912 27.5039 189.663 27.3672C189.419 27.2305 189.214 27.0767 189.048 26.9058C188.887 26.73 188.765 26.5322 188.682 26.3125C188.599 26.0928 188.557 25.8364 188.557 25.5435C188.557 25.1821 188.643 24.8647 188.813 24.5913C188.984 24.313 189.214 24.0811 189.502 23.8955C189.79 23.7051 190.117 23.5635 190.483 23.4707C190.85 23.373 191.228 23.3242 191.619 23.3242C192.312 23.3242 192.932 23.4292 193.479 23.6392V25.126C192.952 24.7646 192.346 24.584 191.663 24.584C191.448 24.584 191.252 24.606 191.077 24.6499C190.906 24.6938 190.759 24.7549 190.637 24.833C190.515 24.9111 190.42 25.0063 190.352 25.1187C190.283 25.2261 190.249 25.3457 190.249 25.4775C190.249 25.6387 190.283 25.7754 190.352 25.8877C190.42 26 190.52 26.1001 190.652 26.188C190.789 26.271 190.95 26.3491 191.135 26.4224C191.326 26.4907 191.543 26.5664 191.787 26.6494C192.109 26.7812 192.397 26.9155 192.651 27.0522C192.91 27.189 193.13 27.3452 193.311 27.521C193.491 27.6919 193.63 27.8921 193.728 28.1216C193.826 28.3462 193.875 28.6147 193.875 28.9272C193.875 29.3081 193.787 29.6401 193.611 29.9233C193.435 30.2065 193.201 30.4409 192.908 30.6265C192.615 30.812 192.275 30.9487 191.89 31.0366C191.509 31.1294 191.106 31.1758 190.681 31.1758C189.861 31.1758 189.15 31.0391 188.55 30.7656ZM200.862 30.6558C200.261 31.0024 199.551 31.1758 198.73 31.1758C197.617 31.1758 196.719 30.8291 196.035 30.1357C195.352 29.4375 195.01 28.5342 195.01 27.4258C195.01 26.1904 195.376 25.1992 196.108 24.4521C196.846 23.7002 197.83 23.3242 199.06 23.3242C199.744 23.3242 200.347 23.4438 200.869 23.6831V25.2651C200.347 24.8745 199.79 24.6792 199.199 24.6792C198.481 24.6792 197.893 24.9233 197.434 25.4116C196.975 25.895 196.746 26.5298 196.746 27.3159C196.746 28.0923 196.96 28.7051 197.39 29.1543C197.825 29.6035 198.406 29.8281 199.133 29.8281C199.744 29.8281 200.32 29.6108 200.862 29.1763V30.6558ZM205.879 31.1758C204.722 31.1758 203.796 30.8267 203.103 30.1284C202.415 29.4253 202.07 28.4951 202.07 27.3379C202.07 26.0781 202.429 25.0942 203.147 24.3862C203.87 23.6782 204.841 23.3242 206.062 23.3242C207.234 23.3242 208.147 23.6685 208.801 24.3569C209.456 25.0454 209.783 26 209.783 27.2207C209.783 28.417 209.429 29.3765 208.721 30.0991C208.018 30.8169 207.07 31.1758 205.879 31.1758ZM205.959 24.6792C205.295 24.6792 204.771 24.9111 204.385 25.375C203.999 25.8389 203.806 26.4785 203.806 27.2939C203.806 28.0801 204.001 28.7002 204.392 29.1543C204.783 29.6035 205.305 29.8281 205.959 29.8281C206.628 29.8281 207.141 29.606 207.498 29.1616C207.859 28.7173 208.04 28.085 208.04 27.2646C208.04 26.4395 207.859 25.8022 207.498 25.353C207.141 24.9038 206.628 24.6792 205.959 24.6792ZM217.378 29.894H217.349V34.4497H215.649V23.5H217.349V24.8184H217.378C217.959 23.8223 218.809 23.3242 219.927 23.3242C220.879 23.3242 221.621 23.6587 222.153 24.3276C222.686 24.9966 222.952 25.895 222.952 27.0229C222.952 28.2729 222.651 29.2739 222.051 30.0259C221.45 30.7778 220.63 31.1538 219.59 31.1538C218.633 31.1538 217.896 30.7339 217.378 29.894ZM217.334 26.9351V27.8652C217.334 28.4121 217.507 28.876 217.854 29.2568C218.206 29.6377 218.65 29.8281 219.187 29.8281C219.817 29.8281 220.31 29.584 220.667 29.0957C221.028 28.6025 221.208 27.9165 221.208 27.0376C221.208 26.3003 221.04 25.7241 220.703 25.3091C220.371 24.8892 219.919 24.6792 219.348 24.6792C218.743 24.6792 218.254 24.894 217.883 25.3237C217.517 25.7534 217.334 26.2905 217.334 26.9351ZM228.013 31.1758C226.855 31.1758 225.93 30.8267 225.237 30.1284C224.548 29.4253 224.204 28.4951 224.204 27.3379C224.204 26.0781 224.563 25.0942 225.281 24.3862C226.003 23.6782 226.975 23.3242 228.196 23.3242C229.368 23.3242 230.281 23.6685 230.935 24.3569C231.589 25.0454 231.917 26 231.917 27.2207C231.917 28.417 231.562 29.3765 230.854 30.0991C230.151 30.8169 229.204 31.1758 228.013 31.1758ZM228.093 24.6792C227.429 24.6792 226.904 24.9111 226.519 25.375C226.133 25.8389 225.94 26.4785 225.94 27.2939C225.94 28.0801 226.135 28.7002 226.526 29.1543C226.917 29.6035 227.439 29.8281 228.093 29.8281C228.762 29.8281 229.275 29.606 229.631 29.1616C229.993 28.7173 230.173 28.085 230.173 27.2646C230.173 26.4395 229.993 25.8022 229.631 25.353C229.275 24.9038 228.762 24.6792 228.093 24.6792ZM238.003 25.1187C237.798 24.9575 237.502 24.877 237.117 24.877C236.614 24.877 236.194 25.104 235.857 25.5581C235.52 26.0122 235.352 26.6299 235.352 27.4111V31H233.652V23.5H235.352V25.0454H235.381C235.547 24.5181 235.801 24.1079 236.143 23.8149C236.489 23.5171 236.875 23.3682 237.3 23.3682C237.607 23.3682 237.842 23.4146 238.003 23.5073V25.1187ZM252.153 31H250.242L249.297 28.3267H245.166L244.258 31H242.354L246.287 20.4971H248.25L252.153 31ZM248.835 26.9058L247.378 22.7163C247.334 22.5796 247.288 22.3599 247.239 22.0571H247.209C247.166 22.3354 247.117 22.5552 247.063 22.7163L245.62 26.9058H248.835ZM257.119 30.9194C256.787 31.0854 256.35 31.1685 255.808 31.1685C254.353 31.1685 253.625 30.4702 253.625 29.0737V24.833H252.373V23.5H253.625V21.7642L255.325 21.2808V23.5H257.119V24.833H255.325V28.583C255.325 29.0273 255.405 29.3447 255.566 29.5352C255.728 29.7256 255.996 29.8208 256.372 29.8208C256.66 29.8208 256.909 29.7378 257.119 29.5718V30.9194ZM259.441 21.9253C259.163 21.9253 258.923 21.835 258.723 21.6543C258.528 21.4736 258.43 21.2441 258.43 20.9658C258.43 20.6875 258.528 20.4556 258.723 20.27C258.923 20.0845 259.163 19.9917 259.441 19.9917C259.729 19.9917 259.973 20.0845 260.173 20.27C260.374 20.4556 260.474 20.6875 260.474 20.9658C260.474 21.2295 260.374 21.4565 260.173 21.647C259.973 21.8325 259.729 21.9253 259.441 21.9253ZM260.283 31H258.584V23.5H260.283V31ZM268.97 23.5L266.069 31H264.231L261.47 23.5H263.315L264.978 28.7441C265.105 29.1299 265.183 29.4668 265.212 29.7549H265.234C265.278 29.3936 265.347 29.0664 265.439 28.7734L267.183 23.5H268.97ZM273.335 31.1758C272.178 31.1758 271.252 30.8267 270.559 30.1284C269.871 29.4253 269.526 28.4951 269.526 27.3379C269.526 26.0781 269.885 25.0942 270.603 24.3862C271.326 23.6782 272.297 23.3242 273.518 23.3242C274.69 23.3242 275.603 23.6685 276.257 24.3569C276.912 25.0454 277.239 26 277.239 27.2207C277.239 28.417 276.885 29.3765 276.177 30.0991C275.474 30.8169 274.526 31.1758 273.335 31.1758ZM273.416 24.6792C272.751 24.6792 272.227 24.9111 271.841 25.375C271.455 25.8389 271.262 26.4785 271.262 27.2939C271.262 28.0801 271.458 28.7002 271.848 29.1543C272.239 29.6035 272.761 29.8281 273.416 29.8281C274.084 29.8281 274.597 29.606 274.954 29.1616C275.315 28.7173 275.496 28.085 275.496 27.2646C275.496 26.4395 275.315 25.8022 274.954 25.353C274.597 24.9038 274.084 24.6792 273.416 24.6792Z" fill="white"/>
<rect opacity="0.7" x="10.5" y="43.5" width="299" height="186" fill="white" stroke="#CCD8E6"/>
</g>
<defs>
<linearGradient id="paint0_linear_192_370" x1="149.43" y1="-19.5225" x2="10.1597" y2="173.167" gradientUnits="userSpaceOnUse">
<stop stop-color="#E3F3FA"/>
<stop offset="1" stop-color="#FDFEFE"/>
</linearGradient>
<linearGradient id="paint1_linear_192_370" x1="151.065" y1="-9.41826" x2="144.326" y2="61.147" gradientUnits="userSpaceOnUse">
<stop offset="0.0169824" stop-color="#E3F3F4"/>
<stop offset="0.5" stop-color="#FDFEFE"/>
<stop offset="1" stop-color="#E3F3F4"/>
</linearGradient>
<clipPath id="clip0_192_370">
<rect width="320" height="240" fill="white"/>
</clipPath>
</defs>
</svg>
