<svg width="320" height="240" viewBox="0 0 320 240" fill="none" xmlns="http://www.w3.org/2000/svg">
<g clip-path="url(#clip0_192_378)">
<rect width="320" height="240" fill="url(#paint0_linear_192_378)"/>
<path d="M230 135.5C314.829 135.5 383.5 197.111 383.5 273C383.5 348.889 314.829 410.5 230 410.5C145.171 410.5 76.5 348.889 76.5 273C76.5 197.111 145.171 135.5 230 135.5Z" stroke="#CBE4F3"/>
<path d="M97 -57.5C165.813 -57.5 221.5 -7.52953 221.5 54C221.5 115.53 165.813 165.5 97 165.5C28.1875 165.5 -27.5 115.53 -27.5 54C-27.5 -7.52953 28.1875 -57.5 97 -57.5Z" stroke="#CBE4F3"/>
<path d="M22 7.5H298C304.351 7.5 309.5 12.6487 309.5 19V42.5H10.5V19C10.5 12.6487 15.6487 7.5 22 7.5Z" fill="#0079C2" stroke="url(#paint1_linear_192_378)"/>
<path d="M71.6772 30.5605C70.8862 30.9707 69.9023 31.1758 68.7256 31.1758C67.2021 31.1758 65.9814 30.6948 65.0635 29.7329C64.1455 28.771 63.6865 27.5088 63.6865 25.9463C63.6865 24.2666 64.2017 22.9092 65.2319 21.874C66.2671 20.8389 67.5732 20.3213 69.1504 20.3213C70.166 20.3213 71.0083 20.4653 71.6772 20.7534V22.4819C70.9692 22.062 70.188 21.8521 69.3335 21.8521C68.1958 21.8521 67.2729 22.2158 66.5649 22.9434C65.8618 23.6709 65.5103 24.6426 65.5103 25.8584C65.5103 27.0156 65.8398 27.9385 66.499 28.627C67.1582 29.3105 68.0249 29.6523 69.0991 29.6523C70.0903 29.6523 70.9497 29.418 71.6772 28.9492V30.5605ZM75.1855 31H73.479V19.8965H75.1855V31ZM83.1616 31H81.5137V29.8281H81.4844C80.9668 30.7266 80.2075 31.1758 79.2065 31.1758C78.4692 31.1758 77.8906 30.9756 77.4707 30.5752C77.0557 30.1748 76.8481 29.645 76.8481 28.9858C76.8481 27.5698 77.6636 26.7446 79.2944 26.5103L81.521 26.1953C81.521 25.126 81.0132 24.5913 79.9976 24.5913C79.104 24.5913 78.2983 24.8989 77.5806 25.5142V24.0273C78.3716 23.5586 79.2847 23.3242 80.3198 23.3242C82.2144 23.3242 83.1616 24.2568 83.1616 26.1221V31ZM81.521 27.3159L79.9463 27.5356C79.458 27.5991 79.0894 27.7188 78.8403 27.8945C78.5962 28.0654 78.4741 28.3682 78.4741 28.8027C78.4741 29.1201 78.5864 29.3813 78.811 29.5864C79.0405 29.7866 79.3457 29.8867 79.7266 29.8867C80.2441 29.8867 80.6714 29.7061 81.0083 29.3447C81.3501 28.9785 81.521 28.5195 81.521 27.9678V27.3159ZM84.7729 30.7656V29.1909C85.4077 29.6743 86.1084 29.916 86.875 29.916C87.9004 29.916 88.4131 29.6133 88.4131 29.0078C88.4131 28.8369 88.3691 28.6929 88.2812 28.5757C88.1934 28.4536 88.0737 28.3462 87.9224 28.2534C87.7759 28.1606 87.6001 28.0776 87.395 28.0044C87.1948 27.9312 86.9702 27.8481 86.7212 27.7554C86.4136 27.6333 86.1353 27.5039 85.8862 27.3672C85.6421 27.2305 85.437 27.0767 85.271 26.9058C85.1099 26.73 84.9878 26.5322 84.9048 26.3125C84.8218 26.0928 84.7803 25.8364 84.7803 25.5435C84.7803 25.1821 84.8657 24.8647 85.0366 24.5913C85.2075 24.313 85.437 24.0811 85.7251 23.8955C86.0132 23.7051 86.3403 23.5635 86.7065 23.4707C87.0728 23.373 87.4512 23.3242 87.8418 23.3242C88.5352 23.3242 89.1553 23.4292 89.7021 23.6392V25.126C89.1748 24.7646 88.5693 24.584 87.8857 24.584C87.6709 24.584 87.4756 24.606 87.2998 24.6499C87.1289 24.6938 86.9824 24.7549 86.8604 24.833C86.7383 24.9111 86.6431 25.0063 86.5747 25.1187C86.5063 25.2261 86.4722 25.3457 86.4722 25.4775C86.4722 25.6387 86.5063 25.7754 86.5747 25.8877C86.6431 26 86.7432 26.1001 86.875 26.188C87.0117 26.271 87.1729 26.3491 87.3584 26.4224C87.5488 26.4907 87.7661 26.5664 88.0103 26.6494C88.3325 26.7812 88.6206 26.9155 88.8745 27.0522C89.1333 27.189 89.353 27.3452 89.5337 27.521C89.7144 27.6919 89.8535 27.8921 89.9512 28.1216C90.0488 28.3462 90.0977 28.6147 90.0977 28.9272C90.0977 29.3081 90.0098 29.6401 89.834 29.9233C89.6582 30.2065 89.4238 30.4409 89.1309 30.6265C88.8379 30.812 88.4985 30.9487 88.1128 31.0366C87.7319 31.1294 87.3291 31.1758 86.9043 31.1758C86.084 31.1758 85.3735 31.0391 84.7729 30.7656ZM91.2476 30.7656V29.1909C91.8823 29.6743 92.583 29.916 93.3496 29.916C94.375 29.916 94.8877 29.6133 94.8877 29.0078C94.8877 28.8369 94.8438 28.6929 94.7559 28.5757C94.668 28.4536 94.5483 28.3462 94.397 28.2534C94.2505 28.1606 94.0747 28.0776 93.8696 28.0044C93.6694 27.9312 93.4448 27.8481 93.1958 27.7554C92.8882 27.6333 92.6099 27.5039 92.3608 27.3672C92.1167 27.2305 91.9116 27.0767 91.7456 26.9058C91.5845 26.73 91.4624 26.5322 91.3794 26.3125C91.2964 26.0928 91.2549 25.8364 91.2549 25.5435C91.2549 25.1821 91.3403 24.8647 91.5112 24.5913C91.6821 24.313 91.9116 24.0811 92.1997 23.8955C92.4878 23.7051 92.8149 23.5635 93.1812 23.4707C93.5474 23.373 93.9258 23.3242 94.3164 23.3242C95.0098 23.3242 95.6299 23.4292 96.1768 23.6392V25.126C95.6494 24.7646 95.0439 24.584 94.3604 24.584C94.1455 24.584 93.9502 24.606 93.7744 24.6499C93.6035 24.6938 93.457 24.7549 93.335 24.833C93.2129 24.9111 93.1177 25.0063 93.0493 25.1187C92.981 25.2261 92.9468 25.3457 92.9468 25.4775C92.9468 25.6387 92.981 25.7754 93.0493 25.8877C93.1177 26 93.2178 26.1001 93.3496 26.188C93.4863 26.271 93.6475 26.3491 93.833 26.4224C94.0234 26.4907 94.2407 26.5664 94.4849 26.6494C94.8071 26.7812 95.0952 26.9155 95.3491 27.0522C95.6079 27.189 95.8276 27.3452 96.0083 27.521C96.189 27.6919 96.3281 27.8921 96.4258 28.1216C96.5234 28.3462 96.5723 28.6147 96.5723 28.9272C96.5723 29.3081 96.4844 29.6401 96.3086 29.9233C96.1328 30.2065 95.8984 30.4409 95.6055 30.6265C95.3125 30.812 94.9731 30.9487 94.5874 31.0366C94.2065 31.1294 93.8037 31.1758 93.3789 31.1758C92.5586 31.1758 91.8481 31.0391 91.2476 30.7656ZM99.0479 21.9253C98.7695 21.9253 98.5303 21.835 98.3301 21.6543C98.1348 21.4736 98.0371 21.2441 98.0371 20.9658C98.0371 20.6875 98.1348 20.4556 98.3301 20.27C98.5303 20.0845 98.7695 19.9917 99.0479 19.9917C99.3359 19.9917 99.5801 20.0845 99.7803 20.27C99.9805 20.4556 100.081 20.6875 100.081 20.9658C100.081 21.2295 99.9805 21.4565 99.7803 21.647C99.5801 21.8325 99.3359 21.9253 99.0479 21.9253ZM99.8901 31H98.1909V23.5H99.8901V31ZM106.357 21.2808C106.128 21.1489 105.867 21.083 105.574 21.083C104.749 21.083 104.336 21.5493 104.336 22.4819V23.5H106.079V24.833H104.343V31H102.644V24.833H101.362V23.5H102.644V22.2842C102.644 21.4932 102.903 20.8706 103.42 20.4165C103.938 19.9575 104.585 19.728 105.361 19.728C105.781 19.728 106.113 19.7744 106.357 19.8672V21.2808ZM108.145 21.9253C107.866 21.9253 107.627 21.835 107.427 21.6543C107.231 21.4736 107.134 21.2441 107.134 20.9658C107.134 20.6875 107.231 20.4556 107.427 20.27C107.627 20.0845 107.866 19.9917 108.145 19.9917C108.433 19.9917 108.677 20.0845 108.877 20.27C109.077 20.4556 109.177 20.6875 109.177 20.9658C109.177 21.2295 109.077 21.4565 108.877 21.647C108.677 21.8325 108.433 21.9253 108.145 21.9253ZM108.987 31H107.288V23.5H108.987V31ZM116.582 30.6558C115.981 31.0024 115.271 31.1758 114.451 31.1758C113.337 31.1758 112.439 30.8291 111.755 30.1357C111.072 29.4375 110.73 28.5342 110.73 27.4258C110.73 26.1904 111.096 25.1992 111.829 24.4521C112.566 23.7002 113.55 23.3242 114.78 23.3242C115.464 23.3242 116.067 23.4438 116.589 23.6831V25.2651C116.067 24.8745 115.51 24.6792 114.919 24.6792C114.202 24.6792 113.613 24.9233 113.154 25.4116C112.695 25.895 112.466 26.5298 112.466 27.3159C112.466 28.0923 112.681 28.7051 113.11 29.1543C113.545 29.6035 114.126 29.8281 114.854 29.8281C115.464 29.8281 116.04 29.6108 116.582 29.1763V30.6558ZM124.031 31H122.383V29.8281H122.354C121.836 30.7266 121.077 31.1758 120.076 31.1758C119.338 31.1758 118.76 30.9756 118.34 30.5752C117.925 30.1748 117.717 29.645 117.717 28.9858C117.717 27.5698 118.533 26.7446 120.164 26.5103L122.39 26.1953C122.39 25.126 121.882 24.5913 120.867 24.5913C119.973 24.5913 119.167 24.8989 118.45 25.5142V24.0273C119.241 23.5586 120.154 23.3242 121.189 23.3242C123.083 23.3242 124.031 24.2568 124.031 26.1221V31ZM122.39 27.3159L120.815 27.5356C120.327 27.5991 119.958 27.7188 119.709 27.8945C119.465 28.0654 119.343 28.3682 119.343 28.8027C119.343 29.1201 119.456 29.3813 119.68 29.5864C119.91 29.7866 120.215 29.8867 120.596 29.8867C121.113 29.8867 121.541 29.7061 121.877 29.3447C122.219 28.9785 122.39 28.5195 122.39 27.9678V27.3159ZM131.479 30.6558C130.879 31.0024 130.168 31.1758 129.348 31.1758C128.235 31.1758 127.336 30.8291 126.653 30.1357C125.969 29.4375 125.627 28.5342 125.627 27.4258C125.627 26.1904 125.994 25.1992 126.726 24.4521C127.463 23.7002 128.447 23.3242 129.678 23.3242C130.361 23.3242 130.964 23.4438 131.487 23.6831V25.2651C130.964 24.8745 130.408 24.6792 129.817 24.6792C129.099 24.6792 128.511 24.9233 128.052 25.4116C127.593 25.895 127.363 26.5298 127.363 27.3159C127.363 28.0923 127.578 28.7051 128.008 29.1543C128.442 29.6035 129.023 29.8281 129.751 29.8281C130.361 29.8281 130.938 29.6108 131.479 29.1763V30.6558ZM130.872 32.8164C130.872 33.7637 130.168 34.2373 128.762 34.2373C128.533 34.2373 128.335 34.23 128.169 34.2153V33.4023C128.384 33.4316 128.557 33.4463 128.689 33.4463C129.338 33.4463 129.663 33.2461 129.663 32.8457C129.663 32.4844 129.368 32.3037 128.777 32.3037C128.728 32.3037 128.633 32.3135 128.491 32.333V31H129.487V31.6885C129.912 31.6885 130.249 31.7861 130.498 31.9814C130.747 32.1816 130.872 32.46 130.872 32.8164ZM138.928 31H137.28V29.8281H137.251C136.733 30.7266 135.974 31.1758 134.973 31.1758C134.236 31.1758 133.657 30.9756 133.237 30.5752C132.822 30.1748 132.615 29.645 132.615 28.9858C132.615 27.5698 133.43 26.7446 135.061 26.5103L137.288 26.1953C137.288 25.126 136.78 24.5913 135.764 24.5913C134.871 24.5913 134.065 24.8989 133.347 25.5142V24.0273C134.138 23.5586 135.051 23.3242 136.086 23.3242C137.981 23.3242 138.928 24.2568 138.928 26.1221V31ZM137.288 27.3159L135.713 27.5356C135.225 27.5991 134.856 27.7188 134.607 27.8945C134.363 28.0654 134.241 28.3682 134.241 28.8027C134.241 29.1201 134.353 29.3813 134.578 29.5864C134.807 29.7866 135.112 29.8867 135.493 29.8867C136.011 29.8867 136.438 29.7061 136.775 29.3447C137.117 28.9785 137.288 28.5195 137.288 27.9678V27.3159ZM138.452 20.1968C138.452 20.7632 138.325 21.2271 138.071 21.5884C137.822 21.9448 137.483 22.123 137.053 22.123C136.702 22.123 136.299 22.0059 135.845 21.7715C135.464 21.5518 135.168 21.4419 134.958 21.4419C134.548 21.4419 134.343 21.7129 134.343 22.2549H133.501C133.501 21.6738 133.625 21.21 133.875 20.8633C134.124 20.5117 134.473 20.3359 134.922 20.3359C135.254 20.3359 135.637 20.4604 136.072 20.7095C136.423 20.9243 136.729 21.0317 136.987 21.0317C137.383 21.0317 137.581 20.7534 137.581 20.1968H138.452ZM144.333 31.1758C143.176 31.1758 142.251 30.8267 141.558 30.1284C140.869 29.4253 140.525 28.4951 140.525 27.3379C140.525 26.0781 140.884 25.0942 141.602 24.3862C142.324 23.6782 143.296 23.3242 144.517 23.3242C145.688 23.3242 146.602 23.6685 147.256 24.3569C147.91 25.0454 148.237 26 148.237 27.2207C148.237 28.417 147.883 29.3765 147.175 30.0991C146.472 30.8169 145.525 31.1758 144.333 31.1758ZM144.414 24.6792C143.75 24.6792 143.225 24.9111 142.839 25.375C142.454 25.8389 142.261 26.4785 142.261 27.2939C142.261 28.0801 142.456 28.7002 142.847 29.1543C143.237 29.6035 143.76 29.8281 144.414 29.8281C145.083 29.8281 145.596 29.606 145.952 29.1616C146.313 28.7173 146.494 28.085 146.494 27.2646C146.494 26.4395 146.313 25.8022 145.952 25.353C145.596 24.9038 145.083 24.6792 144.414 24.6792ZM162.41 31H160.374L158.696 28.1875C158.545 27.9287 158.396 27.709 158.25 27.5283C158.108 27.3428 157.961 27.1914 157.81 27.0742C157.664 26.957 157.502 26.8716 157.327 26.8179C157.151 26.7642 156.953 26.7373 156.733 26.7373H156.03V31H154.294V20.4971H157.751C158.245 20.4971 158.699 20.5557 159.114 20.6729C159.529 20.79 159.89 20.9683 160.198 21.2075C160.505 21.4419 160.745 21.7373 160.916 22.0938C161.091 22.4453 161.179 22.8579 161.179 23.3315C161.179 23.7026 161.123 24.0444 161.011 24.3569C160.903 24.6646 160.747 24.9404 160.542 25.1846C160.342 25.4238 160.098 25.6289 159.81 25.7998C159.526 25.9707 159.207 26.1025 158.85 26.1953V26.2246C159.041 26.332 159.207 26.4517 159.348 26.5835C159.49 26.7104 159.624 26.8423 159.751 26.979C159.878 27.1157 160.002 27.272 160.125 27.4478C160.251 27.6187 160.391 27.8188 160.542 28.0483L162.41 31ZM156.03 21.9106V25.3237H157.48C157.749 25.3237 157.996 25.2822 158.22 25.1992C158.45 25.1162 158.647 24.9966 158.813 24.8403C158.979 24.6841 159.109 24.4937 159.202 24.269C159.294 24.0444 159.341 23.793 159.341 23.5146C159.341 23.0117 159.182 22.6187 158.865 22.3354C158.547 22.0522 158.091 21.9106 157.495 21.9106H156.03ZM169.207 31H167.559V29.8281H167.529C167.012 30.7266 166.252 31.1758 165.251 31.1758C164.514 31.1758 163.936 30.9756 163.516 30.5752C163.101 30.1748 162.893 29.645 162.893 28.9858C162.893 27.5698 163.708 26.7446 165.339 26.5103L167.566 26.1953C167.566 25.126 167.058 24.5913 166.042 24.5913C165.149 24.5913 164.343 24.8989 163.625 25.5142V24.0273C164.417 23.5586 165.33 23.3242 166.365 23.3242C168.259 23.3242 169.207 24.2568 169.207 26.1221V31ZM167.566 27.3159L165.991 27.5356C165.503 27.5991 165.134 27.7188 164.885 27.8945C164.641 28.0654 164.519 28.3682 164.519 28.8027C164.519 29.1201 164.631 29.3813 164.856 29.5864C165.085 29.7866 165.391 29.8867 165.771 29.8867C166.289 29.8867 166.716 29.7061 167.053 29.3447C167.395 28.9785 167.566 28.5195 167.566 27.9678V27.3159ZM175.242 30.9194C174.91 31.0854 174.473 31.1685 173.931 31.1685C172.476 31.1685 171.748 30.4702 171.748 29.0737V24.833H170.496V23.5H171.748V21.7642L173.447 21.2808V23.5H175.242V24.833H173.447V28.583C173.447 29.0273 173.528 29.3447 173.689 29.5352C173.85 29.7256 174.119 29.8208 174.495 29.8208C174.783 29.8208 175.032 29.7378 175.242 29.5718V30.9194ZM177.563 21.9253C177.285 21.9253 177.046 21.835 176.846 21.6543C176.65 21.4736 176.553 21.2441 176.553 20.9658C176.553 20.6875 176.65 20.4556 176.846 20.27C177.046 20.0845 177.285 19.9917 177.563 19.9917C177.852 19.9917 178.096 20.0845 178.296 20.27C178.496 20.4556 178.596 20.6875 178.596 20.9658C178.596 21.2295 178.496 21.4565 178.296 21.647C178.096 21.8325 177.852 21.9253 177.563 21.9253ZM178.406 31H176.707V23.5H178.406V31ZM187.312 31H185.613V26.7739C185.613 25.3726 185.117 24.6719 184.126 24.6719C183.608 24.6719 183.181 24.8672 182.844 25.2578C182.507 25.6436 182.339 26.1318 182.339 26.7227V31H180.632V23.5H182.339V24.7451H182.368C182.93 23.7979 183.74 23.3242 184.8 23.3242C185.615 23.3242 186.238 23.5903 186.667 24.1226C187.097 24.6499 187.312 25.4141 187.312 26.415V31ZM196.218 30.3994C196.218 33.1533 194.834 34.5303 192.065 34.5303C191.089 34.5303 190.237 34.3667 189.509 34.0396V32.4868C190.33 32.9556 191.108 33.1899 191.846 33.1899C193.628 33.1899 194.519 32.3135 194.519 30.5605V29.7402H194.49C193.928 30.6973 193.083 31.1758 191.956 31.1758C191.042 31.1758 190.305 30.8438 189.744 30.1797C189.187 29.5107 188.909 28.6147 188.909 27.4917C188.909 26.2173 189.209 25.2041 189.81 24.4521C190.41 23.7002 191.235 23.3242 192.285 23.3242C193.276 23.3242 194.011 23.7295 194.49 24.54H194.519V23.5H196.218V30.3994ZM194.534 27.5649V26.5908C194.534 26.0635 194.358 25.6143 194.006 25.2432C193.66 24.8672 193.225 24.6792 192.703 24.6792C192.058 24.6792 191.553 24.9185 191.187 25.397C190.825 25.8706 190.645 26.5347 190.645 27.3892C190.645 28.1265 190.818 28.7173 191.165 29.1616C191.516 29.6011 191.98 29.8208 192.556 29.8208C193.142 29.8208 193.618 29.6108 193.984 29.1909C194.351 28.7661 194.534 28.2241 194.534 27.5649ZM204.29 29.894H204.26V34.4497H202.561V23.5H204.26V24.8184H204.29C204.871 23.8223 205.72 23.3242 206.838 23.3242C207.791 23.3242 208.533 23.6587 209.065 24.3276C209.597 24.9966 209.863 25.895 209.863 27.0229C209.863 28.2729 209.563 29.2739 208.962 30.0259C208.362 30.7778 207.542 31.1538 206.501 31.1538C205.544 31.1538 204.807 30.7339 204.29 29.894ZM204.246 26.9351V27.8652C204.246 28.4121 204.419 28.876 204.766 29.2568C205.117 29.6377 205.562 29.8281 206.099 29.8281C206.729 29.8281 207.222 29.584 207.578 29.0957C207.939 28.6025 208.12 27.9165 208.12 27.0376C208.12 26.3003 207.952 25.7241 207.615 25.3091C207.283 24.8892 206.831 24.6792 206.26 24.6792C205.654 24.6792 205.166 24.894 204.795 25.3237C204.429 25.7534 204.246 26.2905 204.246 26.9351ZM214.924 31.1758C213.767 31.1758 212.842 30.8267 212.148 30.1284C211.46 29.4253 211.116 28.4951 211.116 27.3379C211.116 26.0781 211.475 25.0942 212.192 24.3862C212.915 23.6782 213.887 23.3242 215.107 23.3242C216.279 23.3242 217.192 23.6685 217.847 24.3569C218.501 25.0454 218.828 26 218.828 27.2207C218.828 28.417 218.474 29.3765 217.766 30.0991C217.063 30.8169 216.116 31.1758 214.924 31.1758ZM215.005 24.6792C214.341 24.6792 213.816 24.9111 213.43 25.375C213.044 25.8389 212.852 26.4785 212.852 27.2939C212.852 28.0801 213.047 28.7002 213.438 29.1543C213.828 29.6035 214.351 29.8281 215.005 29.8281C215.674 29.8281 216.187 29.606 216.543 29.1616C216.904 28.7173 217.085 28.085 217.085 27.2646C217.085 26.4395 216.904 25.8022 216.543 25.353C216.187 24.9038 215.674 24.6792 215.005 24.6792ZM224.915 25.1187C224.709 24.9575 224.414 24.877 224.028 24.877C223.525 24.877 223.105 25.104 222.769 25.5581C222.432 26.0122 222.263 26.6299 222.263 27.4111V31H220.564V23.5H222.263V25.0454H222.292C222.458 24.5181 222.712 24.1079 223.054 23.8149C223.401 23.5171 223.787 23.3682 224.211 23.3682C224.519 23.3682 224.753 23.4146 224.915 23.5073V25.1187ZM239.065 31H237.153L236.208 28.3267H232.078L231.169 31H229.265L233.198 20.4971H235.161L239.065 31ZM235.747 26.9058L234.29 22.7163C234.246 22.5796 234.199 22.3599 234.15 22.0571H234.121C234.077 22.3354 234.028 22.5552 233.975 22.7163L232.532 26.9058H235.747ZM247.004 31H245.305V26.7739C245.305 25.3726 244.81 24.6719 243.818 24.6719C243.301 24.6719 242.874 24.8672 242.537 25.2578C242.2 25.6436 242.031 26.1318 242.031 26.7227V31H240.325V23.5H242.031V24.7451H242.061C242.622 23.7979 243.433 23.3242 244.492 23.3242C245.308 23.3242 245.93 23.5903 246.36 24.1226C246.79 24.6499 247.004 25.4141 247.004 26.415V31ZM252.41 31.1758C251.252 31.1758 250.327 30.8267 249.634 30.1284C248.945 29.4253 248.601 28.4951 248.601 27.3379C248.601 26.0781 248.96 25.0942 249.678 24.3862C250.4 23.6782 251.372 23.3242 252.593 23.3242C253.765 23.3242 254.678 23.6685 255.332 24.3569C255.986 25.0454 256.313 26 256.313 27.2207C256.313 28.417 255.959 29.3765 255.251 30.0991C254.548 30.8169 253.601 31.1758 252.41 31.1758ZM252.49 24.6792C251.826 24.6792 251.301 24.9111 250.916 25.375C250.53 25.8389 250.337 26.4785 250.337 27.2939C250.337 28.0801 250.532 28.7002 250.923 29.1543C251.313 29.6035 251.836 29.8281 252.49 29.8281C253.159 29.8281 253.672 29.606 254.028 29.1616C254.39 28.7173 254.57 28.085 254.57 27.2646C254.57 26.4395 254.39 25.8022 254.028 25.353C253.672 24.9038 253.159 24.6792 252.49 24.6792Z" fill="white"/>
<rect opacity="0.7" x="10.5" y="43.5" width="299" height="186" fill="white" stroke="#CCD8E6"/>
</g>
<defs>
<linearGradient id="paint0_linear_192_378" x1="149.43" y1="-19.5225" x2="10.1597" y2="173.167" gradientUnits="userSpaceOnUse">
<stop stop-color="#E3F3FA"/>
<stop offset="1" stop-color="#FDFEFE"/>
</linearGradient>
<linearGradient id="paint1_linear_192_378" x1="151.065" y1="-9.41826" x2="144.326" y2="61.147" gradientUnits="userSpaceOnUse">
<stop offset="0.0169824" stop-color="#E3F3F4"/>
<stop offset="0.5" stop-color="#FDFEFE"/>
<stop offset="1" stop-color="#E3F3F4"/>
</linearGradient>
<clipPath id="clip0_192_378">
<rect width="320" height="240" fill="white"/>
</clipPath>
</defs>
</svg>
