<svg width="320" height="240" viewBox="0 0 320 240" fill="none" xmlns="http://www.w3.org/2000/svg">
<g clip-path="url(#clip0_192_402)">
<rect width="320" height="240" fill="url(#paint0_linear_192_402)"/>
<path d="M230 135.5C314.829 135.5 383.5 197.111 383.5 273C383.5 348.889 314.829 410.5 230 410.5C145.171 410.5 76.5 348.889 76.5 273C76.5 197.111 145.171 135.5 230 135.5Z" stroke="#CBE4F3"/>
<path d="M97 -57.5C165.813 -57.5 221.5 -7.52953 221.5 54C221.5 115.53 165.813 165.5 97 165.5C28.1875 165.5 -27.5 115.53 -27.5 54C-27.5 -7.52953 28.1875 -57.5 97 -57.5Z" stroke="#CBE4F3"/>
<path opacity="0.7" d="M22 10.5H298C304.351 10.5 309.5 15.6487 309.5 22V229.5H10.5V22L10.5146 21.4082C10.8227 15.3319 15.8472 10.5 22 10.5Z" fill="white" stroke="#CCD8E6"/>
<path d="M22 10.5H298C304.351 10.5 309.5 15.6487 309.5 22V45.5H10.5V22C10.5 15.6487 15.6487 10.5 22 10.5Z" fill="#0079C2" stroke="url(#paint1_linear_192_402)"/>
<path d="M105.332 34H103.42L102.476 31.3267H98.3447L97.4365 34H95.5322L99.4653 23.4971H101.428L105.332 34ZM102.014 29.9058L100.557 25.7163C100.513 25.5796 100.466 25.3599 100.417 25.0571H100.388C100.344 25.3354 100.295 25.5552 100.242 25.7163L98.7988 29.9058H102.014ZM108.298 34H106.592V22.8965H108.298V34ZM113.843 34.1758C112.686 34.1758 111.76 33.8267 111.067 33.1284C110.378 32.4253 110.034 31.4951 110.034 30.3379C110.034 29.0781 110.393 28.0942 111.111 27.3862C111.833 26.6782 112.805 26.3242 114.026 26.3242C115.198 26.3242 116.111 26.6685 116.765 27.3569C117.419 28.0454 117.747 29 117.747 30.2207C117.747 31.417 117.393 32.3765 116.685 33.0991C115.981 33.8169 115.034 34.1758 113.843 34.1758ZM113.923 27.6792C113.259 27.6792 112.734 27.9111 112.349 28.375C111.963 28.8389 111.77 29.4785 111.77 30.2939C111.77 31.0801 111.965 31.7002 112.356 32.1543C112.747 32.6035 113.269 32.8281 113.923 32.8281C114.592 32.8281 115.105 32.606 115.461 32.1616C115.823 31.7173 116.003 31.085 116.003 30.2646C116.003 29.4395 115.823 28.8022 115.461 28.353C115.105 27.9038 114.592 27.6792 113.923 27.6792ZM124.851 33.6558C124.25 34.0024 123.54 34.1758 122.72 34.1758C121.606 34.1758 120.708 33.8291 120.024 33.1357C119.341 32.4375 118.999 31.5342 118.999 30.4258C118.999 29.1904 119.365 28.1992 120.098 27.4521C120.835 26.7002 121.819 26.3242 123.049 26.3242C123.733 26.3242 124.336 26.4438 124.858 26.6831V28.2651C124.336 27.8745 123.779 27.6792 123.188 27.6792C122.471 27.6792 121.882 27.9233 121.423 28.4116C120.964 28.895 120.735 29.5298 120.735 30.3159C120.735 31.0923 120.95 31.7051 121.379 32.1543C121.814 32.6035 122.395 32.8281 123.123 32.8281C123.733 32.8281 124.309 32.6108 124.851 32.1763V33.6558ZM132.3 34H130.652V32.8281H130.623C130.105 33.7266 129.346 34.1758 128.345 34.1758C127.607 34.1758 127.029 33.9756 126.609 33.5752C126.194 33.1748 125.986 32.645 125.986 31.9858C125.986 30.5698 126.802 29.7446 128.433 29.5103L130.659 29.1953C130.659 28.126 130.151 27.5913 129.136 27.5913C128.242 27.5913 127.437 27.8989 126.719 28.5142V27.0273C127.51 26.5586 128.423 26.3242 129.458 26.3242C131.353 26.3242 132.3 27.2568 132.3 29.1221V34ZM130.659 30.3159L129.084 30.5356C128.596 30.5991 128.228 30.7188 127.979 30.8945C127.734 31.0654 127.612 31.3682 127.612 31.8027C127.612 32.1201 127.725 32.3813 127.949 32.5864C128.179 32.7866 128.484 32.8867 128.865 32.8867C129.382 32.8867 129.81 32.7061 130.146 32.3447C130.488 31.9785 130.659 31.5195 130.659 30.9678V30.3159ZM139.749 33.6558C139.148 34.0024 138.438 34.1758 137.617 34.1758C136.504 34.1758 135.605 33.8291 134.922 33.1357C134.238 32.4375 133.896 31.5342 133.896 30.4258C133.896 29.1904 134.263 28.1992 134.995 27.4521C135.732 26.7002 136.716 26.3242 137.947 26.3242C138.63 26.3242 139.233 26.4438 139.756 26.6831V28.2651C139.233 27.8745 138.677 27.6792 138.086 27.6792C137.368 27.6792 136.78 27.9233 136.321 28.4116C135.862 28.895 135.632 29.5298 135.632 30.3159C135.632 31.0923 135.847 31.7051 136.277 32.1543C136.711 32.6035 137.292 32.8281 138.02 32.8281C138.63 32.8281 139.207 32.6108 139.749 32.1763V33.6558ZM139.141 35.8164C139.141 36.7637 138.438 37.2373 137.031 37.2373C136.802 37.2373 136.604 37.23 136.438 37.2153V36.4023C136.653 36.4316 136.826 36.4463 136.958 36.4463C137.607 36.4463 137.932 36.2461 137.932 35.8457C137.932 35.4844 137.637 35.3037 137.046 35.3037C136.997 35.3037 136.902 35.3135 136.76 35.333V34H137.756V34.6885C138.181 34.6885 138.518 34.7861 138.767 34.9814C139.016 35.1816 139.141 35.46 139.141 35.8164ZM147.197 34H145.549V32.8281H145.52C145.002 33.7266 144.243 34.1758 143.242 34.1758C142.505 34.1758 141.926 33.9756 141.506 33.5752C141.091 33.1748 140.884 32.645 140.884 31.9858C140.884 30.5698 141.699 29.7446 143.33 29.5103L145.557 29.1953C145.557 28.126 145.049 27.5913 144.033 27.5913C143.14 27.5913 142.334 27.8989 141.616 28.5142V27.0273C142.407 26.5586 143.32 26.3242 144.355 26.3242C146.25 26.3242 147.197 27.2568 147.197 29.1221V34ZM145.557 30.3159L143.982 30.5356C143.494 30.5991 143.125 30.7188 142.876 30.8945C142.632 31.0654 142.51 31.3682 142.51 31.8027C142.51 32.1201 142.622 32.3813 142.847 32.5864C143.076 32.7866 143.381 32.8867 143.762 32.8867C144.28 32.8867 144.707 32.7061 145.044 32.3447C145.386 31.9785 145.557 31.5195 145.557 30.9678V30.3159ZM146.721 23.1968C146.721 23.7632 146.594 24.2271 146.34 24.5884C146.091 24.9448 145.752 25.123 145.322 25.123C144.971 25.123 144.568 25.0059 144.114 24.7715C143.733 24.5518 143.438 24.4419 143.228 24.4419C142.817 24.4419 142.612 24.7129 142.612 25.2549H141.77C141.77 24.6738 141.895 24.21 142.144 23.8633C142.393 23.5117 142.742 23.3359 143.191 23.3359C143.523 23.3359 143.906 23.4604 144.341 23.7095C144.692 23.9243 144.998 24.0317 145.256 24.0317C145.652 24.0317 145.85 23.7534 145.85 23.1968H146.721ZM152.603 34.1758C151.445 34.1758 150.52 33.8267 149.827 33.1284C149.138 32.4253 148.794 31.4951 148.794 30.3379C148.794 29.0781 149.153 28.0942 149.871 27.3862C150.593 26.6782 151.565 26.3242 152.786 26.3242C153.958 26.3242 154.871 26.6685 155.525 27.3569C156.179 28.0454 156.506 29 156.506 30.2207C156.506 31.417 156.152 32.3765 155.444 33.0991C154.741 33.8169 153.794 34.1758 152.603 34.1758ZM152.683 27.6792C152.019 27.6792 151.494 27.9111 151.108 28.375C150.723 28.8389 150.53 29.4785 150.53 30.2939C150.53 31.0801 150.725 31.7002 151.116 32.1543C151.506 32.6035 152.029 32.8281 152.683 32.8281C153.352 32.8281 153.865 32.606 154.221 32.1616C154.583 31.7173 154.763 31.085 154.763 30.2646C154.763 29.4395 154.583 28.8022 154.221 28.353C153.865 27.9038 153.352 27.6792 152.683 27.6792ZM164.102 32.894H164.072V37.4497H162.373V26.5H164.072V27.8184H164.102C164.683 26.8223 165.532 26.3242 166.65 26.3242C167.603 26.3242 168.345 26.6587 168.877 27.3276C169.409 27.9966 169.675 28.895 169.675 30.0229C169.675 31.2729 169.375 32.2739 168.774 33.0259C168.174 33.7778 167.354 34.1538 166.313 34.1538C165.356 34.1538 164.619 33.7339 164.102 32.894ZM164.058 29.9351V30.8652C164.058 31.4121 164.231 31.876 164.578 32.2568C164.929 32.6377 165.374 32.8281 165.911 32.8281C166.541 32.8281 167.034 32.584 167.39 32.0957C167.751 31.6025 167.932 30.9165 167.932 30.0376C167.932 29.3003 167.764 28.7241 167.427 28.3091C167.095 27.8892 166.643 27.6792 166.072 27.6792C165.466 27.6792 164.978 27.894 164.607 28.3237C164.241 28.7534 164.058 29.2905 164.058 29.9351ZM174.736 34.1758C173.579 34.1758 172.654 33.8267 171.96 33.1284C171.272 32.4253 170.928 31.4951 170.928 30.3379C170.928 29.0781 171.287 28.0942 172.004 27.3862C172.727 26.6782 173.699 26.3242 174.919 26.3242C176.091 26.3242 177.004 26.6685 177.659 27.3569C178.313 28.0454 178.64 29 178.64 30.2207C178.64 31.417 178.286 32.3765 177.578 33.0991C176.875 33.8169 175.928 34.1758 174.736 34.1758ZM174.817 27.6792C174.153 27.6792 173.628 27.9111 173.242 28.375C172.856 28.8389 172.664 29.4785 172.664 30.2939C172.664 31.0801 172.859 31.7002 173.25 32.1543C173.64 32.6035 174.163 32.8281 174.817 32.8281C175.486 32.8281 175.999 32.606 176.355 32.1616C176.716 31.7173 176.897 31.085 176.897 30.2646C176.897 29.4395 176.716 28.8022 176.355 28.353C175.999 27.9038 175.486 27.6792 174.817 27.6792ZM184.727 28.1187C184.521 27.9575 184.226 27.877 183.84 27.877C183.337 27.877 182.917 28.104 182.581 28.5581C182.244 29.0122 182.075 29.6299 182.075 30.4111V34H180.376V26.5H182.075V28.0454H182.104C182.271 27.5181 182.524 27.1079 182.866 26.8149C183.213 26.5171 183.599 26.3682 184.023 26.3682C184.331 26.3682 184.565 26.4146 184.727 26.5073V28.1187ZM198.877 34H196.965L196.021 31.3267H191.89L190.981 34H189.077L193.01 23.4971H194.973L198.877 34ZM195.559 29.9058L194.102 25.7163C194.058 25.5796 194.011 25.3599 193.962 25.0571H193.933C193.889 25.3354 193.84 25.5552 193.787 25.7163L192.344 29.9058H195.559ZM203.843 33.9194C203.511 34.0854 203.074 34.1685 202.532 34.1685C201.077 34.1685 200.349 33.4702 200.349 32.0737V27.833H199.097V26.5H200.349V24.7642L202.048 24.2808V26.5H203.843V27.833H202.048V31.583C202.048 32.0273 202.129 32.3447 202.29 32.5352C202.451 32.7256 202.72 32.8208 203.096 32.8208C203.384 32.8208 203.633 32.7378 203.843 32.5718V33.9194ZM206.165 24.9253C205.886 24.9253 205.647 24.835 205.447 24.6543C205.251 24.4736 205.154 24.2441 205.154 23.9658C205.154 23.6875 205.251 23.4556 205.447 23.27C205.647 23.0845 205.886 22.9917 206.165 22.9917C206.453 22.9917 206.697 23.0845 206.897 23.27C207.097 23.4556 207.197 23.6875 207.197 23.9658C207.197 24.2295 207.097 24.4565 206.897 24.647C206.697 24.8325 206.453 24.9253 206.165 24.9253ZM207.007 34H205.308V26.5H207.007V34ZM215.693 26.5L212.793 34H210.955L208.193 26.5H210.039L211.702 31.7441C211.829 32.1299 211.907 32.4668 211.936 32.7549H211.958C212.002 32.3936 212.07 32.0664 212.163 31.7734L213.906 26.5H215.693ZM220.059 34.1758C218.901 34.1758 217.976 33.8267 217.283 33.1284C216.594 32.4253 216.25 31.4951 216.25 30.3379C216.25 29.0781 216.609 28.0942 217.327 27.3862C218.049 26.6782 219.021 26.3242 220.242 26.3242C221.414 26.3242 222.327 26.6685 222.981 27.3569C223.635 28.0454 223.962 29 223.962 30.2207C223.962 31.417 223.608 32.3765 222.9 33.0991C222.197 33.8169 221.25 34.1758 220.059 34.1758ZM220.139 27.6792C219.475 27.6792 218.95 27.9111 218.564 28.375C218.179 28.8389 217.986 29.4785 217.986 30.2939C217.986 31.0801 218.181 31.7002 218.572 32.1543C218.962 32.6035 219.485 32.8281 220.139 32.8281C220.808 32.8281 221.321 32.606 221.677 32.1616C222.039 31.7173 222.219 31.085 222.219 30.2646C222.219 29.4395 222.039 28.8022 221.677 28.353C221.321 27.9038 220.808 27.6792 220.139 27.6792Z" fill="white"/>
</g>
<defs>
<linearGradient id="paint0_linear_192_402" x1="149.43" y1="-19.5225" x2="10.1597" y2="173.167" gradientUnits="userSpaceOnUse">
<stop stop-color="#E3F3FA"/>
<stop offset="1" stop-color="#FDFEFE"/>
</linearGradient>
<linearGradient id="paint1_linear_192_402" x1="151.065" y1="-6.41826" x2="144.326" y2="64.147" gradientUnits="userSpaceOnUse">
<stop offset="0.0169824" stop-color="#E3F3F4"/>
<stop offset="0.5" stop-color="#FDFEFE"/>
<stop offset="1" stop-color="#E3F3F4"/>
</linearGradient>
<clipPath id="clip0_192_402">
<rect width="320" height="240" fill="white"/>
</clipPath>
</defs>
</svg>
