<svg width="320" height="240" viewBox="0 0 320 240" fill="none" xmlns="http://www.w3.org/2000/svg">
<g clip-path="url(#clip0_192_354)">
<rect width="320" height="240" fill="url(#paint0_linear_192_354)"/>
<path d="M230 135.5C314.829 135.5 383.5 197.111 383.5 273C383.5 348.889 314.829 410.5 230 410.5C145.171 410.5 76.5 348.889 76.5 273C76.5 197.111 145.171 135.5 230 135.5Z" stroke="#CBE4F3"/>
<path d="M97 -57.5C165.813 -57.5 221.5 -7.52953 221.5 54C221.5 115.53 165.813 165.5 97 165.5C28.1875 165.5 -27.5 115.53 -27.5 54C-27.5 -7.52953 28.1875 -57.5 97 -57.5Z" stroke="#CBE4F3"/>
<path d="M22 7.5H298C304.351 7.5 309.5 12.6487 309.5 19V42.5H10.5V19C10.5 12.6487 15.6487 7.5 22 7.5Z" fill="#0079C2" stroke="url(#paint1_linear_192_354)"/>
<path d="M81.0229 25.7705C80.2808 25.7705 79.6899 25.5337 79.2505 25.0601C78.811 24.5815 78.5913 23.9443 78.5913 23.1484C78.5913 22.2793 78.8232 21.5957 79.2871 21.0977C79.7559 20.5947 80.3857 20.3433 81.1768 20.3433C81.9434 20.3433 82.5366 20.5752 82.9565 21.0391C83.3813 21.5029 83.5938 22.1548 83.5938 22.9946C83.5938 23.8345 83.3569 24.5083 82.8833 25.0161C82.4097 25.519 81.7896 25.7705 81.0229 25.7705ZM81.1255 21.3687C80.7251 21.3687 80.4077 21.5225 80.1733 21.8301C79.9438 22.1377 79.8291 22.5601 79.8291 23.0972C79.8291 23.6245 79.9414 24.0347 80.166 24.3276C80.3955 24.6206 80.708 24.7671 81.1035 24.7671C81.499 24.7671 81.8091 24.6157 82.0337 24.313C82.2583 24.0054 82.3706 23.5806 82.3706 23.0386C82.3706 22.5112 82.2583 22.1011 82.0337 21.8081C81.814 21.5151 81.5112 21.3687 81.1255 21.3687ZM88.1348 20.4971L81.3965 31.0732H80.3491L87.0801 20.4971H88.1348ZM87.1899 31.1611C86.4478 31.1611 85.8569 30.9243 85.4175 30.4507C84.978 29.9722 84.7583 29.335 84.7583 28.5391C84.7583 27.6699 84.9902 26.9863 85.4541 26.4883C85.9229 25.9854 86.5527 25.7339 87.3438 25.7339C88.1104 25.7339 88.7036 25.9658 89.1235 26.4297C89.5483 26.8936 89.7607 27.5454 89.7607 28.3853C89.7607 29.2251 89.5239 29.8989 89.0503 30.4067C88.5767 30.9097 87.9565 31.1611 87.1899 31.1611ZM87.2925 26.7593C86.8921 26.7593 86.5747 26.9131 86.3403 27.2207C86.1108 27.5283 85.9961 27.9507 85.9961 28.4878C85.9961 29.0151 86.1084 29.4253 86.333 29.7183C86.5625 30.0112 86.875 30.1577 87.2705 30.1577C87.666 30.1577 87.9761 30.0063 88.2007 29.7036C88.4253 29.396 88.5376 28.9712 88.5376 28.4292C88.5376 27.9019 88.4253 27.4917 88.2007 27.1987C87.981 26.9058 87.6782 26.7593 87.2925 26.7593ZM104.644 31H102.732L101.787 28.3267H97.6562L96.748 31H94.8438L98.7769 20.4971H100.74L104.644 31ZM101.326 26.9058L99.8682 22.7163C99.8242 22.5796 99.7778 22.3599 99.729 22.0571H99.6997C99.6558 22.3354 99.6069 22.5552 99.5532 22.7163L98.1104 26.9058H101.326ZM107.61 31H105.903V19.8965H107.61V31ZM113.154 31.1758C111.997 31.1758 111.072 30.8267 110.378 30.1284C109.69 29.4253 109.346 28.4951 109.346 27.3379C109.346 26.0781 109.705 25.0942 110.422 24.3862C111.145 23.6782 112.117 23.3242 113.337 23.3242C114.509 23.3242 115.422 23.6685 116.077 24.3569C116.731 25.0454 117.058 26 117.058 27.2207C117.058 28.417 116.704 29.3765 115.996 30.0991C115.293 30.8169 114.346 31.1758 113.154 31.1758ZM113.235 24.6792C112.571 24.6792 112.046 24.9111 111.66 25.375C111.274 25.8389 111.082 26.4785 111.082 27.2939C111.082 28.0801 111.277 28.7002 111.667 29.1543C112.058 29.6035 112.581 29.8281 113.235 29.8281C113.904 29.8281 114.417 29.606 114.773 29.1616C115.134 28.7173 115.315 28.085 115.315 27.2646C115.315 26.4395 115.134 25.8022 114.773 25.353C114.417 24.9038 113.904 24.6792 113.235 24.6792ZM124.163 30.6558C123.562 31.0024 122.852 31.1758 122.031 31.1758C120.918 31.1758 120.02 30.8291 119.336 30.1357C118.652 29.4375 118.311 28.5342 118.311 27.4258C118.311 26.1904 118.677 25.1992 119.409 24.4521C120.146 23.7002 121.13 23.3242 122.361 23.3242C123.044 23.3242 123.647 23.4438 124.17 23.6831V25.2651C123.647 24.8745 123.091 24.6792 122.5 24.6792C121.782 24.6792 121.194 24.9233 120.735 25.4116C120.276 25.895 120.046 26.5298 120.046 27.3159C120.046 28.0923 120.261 28.7051 120.691 29.1543C121.125 29.6035 121.707 29.8281 122.434 29.8281C123.044 29.8281 123.621 29.6108 124.163 29.1763V30.6558ZM131.611 31H129.963V29.8281H129.934C129.417 30.7266 128.657 31.1758 127.656 31.1758C126.919 31.1758 126.34 30.9756 125.92 30.5752C125.505 30.1748 125.298 29.645 125.298 28.9858C125.298 27.5698 126.113 26.7446 127.744 26.5103L129.971 26.1953C129.971 25.126 129.463 24.5913 128.447 24.5913C127.554 24.5913 126.748 24.8989 126.03 25.5142V24.0273C126.821 23.5586 127.734 23.3242 128.77 23.3242C130.664 23.3242 131.611 24.2568 131.611 26.1221V31ZM129.971 27.3159L128.396 27.5356C127.908 27.5991 127.539 27.7188 127.29 27.8945C127.046 28.0654 126.924 28.3682 126.924 28.8027C126.924 29.1201 127.036 29.3813 127.261 29.5864C127.49 29.7866 127.795 29.8867 128.176 29.8867C128.694 29.8867 129.121 29.7061 129.458 29.3447C129.8 28.9785 129.971 28.5195 129.971 27.9678V27.3159ZM139.06 30.6558C138.459 31.0024 137.749 31.1758 136.929 31.1758C135.815 31.1758 134.917 30.8291 134.233 30.1357C133.55 29.4375 133.208 28.5342 133.208 27.4258C133.208 26.1904 133.574 25.1992 134.307 24.4521C135.044 23.7002 136.028 23.3242 137.258 23.3242C137.942 23.3242 138.545 23.4438 139.067 23.6831V25.2651C138.545 24.8745 137.988 24.6792 137.397 24.6792C136.68 24.6792 136.091 24.9233 135.632 25.4116C135.173 25.895 134.944 26.5298 134.944 27.3159C134.944 28.0923 135.159 28.7051 135.588 29.1543C136.023 29.6035 136.604 29.8281 137.332 29.8281C137.942 29.8281 138.518 29.6108 139.06 29.1763V30.6558ZM138.452 32.8164C138.452 33.7637 137.749 34.2373 136.343 34.2373C136.113 34.2373 135.916 34.23 135.75 34.2153V33.4023C135.964 33.4316 136.138 33.4463 136.27 33.4463C136.919 33.4463 137.244 33.2461 137.244 32.8457C137.244 32.4844 136.948 32.3037 136.357 32.3037C136.309 32.3037 136.213 32.3135 136.072 32.333V31H137.068V31.6885C137.493 31.6885 137.83 31.7861 138.079 31.9814C138.328 32.1816 138.452 32.46 138.452 32.8164ZM146.509 31H144.861V29.8281H144.832C144.314 30.7266 143.555 31.1758 142.554 31.1758C141.816 31.1758 141.238 30.9756 140.818 30.5752C140.403 30.1748 140.195 29.645 140.195 28.9858C140.195 27.5698 141.011 26.7446 142.642 26.5103L144.868 26.1953C144.868 25.126 144.36 24.5913 143.345 24.5913C142.451 24.5913 141.646 24.8989 140.928 25.5142V24.0273C141.719 23.5586 142.632 23.3242 143.667 23.3242C145.562 23.3242 146.509 24.2568 146.509 26.1221V31ZM144.868 27.3159L143.293 27.5356C142.805 27.5991 142.437 27.7188 142.188 27.8945C141.943 28.0654 141.821 28.3682 141.821 28.8027C141.821 29.1201 141.934 29.3813 142.158 29.5864C142.388 29.7866 142.693 29.8867 143.074 29.8867C143.591 29.8867 144.019 29.7061 144.355 29.3447C144.697 28.9785 144.868 28.5195 144.868 27.9678V27.3159ZM146.033 20.1968C146.033 20.7632 145.906 21.2271 145.652 21.5884C145.403 21.9448 145.063 22.123 144.634 22.123C144.282 22.123 143.879 22.0059 143.425 21.7715C143.044 21.5518 142.749 21.4419 142.539 21.4419C142.129 21.4419 141.924 21.7129 141.924 22.2549H141.082C141.082 21.6738 141.206 21.21 141.455 20.8633C141.704 20.5117 142.053 20.3359 142.502 20.3359C142.834 20.3359 143.218 20.4604 143.652 20.7095C144.004 20.9243 144.309 21.0317 144.568 21.0317C144.963 21.0317 145.161 20.7534 145.161 20.1968H146.033ZM151.914 31.1758C150.757 31.1758 149.832 30.8267 149.138 30.1284C148.45 29.4253 148.105 28.4951 148.105 27.3379C148.105 26.0781 148.464 25.0942 149.182 24.3862C149.905 23.6782 150.876 23.3242 152.097 23.3242C153.269 23.3242 154.182 23.6685 154.836 24.3569C155.491 25.0454 155.818 26 155.818 27.2207C155.818 28.417 155.464 29.3765 154.756 30.0991C154.053 30.8169 153.105 31.1758 151.914 31.1758ZM151.995 24.6792C151.331 24.6792 150.806 24.9111 150.42 25.375C150.034 25.8389 149.841 26.4785 149.841 27.2939C149.841 28.0801 150.037 28.7002 150.427 29.1543C150.818 29.6035 151.34 29.8281 151.995 29.8281C152.664 29.8281 153.176 29.606 153.533 29.1616C153.894 28.7173 154.075 28.085 154.075 27.2646C154.075 26.4395 153.894 25.8022 153.533 25.353C153.176 24.9038 152.664 24.6792 151.995 24.6792ZM163.413 29.894H163.384V34.4497H161.685V23.5H163.384V24.8184H163.413C163.994 23.8223 164.844 23.3242 165.962 23.3242C166.914 23.3242 167.656 23.6587 168.188 24.3276C168.721 24.9966 168.987 25.895 168.987 27.0229C168.987 28.2729 168.687 29.2739 168.086 30.0259C167.485 30.7778 166.665 31.1538 165.625 31.1538C164.668 31.1538 163.931 30.7339 163.413 29.894ZM163.369 26.9351V27.8652C163.369 28.4121 163.542 28.876 163.889 29.2568C164.241 29.6377 164.685 29.8281 165.222 29.8281C165.852 29.8281 166.345 29.584 166.702 29.0957C167.063 28.6025 167.244 27.9165 167.244 27.0376C167.244 26.3003 167.075 25.7241 166.738 25.3091C166.406 24.8892 165.955 24.6792 165.383 24.6792C164.778 24.6792 164.29 24.894 163.918 25.3237C163.552 25.7534 163.369 26.2905 163.369 26.9351ZM174.048 31.1758C172.891 31.1758 171.965 30.8267 171.272 30.1284C170.583 29.4253 170.239 28.4951 170.239 27.3379C170.239 26.0781 170.598 25.0942 171.316 24.3862C172.039 23.6782 173.01 23.3242 174.231 23.3242C175.403 23.3242 176.316 23.6685 176.97 24.3569C177.625 25.0454 177.952 26 177.952 27.2207C177.952 28.417 177.598 29.3765 176.89 30.0991C176.187 30.8169 175.239 31.1758 174.048 31.1758ZM174.128 24.6792C173.464 24.6792 172.939 24.9111 172.554 25.375C172.168 25.8389 171.975 26.4785 171.975 27.2939C171.975 28.0801 172.17 28.7002 172.561 29.1543C172.952 29.6035 173.474 29.8281 174.128 29.8281C174.797 29.8281 175.31 29.606 175.667 29.1616C176.028 28.7173 176.208 28.085 176.208 27.2646C176.208 26.4395 176.028 25.8022 175.667 25.353C175.31 24.9038 174.797 24.6792 174.128 24.6792ZM184.038 25.1187C183.833 24.9575 183.538 24.877 183.152 24.877C182.649 24.877 182.229 25.104 181.892 25.5581C181.555 26.0122 181.387 26.6299 181.387 27.4111V31H179.688V23.5H181.387V25.0454H181.416C181.582 24.5181 181.836 24.1079 182.178 23.8149C182.524 23.5171 182.91 23.3682 183.335 23.3682C183.643 23.3682 183.877 23.4146 184.038 23.5073V25.1187ZM196.885 30.5605C196.094 30.9707 195.11 31.1758 193.933 31.1758C192.41 31.1758 191.189 30.6948 190.271 29.7329C189.353 28.771 188.894 27.5088 188.894 25.9463C188.894 24.2666 189.409 22.9092 190.439 21.874C191.475 20.8389 192.781 20.3213 194.358 20.3213C195.374 20.3213 196.216 20.4653 196.885 20.7534V22.4819C196.177 22.062 195.396 21.8521 194.541 21.8521C193.403 21.8521 192.48 22.2158 191.772 22.9434C191.069 23.6709 190.718 24.6426 190.718 25.8584C190.718 27.0156 191.047 27.9385 191.707 28.627C192.366 29.3105 193.232 29.6523 194.307 29.6523C195.298 29.6523 196.157 29.418 196.885 28.9492V30.5605ZM204.443 31H202.795V29.8281H202.766C202.249 30.7266 201.489 31.1758 200.488 31.1758C199.751 31.1758 199.172 30.9756 198.752 30.5752C198.337 30.1748 198.13 29.645 198.13 28.9858C198.13 27.5698 198.945 26.7446 200.576 26.5103L202.803 26.1953C202.803 25.126 202.295 24.5913 201.279 24.5913C200.386 24.5913 199.58 24.8989 198.862 25.5142V24.0273C199.653 23.5586 200.566 23.3242 201.602 23.3242C203.496 23.3242 204.443 24.2568 204.443 26.1221V31ZM202.803 27.3159L201.228 27.5356C200.74 27.5991 200.371 27.7188 200.122 27.8945C199.878 28.0654 199.756 28.3682 199.756 28.8027C199.756 29.1201 199.868 29.3813 200.093 29.5864C200.322 29.7866 200.627 29.8867 201.008 29.8867C201.526 29.8867 201.953 29.7061 202.29 29.3447C202.632 28.9785 202.803 28.5195 202.803 27.9678V27.3159ZM210.874 25.1187C210.669 24.9575 210.374 24.877 209.988 24.877C209.485 24.877 209.065 25.104 208.728 25.5581C208.391 26.0122 208.223 26.6299 208.223 27.4111V31H206.523V23.5H208.223V25.0454H208.252C208.418 24.5181 208.672 24.1079 209.014 23.8149C209.36 23.5171 209.746 23.3682 210.171 23.3682C210.479 23.3682 210.713 23.4146 210.874 23.5073V25.1187ZM216.47 30.9194C216.138 31.0854 215.701 31.1685 215.159 31.1685C213.704 31.1685 212.976 30.4702 212.976 29.0737V24.833H211.724V23.5H212.976V21.7642L214.675 21.2808V23.5H216.47V24.833H214.675V28.583C214.675 29.0273 214.756 29.3447 214.917 29.5352C215.078 29.7256 215.347 29.8208 215.723 29.8208C216.011 29.8208 216.26 29.7378 216.47 29.5718V30.9194ZM224.197 27.7114H219.084C219.104 28.4048 219.316 28.9395 219.722 29.3154C220.132 29.6914 220.693 29.8794 221.406 29.8794C222.207 29.8794 222.942 29.6401 223.611 29.1616V30.5312C222.927 30.9609 222.024 31.1758 220.901 31.1758C219.797 31.1758 218.931 30.8364 218.301 30.1577C217.676 29.4741 217.363 28.5146 217.363 27.2793C217.363 26.1123 217.708 25.1626 218.396 24.4302C219.089 23.6929 219.949 23.3242 220.974 23.3242C222 23.3242 222.793 23.6538 223.354 24.313C223.916 24.9722 224.197 25.8877 224.197 27.0596V27.7114ZM222.556 26.5103C222.551 25.8999 222.407 25.4263 222.124 25.0894C221.841 24.7476 221.45 24.5767 220.952 24.5767C220.464 24.5767 220.049 24.7549 219.707 25.1113C219.37 25.4678 219.163 25.9341 219.084 26.5103H222.556ZM226.672 21.9253C226.394 21.9253 226.155 21.835 225.955 21.6543C225.759 21.4736 225.662 21.2441 225.662 20.9658C225.662 20.6875 225.759 20.4556 225.955 20.27C226.155 20.0845 226.394 19.9917 226.672 19.9917C226.96 19.9917 227.205 20.0845 227.405 20.27C227.605 20.4556 227.705 20.6875 227.705 20.9658C227.705 21.2295 227.605 21.4565 227.405 21.647C227.205 21.8325 226.96 21.9253 226.672 21.9253ZM227.515 31H225.815V23.5H227.515V31ZM234.092 25.1187C233.887 24.9575 233.591 24.877 233.206 24.877C232.703 24.877 232.283 25.104 231.946 25.5581C231.609 26.0122 231.44 26.6299 231.44 27.4111V31H229.741V23.5H231.44V25.0454H231.47C231.636 24.5181 231.89 24.1079 232.231 23.8149C232.578 23.5171 232.964 23.3682 233.389 23.3682C233.696 23.3682 233.931 23.4146 234.092 23.5073V25.1187ZM241.05 31H239.402V29.8281H239.373C238.855 30.7266 238.096 31.1758 237.095 31.1758C236.357 31.1758 235.779 30.9756 235.359 30.5752C234.944 30.1748 234.736 29.645 234.736 28.9858C234.736 27.5698 235.552 26.7446 237.183 26.5103L239.409 26.1953C239.409 25.126 238.901 24.5913 237.886 24.5913C236.992 24.5913 236.187 24.8989 235.469 25.5142V24.0273C236.26 23.5586 237.173 23.3242 238.208 23.3242C240.103 23.3242 241.05 24.2568 241.05 26.1221V31ZM239.409 27.3159L237.834 27.5356C237.346 27.5991 236.978 27.7188 236.729 27.8945C236.484 28.0654 236.362 28.3682 236.362 28.8027C236.362 29.1201 236.475 29.3813 236.699 29.5864C236.929 29.7866 237.234 29.8867 237.615 29.8867C238.132 29.8867 238.56 29.7061 238.896 29.3447C239.238 28.9785 239.409 28.5195 239.409 27.9678V27.3159Z" fill="white"/>
<rect opacity="0.7" x="10.5" y="43.5" width="299" height="186" fill="white" stroke="#CCD8E6"/>
</g>
<defs>
<linearGradient id="paint0_linear_192_354" x1="149.43" y1="-19.5225" x2="10.1597" y2="173.167" gradientUnits="userSpaceOnUse">
<stop stop-color="#E3F3FA"/>
<stop offset="1" stop-color="#FDFEFE"/>
</linearGradient>
<linearGradient id="paint1_linear_192_354" x1="151.065" y1="-9.41826" x2="144.326" y2="61.147" gradientUnits="userSpaceOnUse">
<stop offset="0.0169824" stop-color="#E3F3F4"/>
<stop offset="0.5" stop-color="#FDFEFE"/>
<stop offset="1" stop-color="#E3F3F4"/>
</linearGradient>
<clipPath id="clip0_192_354">
<rect width="320" height="240" fill="white"/>
</clipPath>
</defs>
</svg>
