<svg width="320" height="240" viewBox="0 0 320 240" fill="none" xmlns="http://www.w3.org/2000/svg">
<g clip-path="url(#clip0_192_338)">
<rect width="320" height="240" fill="url(#paint0_linear_192_338)"/>
<path d="M230 135.5C314.829 135.5 383.5 197.111 383.5 273C383.5 348.889 314.829 410.5 230 410.5C145.171 410.5 76.5 348.889 76.5 273C76.5 197.111 145.171 135.5 230 135.5Z" stroke="#CBE4F3"/>
<path d="M97 -57.5C165.813 -57.5 221.5 -7.52953 221.5 54C221.5 115.53 165.813 165.5 97 165.5C28.1875 165.5 -27.5 115.53 -27.5 54C-27.5 -7.52953 28.1875 -57.5 97 -57.5Z" stroke="#CBE4F3"/>
<path d="M22 7.5H298C304.351 7.5 309.5 12.6487 309.5 19V42.5H10.5V19C10.5 12.6487 15.6487 7.5 22 7.5Z" fill="#0079C2" stroke="url(#paint1_linear_192_338)"/>
<path d="M74.3286 25.7705C73.5864 25.7705 72.9956 25.5337 72.5562 25.0601C72.1167 24.5815 71.897 23.9443 71.897 23.1484C71.897 22.2793 72.1289 21.5957 72.5928 21.0977C73.0615 20.5947 73.6914 20.3433 74.4824 20.3433C75.249 20.3433 75.8423 20.5752 76.2622 21.0391C76.687 21.5029 76.8994 22.1548 76.8994 22.9946C76.8994 23.8345 76.6626 24.5083 76.189 25.0161C75.7153 25.519 75.0952 25.7705 74.3286 25.7705ZM74.4312 21.3687C74.0308 21.3687 73.7134 21.5225 73.479 21.8301C73.2495 22.1377 73.1348 22.5601 73.1348 23.0972C73.1348 23.6245 73.2471 24.0347 73.4717 24.3276C73.7012 24.6206 74.0137 24.7671 74.4092 24.7671C74.8047 24.7671 75.1147 24.6157 75.3394 24.313C75.564 24.0054 75.6763 23.5806 75.6763 23.0386C75.6763 22.5112 75.564 22.1011 75.3394 21.8081C75.1196 21.5151 74.8169 21.3687 74.4312 21.3687ZM81.4404 20.4971L74.7021 31.0732H73.6548L80.3857 20.4971H81.4404ZM80.4956 31.1611C79.7534 31.1611 79.1626 30.9243 78.7231 30.4507C78.2837 29.9722 78.064 29.335 78.064 28.5391C78.064 27.6699 78.2959 26.9863 78.7598 26.4883C79.2285 25.9854 79.8584 25.7339 80.6494 25.7339C81.416 25.7339 82.0093 25.9658 82.4292 26.4297C82.854 26.8936 83.0664 27.5454 83.0664 28.3853C83.0664 29.2251 82.8296 29.8989 82.356 30.4067C81.8823 30.9097 81.2622 31.1611 80.4956 31.1611ZM80.5981 26.7593C80.1978 26.7593 79.8804 26.9131 79.646 27.2207C79.4165 27.5283 79.3018 27.9507 79.3018 28.4878C79.3018 29.0151 79.4141 29.4253 79.6387 29.7183C79.8682 30.0112 80.1807 30.1577 80.5762 30.1577C80.9717 30.1577 81.2817 30.0063 81.5063 29.7036C81.731 29.396 81.8433 28.9712 81.8433 28.4292C81.8433 27.9019 81.731 27.4917 81.5063 27.1987C81.2866 26.9058 80.9839 26.7593 80.5981 26.7593ZM97.9492 31H96.0376L95.0928 28.3267H90.9619L90.0537 31H88.1494L92.0825 20.4971H94.0454L97.9492 31ZM94.6313 26.9058L93.1738 22.7163C93.1299 22.5796 93.0835 22.3599 93.0347 22.0571H93.0054C92.9614 22.3354 92.9126 22.5552 92.8589 22.7163L91.416 26.9058H94.6313ZM100.916 31H99.209V19.8965H100.916V31ZM106.46 31.1758C105.303 31.1758 104.377 30.8267 103.684 30.1284C102.996 29.4253 102.651 28.4951 102.651 27.3379C102.651 26.0781 103.01 25.0942 103.728 24.3862C104.451 23.6782 105.422 23.3242 106.643 23.3242C107.815 23.3242 108.728 23.6685 109.382 24.3569C110.037 25.0454 110.364 26 110.364 27.2207C110.364 28.417 110.01 29.3765 109.302 30.0991C108.599 30.8169 107.651 31.1758 106.46 31.1758ZM106.541 24.6792C105.876 24.6792 105.352 24.9111 104.966 25.375C104.58 25.8389 104.387 26.4785 104.387 27.2939C104.387 28.0801 104.583 28.7002 104.973 29.1543C105.364 29.6035 105.886 29.8281 106.541 29.8281C107.209 29.8281 107.722 29.606 108.079 29.1616C108.44 28.7173 108.621 28.085 108.621 27.2646C108.621 26.4395 108.44 25.8022 108.079 25.353C107.722 24.9038 107.209 24.6792 106.541 24.6792ZM117.468 30.6558C116.868 31.0024 116.157 31.1758 115.337 31.1758C114.224 31.1758 113.325 30.8291 112.642 30.1357C111.958 29.4375 111.616 28.5342 111.616 27.4258C111.616 26.1904 111.982 25.1992 112.715 24.4521C113.452 23.7002 114.436 23.3242 115.667 23.3242C116.35 23.3242 116.953 23.4438 117.476 23.6831V25.2651C116.953 24.8745 116.396 24.6792 115.806 24.6792C115.088 24.6792 114.5 24.9233 114.041 25.4116C113.582 25.895 113.352 26.5298 113.352 27.3159C113.352 28.0923 113.567 28.7051 113.997 29.1543C114.431 29.6035 115.012 29.8281 115.74 29.8281C116.35 29.8281 116.926 29.6108 117.468 29.1763V30.6558ZM124.917 31H123.269V29.8281H123.24C122.722 30.7266 121.963 31.1758 120.962 31.1758C120.225 31.1758 119.646 30.9756 119.226 30.5752C118.811 30.1748 118.604 29.645 118.604 28.9858C118.604 27.5698 119.419 26.7446 121.05 26.5103L123.276 26.1953C123.276 25.126 122.769 24.5913 121.753 24.5913C120.859 24.5913 120.054 24.8989 119.336 25.5142V24.0273C120.127 23.5586 121.04 23.3242 122.075 23.3242C123.97 23.3242 124.917 24.2568 124.917 26.1221V31ZM123.276 27.3159L121.702 27.5356C121.213 27.5991 120.845 27.7188 120.596 27.8945C120.352 28.0654 120.229 28.3682 120.229 28.8027C120.229 29.1201 120.342 29.3813 120.566 29.5864C120.796 29.7866 121.101 29.8867 121.482 29.8867C122 29.8867 122.427 29.7061 122.764 29.3447C123.105 28.9785 123.276 28.5195 123.276 27.9678V27.3159ZM132.366 30.6558C131.765 31.0024 131.055 31.1758 130.234 31.1758C129.121 31.1758 128.223 30.8291 127.539 30.1357C126.855 29.4375 126.514 28.5342 126.514 27.4258C126.514 26.1904 126.88 25.1992 127.612 24.4521C128.35 23.7002 129.333 23.3242 130.564 23.3242C131.248 23.3242 131.851 23.4438 132.373 23.6831V25.2651C131.851 24.8745 131.294 24.6792 130.703 24.6792C129.985 24.6792 129.397 24.9233 128.938 25.4116C128.479 25.895 128.25 26.5298 128.25 27.3159C128.25 28.0923 128.464 28.7051 128.894 29.1543C129.329 29.6035 129.91 29.8281 130.637 29.8281C131.248 29.8281 131.824 29.6108 132.366 29.1763V30.6558ZM131.758 32.8164C131.758 33.7637 131.055 34.2373 129.648 34.2373C129.419 34.2373 129.221 34.23 129.055 34.2153V33.4023C129.27 33.4316 129.443 33.4463 129.575 33.4463C130.225 33.4463 130.549 33.2461 130.549 32.8457C130.549 32.4844 130.254 32.3037 129.663 32.3037C129.614 32.3037 129.519 32.3135 129.377 32.333V31H130.374V31.6885C130.798 31.6885 131.135 31.7861 131.384 31.9814C131.633 32.1816 131.758 32.46 131.758 32.8164ZM139.814 31H138.167V29.8281H138.137C137.62 30.7266 136.86 31.1758 135.859 31.1758C135.122 31.1758 134.543 30.9756 134.124 30.5752C133.708 30.1748 133.501 29.645 133.501 28.9858C133.501 27.5698 134.316 26.7446 135.947 26.5103L138.174 26.1953C138.174 25.126 137.666 24.5913 136.65 24.5913C135.757 24.5913 134.951 24.8989 134.233 25.5142V24.0273C135.024 23.5586 135.938 23.3242 136.973 23.3242C138.867 23.3242 139.814 24.2568 139.814 26.1221V31ZM138.174 27.3159L136.599 27.5356C136.111 27.5991 135.742 27.7188 135.493 27.8945C135.249 28.0654 135.127 28.3682 135.127 28.8027C135.127 29.1201 135.239 29.3813 135.464 29.5864C135.693 29.7866 135.999 29.8867 136.379 29.8867C136.897 29.8867 137.324 29.7061 137.661 29.3447C138.003 28.9785 138.174 28.5195 138.174 27.9678V27.3159ZM139.338 20.1968C139.338 20.7632 139.211 21.2271 138.958 21.5884C138.708 21.9448 138.369 22.123 137.939 22.123C137.588 22.123 137.185 22.0059 136.731 21.7715C136.35 21.5518 136.055 21.4419 135.845 21.4419C135.435 21.4419 135.229 21.7129 135.229 22.2549H134.387C134.387 21.6738 134.512 21.21 134.761 20.8633C135.01 20.5117 135.359 20.3359 135.808 20.3359C136.14 20.3359 136.523 20.4604 136.958 20.7095C137.31 20.9243 137.615 21.0317 137.874 21.0317C138.269 21.0317 138.467 20.7534 138.467 20.1968H139.338ZM145.22 31.1758C144.062 31.1758 143.137 30.8267 142.444 30.1284C141.755 29.4253 141.411 28.4951 141.411 27.3379C141.411 26.0781 141.77 25.0942 142.488 24.3862C143.21 23.6782 144.182 23.3242 145.403 23.3242C146.575 23.3242 147.488 23.6685 148.142 24.3569C148.796 25.0454 149.124 26 149.124 27.2207C149.124 28.417 148.77 29.3765 148.062 30.0991C147.358 30.8169 146.411 31.1758 145.22 31.1758ZM145.3 24.6792C144.636 24.6792 144.111 24.9111 143.726 25.375C143.34 25.8389 143.147 26.4785 143.147 27.2939C143.147 28.0801 143.342 28.7002 143.733 29.1543C144.124 29.6035 144.646 29.8281 145.3 29.8281C145.969 29.8281 146.482 29.606 146.838 29.1616C147.2 28.7173 147.38 28.085 147.38 27.2646C147.38 26.4395 147.2 25.8022 146.838 25.353C146.482 24.9038 145.969 24.6792 145.3 24.6792ZM156.719 29.894H156.689V34.4497H154.99V23.5H156.689V24.8184H156.719C157.3 23.8223 158.149 23.3242 159.268 23.3242C160.22 23.3242 160.962 23.6587 161.494 24.3276C162.026 24.9966 162.292 25.895 162.292 27.0229C162.292 28.2729 161.992 29.2739 161.392 30.0259C160.791 30.7778 159.971 31.1538 158.931 31.1538C157.974 31.1538 157.236 30.7339 156.719 29.894ZM156.675 26.9351V27.8652C156.675 28.4121 156.848 28.876 157.195 29.2568C157.546 29.6377 157.991 29.8281 158.528 29.8281C159.158 29.8281 159.651 29.584 160.007 29.0957C160.369 28.6025 160.549 27.9165 160.549 27.0376C160.549 26.3003 160.381 25.7241 160.044 25.3091C159.712 24.8892 159.26 24.6792 158.689 24.6792C158.083 24.6792 157.595 24.894 157.224 25.3237C156.858 25.7534 156.675 26.2905 156.675 26.9351ZM167.354 31.1758C166.196 31.1758 165.271 30.8267 164.578 30.1284C163.889 29.4253 163.545 28.4951 163.545 27.3379C163.545 26.0781 163.904 25.0942 164.622 24.3862C165.344 23.6782 166.316 23.3242 167.537 23.3242C168.708 23.3242 169.622 23.6685 170.276 24.3569C170.93 25.0454 171.257 26 171.257 27.2207C171.257 28.417 170.903 29.3765 170.195 30.0991C169.492 30.8169 168.545 31.1758 167.354 31.1758ZM167.434 24.6792C166.77 24.6792 166.245 24.9111 165.859 25.375C165.474 25.8389 165.281 26.4785 165.281 27.2939C165.281 28.0801 165.476 28.7002 165.867 29.1543C166.257 29.6035 166.78 29.8281 167.434 29.8281C168.103 29.8281 168.616 29.606 168.972 29.1616C169.333 28.7173 169.514 28.085 169.514 27.2646C169.514 26.4395 169.333 25.8022 168.972 25.353C168.616 24.9038 168.103 24.6792 167.434 24.6792ZM177.344 25.1187C177.139 24.9575 176.843 24.877 176.458 24.877C175.955 24.877 175.535 25.104 175.198 25.5581C174.861 26.0122 174.692 26.6299 174.692 27.4111V31H172.993V23.5H174.692V25.0454H174.722C174.888 24.5181 175.142 24.1079 175.483 23.8149C175.83 23.5171 176.216 23.3682 176.641 23.3682C176.948 23.3682 177.183 23.4146 177.344 23.5073V25.1187ZM188.762 31H182.866V20.4971H188.528V21.9766H184.609V24.9502H188.22V26.4224H184.609V29.5278H188.762V31ZM189.971 30.7656V29.1909C190.605 29.6743 191.306 29.916 192.073 29.916C193.098 29.916 193.611 29.6133 193.611 29.0078C193.611 28.8369 193.567 28.6929 193.479 28.5757C193.391 28.4536 193.271 28.3462 193.12 28.2534C192.974 28.1606 192.798 28.0776 192.593 28.0044C192.393 27.9312 192.168 27.8481 191.919 27.7554C191.611 27.6333 191.333 27.5039 191.084 27.3672C190.84 27.2305 190.635 27.0767 190.469 26.9058C190.308 26.73 190.186 26.5322 190.103 26.3125C190.02 26.0928 189.978 25.8364 189.978 25.5435C189.978 25.1821 190.063 24.8647 190.234 24.5913C190.405 24.313 190.635 24.0811 190.923 23.8955C191.211 23.7051 191.538 23.5635 191.904 23.4707C192.271 23.373 192.649 23.3242 193.04 23.3242C193.733 23.3242 194.353 23.4292 194.9 23.6392V25.126C194.373 24.7646 193.767 24.584 193.083 24.584C192.869 24.584 192.673 24.606 192.498 24.6499C192.327 24.6938 192.18 24.7549 192.058 24.833C191.936 24.9111 191.841 25.0063 191.772 25.1187C191.704 25.2261 191.67 25.3457 191.67 25.4775C191.67 25.6387 191.704 25.7754 191.772 25.8877C191.841 26 191.941 26.1001 192.073 26.188C192.209 26.271 192.371 26.3491 192.556 26.4224C192.747 26.4907 192.964 26.5664 193.208 26.6494C193.53 26.7812 193.818 26.9155 194.072 27.0522C194.331 27.189 194.551 27.3452 194.731 27.521C194.912 27.6919 195.051 27.8921 195.149 28.1216C195.247 28.3462 195.295 28.6147 195.295 28.9272C195.295 29.3081 195.208 29.6401 195.032 29.9233C194.856 30.2065 194.622 30.4409 194.329 30.6265C194.036 30.812 193.696 30.9487 193.311 31.0366C192.93 31.1294 192.527 31.1758 192.102 31.1758C191.282 31.1758 190.571 31.0391 189.971 30.7656ZM200.869 30.9194C200.537 31.0854 200.1 31.1685 199.558 31.1685C198.103 31.1685 197.375 30.4702 197.375 29.0737V24.833H196.123V23.5H197.375V21.7642L199.075 21.2808V23.5H200.869V24.833H199.075V28.583C199.075 29.0273 199.155 29.3447 199.316 29.5352C199.478 29.7256 199.746 29.8208 200.122 29.8208C200.41 29.8208 200.659 29.7378 200.869 29.5718V30.9194ZM206.685 25.1187C206.479 24.9575 206.184 24.877 205.798 24.877C205.295 24.877 204.875 25.104 204.539 25.5581C204.202 26.0122 204.033 26.6299 204.033 27.4111V31H202.334V23.5H204.033V25.0454H204.062C204.229 24.5181 204.482 24.1079 204.824 23.8149C205.171 23.5171 205.557 23.3682 205.981 23.3682C206.289 23.3682 206.523 23.4146 206.685 23.5073V25.1187ZM213.643 31H211.995V29.8281H211.965C211.448 30.7266 210.688 31.1758 209.688 31.1758C208.95 31.1758 208.372 30.9756 207.952 30.5752C207.537 30.1748 207.329 29.645 207.329 28.9858C207.329 27.5698 208.145 26.7446 209.775 26.5103L212.002 26.1953C212.002 25.126 211.494 24.5913 210.479 24.5913C209.585 24.5913 208.779 24.8989 208.062 25.5142V24.0273C208.853 23.5586 209.766 23.3242 210.801 23.3242C212.695 23.3242 213.643 24.2568 213.643 26.1221V31ZM212.002 27.3159L210.427 27.5356C209.939 27.5991 209.57 27.7188 209.321 27.8945C209.077 28.0654 208.955 28.3682 208.955 28.8027C208.955 29.1201 209.067 29.3813 209.292 29.5864C209.521 29.7866 209.827 29.8867 210.208 29.8867C210.725 29.8867 211.152 29.7061 211.489 29.3447C211.831 28.9785 212.002 28.5195 212.002 27.9678V27.3159ZM219.678 30.9194C219.346 31.0854 218.909 31.1685 218.367 31.1685C216.912 31.1685 216.184 30.4702 216.184 29.0737V24.833H214.932V23.5H216.184V21.7642L217.883 21.2808V23.5H219.678V24.833H217.883V28.583C217.883 29.0273 217.964 29.3447 218.125 29.5352C218.286 29.7256 218.555 29.8208 218.931 29.8208C219.219 29.8208 219.468 29.7378 219.678 29.5718V30.9194ZM227.405 27.7114H222.292C222.312 28.4048 222.524 28.9395 222.93 29.3154C223.34 29.6914 223.901 29.8794 224.614 29.8794C225.415 29.8794 226.15 29.6401 226.819 29.1616V30.5312C226.135 30.9609 225.232 31.1758 224.109 31.1758C223.005 31.1758 222.139 30.8364 221.509 30.1577C220.884 29.4741 220.571 28.5146 220.571 27.2793C220.571 26.1123 220.916 25.1626 221.604 24.4302C222.297 23.6929 223.157 23.3242 224.182 23.3242C225.208 23.3242 226.001 23.6538 226.562 24.313C227.124 24.9722 227.405 25.8877 227.405 27.0596V27.7114ZM225.764 26.5103C225.759 25.8999 225.615 25.4263 225.332 25.0894C225.049 24.7476 224.658 24.5767 224.16 24.5767C223.672 24.5767 223.257 24.7549 222.915 25.1113C222.578 25.4678 222.371 25.9341 222.292 26.5103H225.764ZM226.27 19.6768L224.175 22.0791H222.915L224.688 19.6768H226.27ZM235.85 30.3994C235.85 33.1533 234.465 34.5303 231.697 34.5303C230.72 34.5303 229.868 34.3667 229.141 34.0396V32.4868C229.961 32.9556 230.74 33.1899 231.477 33.1899C233.259 33.1899 234.15 32.3135 234.15 30.5605V29.7402H234.121C233.56 30.6973 232.715 31.1758 231.587 31.1758C230.674 31.1758 229.937 30.8438 229.375 30.1797C228.818 29.5107 228.54 28.6147 228.54 27.4917C228.54 26.2173 228.84 25.2041 229.441 24.4521C230.042 23.7002 230.867 23.3242 231.917 23.3242C232.908 23.3242 233.643 23.7295 234.121 24.54H234.15V23.5H235.85V30.3994ZM234.165 27.5649V26.5908C234.165 26.0635 233.989 25.6143 233.638 25.2432C233.291 24.8672 232.856 24.6792 232.334 24.6792C231.689 24.6792 231.184 24.9185 230.818 25.397C230.457 25.8706 230.276 26.5347 230.276 27.3892C230.276 28.1265 230.449 28.7173 230.796 29.1616C231.147 29.6011 231.611 29.8208 232.188 29.8208C232.773 29.8208 233.25 29.6108 233.616 29.1909C233.982 28.7661 234.165 28.2241 234.165 27.5649ZM238.918 21.9253C238.64 21.9253 238.401 21.835 238.201 21.6543C238.005 21.4736 237.908 21.2441 237.908 20.9658C237.908 20.6875 238.005 20.4556 238.201 20.27C238.401 20.0845 238.64 19.9917 238.918 19.9917C239.207 19.9917 239.451 20.0845 239.651 20.27C239.851 20.4556 239.951 20.6875 239.951 20.9658C239.951 21.2295 239.851 21.4565 239.651 21.647C239.451 21.8325 239.207 21.9253 238.918 21.9253ZM239.761 31H238.062V23.5H239.761V31ZM247.744 31H246.096V29.8281H246.067C245.549 30.7266 244.79 31.1758 243.789 31.1758C243.052 31.1758 242.473 30.9756 242.053 30.5752C241.638 30.1748 241.431 29.645 241.431 28.9858C241.431 27.5698 242.246 26.7446 243.877 26.5103L246.104 26.1953C246.104 25.126 245.596 24.5913 244.58 24.5913C243.687 24.5913 242.881 24.8989 242.163 25.5142V24.0273C242.954 23.5586 243.867 23.3242 244.902 23.3242C246.797 23.3242 247.744 24.2568 247.744 26.1221V31ZM246.104 27.3159L244.529 27.5356C244.041 27.5991 243.672 27.7188 243.423 27.8945C243.179 28.0654 243.057 28.3682 243.057 28.8027C243.057 29.1201 243.169 29.3813 243.394 29.5864C243.623 29.7866 243.928 29.8867 244.309 29.8867C244.827 29.8867 245.254 29.7061 245.591 29.3447C245.933 28.9785 246.104 28.5195 246.104 27.9678V27.3159Z" fill="white"/>
<rect opacity="0.7" x="10.5" y="43.5" width="299" height="186" fill="white" stroke="#CCD8E6"/>
</g>
<defs>
<linearGradient id="paint0_linear_192_338" x1="149.43" y1="-19.5225" x2="10.1597" y2="173.167" gradientUnits="userSpaceOnUse">
<stop stop-color="#E3F3FA"/>
<stop offset="1" stop-color="#FDFEFE"/>
</linearGradient>
<linearGradient id="paint1_linear_192_338" x1="151.065" y1="-9.41826" x2="144.326" y2="61.147" gradientUnits="userSpaceOnUse">
<stop offset="0.0169824" stop-color="#E3F3F4"/>
<stop offset="0.5" stop-color="#FDFEFE"/>
<stop offset="1" stop-color="#E3F3F4"/>
</linearGradient>
<clipPath id="clip0_192_338">
<rect width="320" height="240" fill="white"/>
</clipPath>
</defs>
</svg>
