<svg width="320" height="240" viewBox="0 0 320 240" fill="none" xmlns="http://www.w3.org/2000/svg">
<g clip-path="url(#clip0_192_346)">
<rect width="320" height="240" fill="url(#paint0_linear_192_346)"/>
<path d="M230 135.5C314.829 135.5 383.5 197.111 383.5 273C383.5 348.889 314.829 410.5 230 410.5C145.171 410.5 76.5 348.889 76.5 273C76.5 197.111 145.171 135.5 230 135.5Z" stroke="#CBE4F3"/>
<path d="M97 -57.5C165.813 -57.5 221.5 -7.52953 221.5 54C221.5 115.53 165.813 165.5 97 165.5C28.1875 165.5 -27.5 115.53 -27.5 54C-27.5 -7.52953 28.1875 -57.5 97 -57.5Z" stroke="#CBE4F3"/>
<path d="M22 7.5H298C304.351 7.5 309.5 12.6487 309.5 19V42.5H10.5V19C10.5 12.6487 15.6487 7.5 22 7.5Z" fill="#0079C2" stroke="url(#paint1_linear_192_346)"/>
<path d="M78.6426 20.4971L74.8706 31H72.9224L69.2163 20.4971H71.1206L73.7134 28.4658C73.7964 28.7197 73.8599 29.0151 73.9038 29.3521H73.9331C73.9673 29.0737 74.0381 28.7734 74.1455 28.4512L76.7969 20.4971H78.6426ZM82.2021 31.1758C81.0449 31.1758 80.1196 30.8267 79.4263 30.1284C78.7378 29.4253 78.3936 28.4951 78.3936 27.3379C78.3936 26.0781 78.7524 25.0942 79.4702 24.3862C80.1929 23.6782 81.1646 23.3242 82.3853 23.3242C83.5571 23.3242 84.4702 23.6685 85.1245 24.3569C85.7788 25.0454 86.106 26 86.106 27.2207C86.106 28.417 85.752 29.3765 85.0439 30.0991C84.3408 30.8169 83.3936 31.1758 82.2021 31.1758ZM82.2827 24.6792C81.6187 24.6792 81.0938 24.9111 80.708 25.375C80.3223 25.8389 80.1294 26.4785 80.1294 27.2939C80.1294 28.0801 80.3247 28.7002 80.7153 29.1543C81.106 29.6035 81.6284 29.8281 82.2827 29.8281C82.9517 29.8281 83.4644 29.606 83.8208 29.1616C84.1821 28.7173 84.3628 28.085 84.3628 27.2646C84.3628 26.4395 84.1821 25.8022 83.8208 25.353C83.4644 24.9038 82.9517 24.6792 82.2827 24.6792ZM89.5483 31H87.8418V19.8965H89.5483V31ZM97.5244 31H95.8765V29.8281H95.8472C95.3296 30.7266 94.5703 31.1758 93.5693 31.1758C92.832 31.1758 92.2534 30.9756 91.8335 30.5752C91.4185 30.1748 91.2109 29.645 91.2109 28.9858C91.2109 27.5698 92.0264 26.7446 93.6572 26.5103L95.8838 26.1953C95.8838 25.126 95.376 24.5913 94.3604 24.5913C93.4668 24.5913 92.6611 24.8989 91.9434 25.5142V24.0273C92.7344 23.5586 93.6475 23.3242 94.6826 23.3242C96.5771 23.3242 97.5244 24.2568 97.5244 26.1221V31ZM95.8838 27.3159L94.3091 27.5356C93.8208 27.5991 93.4521 27.7188 93.2031 27.8945C92.959 28.0654 92.8369 28.3682 92.8369 28.8027C92.8369 29.1201 92.9492 29.3813 93.1738 29.5864C93.4033 29.7866 93.7085 29.8867 94.0894 29.8867C94.6069 29.8867 95.0342 29.7061 95.3711 29.3447C95.7129 28.9785 95.8838 28.5195 95.8838 27.9678V27.3159ZM103.56 30.9194C103.228 31.0854 102.791 31.1685 102.249 31.1685C100.793 31.1685 100.066 30.4702 100.066 29.0737V24.833H98.8135V23.5H100.066V21.7642L101.765 21.2808V23.5H103.56V24.833H101.765V28.583C101.765 29.0273 101.846 29.3447 102.007 29.5352C102.168 29.7256 102.437 29.8208 102.812 29.8208C103.101 29.8208 103.35 29.7378 103.56 29.5718V30.9194ZM105.881 21.9253C105.603 21.9253 105.364 21.835 105.164 21.6543C104.968 21.4736 104.871 21.2441 104.871 20.9658C104.871 20.6875 104.968 20.4556 105.164 20.27C105.364 20.0845 105.603 19.9917 105.881 19.9917C106.169 19.9917 106.414 20.0845 106.614 20.27C106.814 20.4556 106.914 20.6875 106.914 20.9658C106.914 21.2295 106.814 21.4565 106.614 21.647C106.414 21.8325 106.169 21.9253 105.881 21.9253ZM106.724 31H105.024V23.5H106.724V31ZM110.657 31H108.95V19.8965H110.657V31ZM113.733 21.9253C113.455 21.9253 113.215 21.835 113.015 21.6543C112.82 21.4736 112.722 21.2441 112.722 20.9658C112.722 20.6875 112.82 20.4556 113.015 20.27C113.215 20.0845 113.455 19.9917 113.733 19.9917C114.021 19.9917 114.265 20.0845 114.465 20.27C114.666 20.4556 114.766 20.6875 114.766 20.9658C114.766 21.2295 114.666 21.4565 114.465 21.647C114.265 21.8325 114.021 21.9253 113.733 21.9253ZM114.575 31H112.876V23.5H114.575V31ZM123.621 31H121.921V29.7256H121.892C121.345 30.6924 120.503 31.1758 119.365 31.1758C118.442 31.1758 117.703 30.8413 117.146 30.1724C116.594 29.4985 116.318 28.583 116.318 27.4258C116.318 26.1855 116.624 25.1919 117.234 24.4448C117.849 23.6978 118.667 23.3242 119.688 23.3242C120.698 23.3242 121.433 23.7295 121.892 24.54H121.921V19.8965H123.621V31ZM121.943 27.5723V26.5908C121.943 26.0586 121.77 25.6069 121.423 25.2358C121.077 24.8647 120.635 24.6792 120.098 24.6792C119.463 24.6792 118.962 24.916 118.596 25.3896C118.235 25.8633 118.054 26.52 118.054 27.3599C118.054 28.1216 118.228 28.7246 118.574 29.1689C118.926 29.6084 119.397 29.8281 119.988 29.8281C120.569 29.8281 121.04 29.6157 121.401 29.1909C121.763 28.7612 121.943 28.2217 121.943 27.5723ZM131.597 31H129.949V29.8281H129.919C129.402 30.7266 128.643 31.1758 127.642 31.1758C126.904 31.1758 126.326 30.9756 125.906 30.5752C125.491 30.1748 125.283 29.645 125.283 28.9858C125.283 27.5698 126.099 26.7446 127.729 26.5103L129.956 26.1953C129.956 25.126 129.448 24.5913 128.433 24.5913C127.539 24.5913 126.733 24.8989 126.016 25.5142V24.0273C126.807 23.5586 127.72 23.3242 128.755 23.3242C130.649 23.3242 131.597 24.2568 131.597 26.1221V31ZM129.956 27.3159L128.381 27.5356C127.893 27.5991 127.524 27.7188 127.275 27.8945C127.031 28.0654 126.909 28.3682 126.909 28.8027C126.909 29.1201 127.021 29.3813 127.246 29.5864C127.476 29.7866 127.781 29.8867 128.162 29.8867C128.679 29.8867 129.106 29.7061 129.443 29.3447C129.785 28.9785 129.956 28.5195 129.956 27.9678V27.3159ZM140.496 31H138.796V29.7256H138.767C138.22 30.6924 137.378 31.1758 136.24 31.1758C135.317 31.1758 134.578 30.8413 134.021 30.1724C133.469 29.4985 133.193 28.583 133.193 27.4258C133.193 26.1855 133.499 25.1919 134.109 24.4448C134.724 23.6978 135.542 23.3242 136.562 23.3242C137.573 23.3242 138.308 23.7295 138.767 24.54H138.796V19.8965H140.496V31ZM138.818 27.5723V26.5908C138.818 26.0586 138.645 25.6069 138.298 25.2358C137.952 24.8647 137.51 24.6792 136.973 24.6792C136.338 24.6792 135.837 24.916 135.471 25.3896C135.11 25.8633 134.929 26.52 134.929 27.3599C134.929 28.1216 135.103 28.7246 135.449 29.1689C135.801 29.6084 136.272 29.8281 136.863 29.8281C137.444 29.8281 137.915 29.6157 138.276 29.1909C138.638 28.7612 138.818 28.2217 138.818 27.5723ZM149.065 27.7114H143.953C143.972 28.4048 144.185 28.9395 144.59 29.3154C145 29.6914 145.562 29.8794 146.274 29.8794C147.075 29.8794 147.81 29.6401 148.479 29.1616V30.5312C147.795 30.9609 146.892 31.1758 145.769 31.1758C144.666 31.1758 143.799 30.8364 143.169 30.1577C142.544 29.4741 142.231 28.5146 142.231 27.2793C142.231 26.1123 142.576 25.1626 143.264 24.4302C143.958 23.6929 144.817 23.3242 145.842 23.3242C146.868 23.3242 147.661 23.6538 148.223 24.313C148.784 24.9722 149.065 25.8877 149.065 27.0596V27.7114ZM147.424 26.5103C147.419 25.8999 147.275 25.4263 146.992 25.0894C146.709 24.7476 146.318 24.5767 145.82 24.5767C145.332 24.5767 144.917 24.7549 144.575 25.1113C144.238 25.4678 144.031 25.9341 143.953 26.5103H147.424ZM156.543 29.894H156.514V34.4497H154.814V23.5H156.514V24.8184H156.543C157.124 23.8223 157.974 23.3242 159.092 23.3242C160.044 23.3242 160.786 23.6587 161.318 24.3276C161.851 24.9966 162.117 25.895 162.117 27.0229C162.117 28.2729 161.816 29.2739 161.216 30.0259C160.615 30.7778 159.795 31.1538 158.755 31.1538C157.798 31.1538 157.061 30.7339 156.543 29.894ZM156.499 26.9351V27.8652C156.499 28.4121 156.672 28.876 157.019 29.2568C157.371 29.6377 157.815 29.8281 158.352 29.8281C158.982 29.8281 159.475 29.584 159.832 29.0957C160.193 28.6025 160.374 27.9165 160.374 27.0376C160.374 26.3003 160.205 25.7241 159.868 25.3091C159.536 24.8892 159.084 24.6792 158.513 24.6792C157.908 24.6792 157.419 24.894 157.048 25.3237C156.682 25.7534 156.499 26.2905 156.499 26.9351ZM167.178 31.1758C166.021 31.1758 165.095 30.8267 164.402 30.1284C163.713 29.4253 163.369 28.4951 163.369 27.3379C163.369 26.0781 163.728 25.0942 164.446 24.3862C165.168 23.6782 166.14 23.3242 167.361 23.3242C168.533 23.3242 169.446 23.6685 170.1 24.3569C170.754 25.0454 171.082 26 171.082 27.2207C171.082 28.417 170.728 29.3765 170.02 30.0991C169.316 30.8169 168.369 31.1758 167.178 31.1758ZM167.258 24.6792C166.594 24.6792 166.069 24.9111 165.684 25.375C165.298 25.8389 165.105 26.4785 165.105 27.2939C165.105 28.0801 165.3 28.7002 165.691 29.1543C166.082 29.6035 166.604 29.8281 167.258 29.8281C167.927 29.8281 168.44 29.606 168.796 29.1616C169.158 28.7173 169.338 28.085 169.338 27.2646C169.338 26.4395 169.158 25.8022 168.796 25.353C168.44 24.9038 167.927 24.6792 167.258 24.6792ZM177.168 25.1187C176.963 24.9575 176.667 24.877 176.282 24.877C175.779 24.877 175.359 25.104 175.022 25.5581C174.685 26.0122 174.517 26.6299 174.517 27.4111V31H172.817V23.5H174.517V25.0454H174.546C174.712 24.5181 174.966 24.1079 175.308 23.8149C175.654 23.5171 176.04 23.3682 176.465 23.3682C176.772 23.3682 177.007 23.4146 177.168 23.5073V25.1187ZM182.207 30.5825V28.7881C182.368 28.9346 182.559 29.0664 182.778 29.1836C183.003 29.3008 183.24 29.4009 183.489 29.4839C183.738 29.562 183.987 29.623 184.236 29.667C184.485 29.7109 184.714 29.7329 184.924 29.7329C185.657 29.7329 186.201 29.6108 186.558 29.3667C186.919 29.1226 187.1 28.7686 187.1 28.3047C187.1 28.0557 187.039 27.8408 186.917 27.6602C186.799 27.4746 186.633 27.3062 186.418 27.1548C186.204 27.0034 185.95 26.8594 185.657 26.7227C185.369 26.5811 185.059 26.4346 184.727 26.2832C184.37 26.0928 184.038 25.8999 183.73 25.7046C183.423 25.5093 183.154 25.2944 182.925 25.0601C182.7 24.8208 182.522 24.5522 182.39 24.2544C182.263 23.9565 182.2 23.6074 182.2 23.207C182.2 22.7139 182.31 22.2866 182.529 21.9253C182.754 21.5591 183.047 21.2588 183.408 21.0244C183.774 20.7852 184.189 20.6094 184.653 20.4971C185.117 20.3799 185.591 20.3213 186.074 20.3213C187.173 20.3213 187.974 20.4458 188.477 20.6948V22.416C187.881 21.9863 187.114 21.7715 186.177 21.7715C185.918 21.7715 185.659 21.7959 185.4 21.8447C185.146 21.8936 184.917 21.9741 184.712 22.0864C184.512 22.1987 184.348 22.3428 184.221 22.5186C184.094 22.6943 184.031 22.9067 184.031 23.1558C184.031 23.3901 184.08 23.5928 184.177 23.7637C184.275 23.9346 184.417 24.0908 184.602 24.2324C184.792 24.374 185.022 24.5132 185.291 24.6499C185.564 24.7817 185.879 24.9258 186.235 25.082C186.602 25.2725 186.946 25.4727 187.268 25.6826C187.595 25.8926 187.881 26.1245 188.125 26.3784C188.374 26.6323 188.569 26.9155 188.711 27.228C188.857 27.5356 188.931 27.8872 188.931 28.2827C188.931 28.8149 188.823 29.2642 188.608 29.6304C188.394 29.9966 188.103 30.2944 187.737 30.5239C187.375 30.7534 186.958 30.9194 186.484 31.022C186.011 31.1245 185.51 31.1758 184.983 31.1758C184.807 31.1758 184.59 31.1611 184.331 31.1318C184.077 31.1074 183.816 31.0684 183.547 31.0146C183.279 30.9658 183.025 30.9048 182.786 30.8315C182.546 30.7583 182.354 30.6753 182.207 30.5825ZM197.024 27.7114H191.912C191.931 28.4048 192.144 28.9395 192.549 29.3154C192.959 29.6914 193.521 29.8794 194.233 29.8794C195.034 29.8794 195.769 29.6401 196.438 29.1616V30.5312C195.754 30.9609 194.851 31.1758 193.728 31.1758C192.625 31.1758 191.758 30.8364 191.128 30.1577C190.503 29.4741 190.19 28.5146 190.19 27.2793C190.19 26.1123 190.535 25.1626 191.223 24.4302C191.917 23.6929 192.776 23.3242 193.801 23.3242C194.827 23.3242 195.62 23.6538 196.182 24.313C196.743 24.9722 197.024 25.8877 197.024 27.0596V27.7114ZM195.383 26.5103C195.378 25.8999 195.234 25.4263 194.951 25.0894C194.668 24.7476 194.277 24.5767 193.779 24.5767C193.291 24.5767 192.876 24.7549 192.534 25.1113C192.197 25.4678 191.99 25.9341 191.912 26.5103H195.383ZM205.469 30.3994C205.469 33.1533 204.084 34.5303 201.316 34.5303C200.339 34.5303 199.487 34.3667 198.76 34.0396V32.4868C199.58 32.9556 200.359 33.1899 201.096 33.1899C202.878 33.1899 203.77 32.3135 203.77 30.5605V29.7402H203.74C203.179 30.6973 202.334 31.1758 201.206 31.1758C200.293 31.1758 199.556 30.8438 198.994 30.1797C198.438 29.5107 198.159 28.6147 198.159 27.4917C198.159 26.2173 198.459 25.2041 199.06 24.4521C199.661 23.7002 200.486 23.3242 201.536 23.3242C202.527 23.3242 203.262 23.7295 203.74 24.54H203.77V23.5H205.469V30.3994ZM203.784 27.5649V26.5908C203.784 26.0635 203.608 25.6143 203.257 25.2432C202.91 24.8672 202.476 24.6792 201.953 24.6792C201.309 24.6792 200.803 24.9185 200.437 25.397C200.076 25.8706 199.895 26.5347 199.895 27.3892C199.895 28.1265 200.068 28.7173 200.415 29.1616C200.767 29.6011 201.23 29.8208 201.807 29.8208C202.393 29.8208 202.869 29.6108 203.235 29.1909C203.601 28.7661 203.784 28.2241 203.784 27.5649ZM218.894 31H217.195V26.9131C217.195 26.127 217.083 25.5581 216.858 25.2065C216.638 24.855 216.265 24.6792 215.737 24.6792C215.293 24.6792 214.915 24.9014 214.602 25.3457C214.294 25.79 214.141 26.3223 214.141 26.9424V31H212.434V26.7739C212.434 25.3774 211.941 24.6792 210.955 24.6792C210.496 24.6792 210.117 24.8892 209.819 25.3091C209.526 25.729 209.38 26.2734 209.38 26.9424V31H207.681V23.5H209.38V24.6865H209.409C209.951 23.7783 210.74 23.3242 211.775 23.3242C212.292 23.3242 212.744 23.4683 213.13 23.7563C213.521 24.0396 213.787 24.4131 213.928 24.877C214.485 23.8418 215.315 23.3242 216.418 23.3242C218.069 23.3242 218.894 24.3423 218.894 26.3784V31ZM227.317 27.7114H222.205C222.224 28.4048 222.437 28.9395 222.842 29.3154C223.252 29.6914 223.813 29.8794 224.526 29.8794C225.327 29.8794 226.062 29.6401 226.731 29.1616V30.5312C226.047 30.9609 225.144 31.1758 224.021 31.1758C222.917 31.1758 222.051 30.8364 221.421 30.1577C220.796 29.4741 220.483 28.5146 220.483 27.2793C220.483 26.1123 220.828 25.1626 221.516 24.4302C222.209 23.6929 223.069 23.3242 224.094 23.3242C225.12 23.3242 225.913 23.6538 226.475 24.313C227.036 24.9722 227.317 25.8877 227.317 27.0596V27.7114ZM225.676 26.5103C225.671 25.8999 225.527 25.4263 225.244 25.0894C224.961 24.7476 224.57 24.5767 224.072 24.5767C223.584 24.5767 223.169 24.7549 222.827 25.1113C222.49 25.4678 222.283 25.9341 222.205 26.5103H225.676ZM235.615 31H233.916V26.7739C233.916 25.3726 233.42 24.6719 232.429 24.6719C231.912 24.6719 231.484 24.8672 231.147 25.2578C230.811 25.6436 230.642 26.1318 230.642 26.7227V31H228.936V23.5H230.642V24.7451H230.671C231.233 23.7979 232.043 23.3242 233.103 23.3242C233.918 23.3242 234.541 23.5903 234.971 24.1226C235.4 24.6499 235.615 25.4141 235.615 26.415V31ZM241.65 30.9194C241.318 31.0854 240.881 31.1685 240.339 31.1685C238.884 31.1685 238.157 30.4702 238.157 29.0737V24.833H236.904V23.5H238.157V21.7642L239.856 21.2808V23.5H241.65V24.833H239.856V28.583C239.856 29.0273 239.937 29.3447 240.098 29.5352C240.259 29.7256 240.527 29.8208 240.903 29.8208C241.191 29.8208 241.44 29.7378 241.65 29.5718V30.9194ZM246.353 31.1758C245.195 31.1758 244.27 30.8267 243.577 30.1284C242.888 29.4253 242.544 28.4951 242.544 27.3379C242.544 26.0781 242.903 25.0942 243.621 24.3862C244.343 23.6782 245.315 23.3242 246.536 23.3242C247.708 23.3242 248.621 23.6685 249.275 24.3569C249.929 25.0454 250.256 26 250.256 27.2207C250.256 28.417 249.902 29.3765 249.194 30.0991C248.491 30.8169 247.544 31.1758 246.353 31.1758ZM246.433 24.6792C245.769 24.6792 245.244 24.9111 244.858 25.375C244.473 25.8389 244.28 26.4785 244.28 27.2939C244.28 28.0801 244.475 28.7002 244.866 29.1543C245.256 29.6035 245.779 29.8281 246.433 29.8281C247.102 29.8281 247.615 29.606 247.971 29.1616C248.333 28.7173 248.513 28.085 248.513 27.2646C248.513 26.4395 248.333 25.8022 247.971 25.353C247.615 24.9038 247.102 24.6792 246.433 24.6792Z" fill="white"/>
<rect opacity="0.7" x="10.5" y="43.5" width="299" height="186" fill="white" stroke="#CCD8E6"/>
</g>
<defs>
<linearGradient id="paint0_linear_192_346" x1="149.43" y1="-19.5225" x2="10.1597" y2="173.167" gradientUnits="userSpaceOnUse">
<stop stop-color="#E3F3FA"/>
<stop offset="1" stop-color="#FDFEFE"/>
</linearGradient>
<linearGradient id="paint1_linear_192_346" x1="151.065" y1="-9.41826" x2="144.326" y2="61.147" gradientUnits="userSpaceOnUse">
<stop offset="0.0169824" stop-color="#E3F3F4"/>
<stop offset="0.5" stop-color="#FDFEFE"/>
<stop offset="1" stop-color="#E3F3F4"/>
</linearGradient>
<clipPath id="clip0_192_346">
<rect width="320" height="240" fill="white"/>
</clipPath>
</defs>
</svg>
