<svg width="320" height="240" viewBox="0 0 320 240" fill="none" xmlns="http://www.w3.org/2000/svg">
<g clip-path="url(#clip0_192_362)">
<rect width="320" height="240" fill="url(#paint0_linear_192_362)"/>
<path d="M230 135.5C314.829 135.5 383.5 197.111 383.5 273C383.5 348.889 314.829 410.5 230 410.5C145.171 410.5 76.5 348.889 76.5 273C76.5 197.111 145.171 135.5 230 135.5Z" stroke="#CBE4F3"/>
<path d="M97 -57.5C165.813 -57.5 221.5 -7.52953 221.5 54C221.5 115.53 165.813 165.5 97 165.5C28.1875 165.5 -27.5 115.53 -27.5 54C-27.5 -7.52953 28.1875 -57.5 97 -57.5Z" stroke="#CBE4F3"/>
<path d="M22 7.5H298C304.351 7.5 309.5 12.6487 309.5 19V42.5H10.5V19C10.5 12.6487 15.6487 7.5 22 7.5Z" fill="#0079C2" stroke="url(#paint1_linear_192_362)"/>
<path d="M125.349 20.4971L121.577 31H119.629L115.923 20.4971H117.827L120.42 28.4658C120.503 28.7197 120.566 29.0151 120.61 29.3521H120.64C120.674 29.0737 120.745 28.7734 120.852 28.4512L123.503 20.4971H125.349ZM134.548 31H132.637L131.692 28.3267H127.561L126.653 31H124.749L128.682 20.4971H130.645L134.548 31ZM131.23 26.9058L129.773 22.7163C129.729 22.5796 129.683 22.3599 129.634 22.0571H129.604C129.561 22.3354 129.512 22.5552 129.458 22.7163L128.015 26.9058H131.23ZM144.114 31H142.078L140.4 28.1875C140.249 27.9287 140.1 27.709 139.954 27.5283C139.812 27.3428 139.666 27.1914 139.514 27.0742C139.368 26.957 139.207 26.8716 139.031 26.8179C138.855 26.7642 138.657 26.7373 138.438 26.7373H137.734V31H135.999V20.4971H139.456C139.949 20.4971 140.403 20.5557 140.818 20.6729C141.233 20.79 141.594 20.9683 141.902 21.2075C142.209 21.4419 142.449 21.7373 142.62 22.0938C142.795 22.4453 142.883 22.8579 142.883 23.3315C142.883 23.7026 142.827 24.0444 142.715 24.3569C142.607 24.6646 142.451 24.9404 142.246 25.1846C142.046 25.4238 141.802 25.6289 141.514 25.7998C141.23 25.9707 140.911 26.1025 140.554 26.1953V26.2246C140.745 26.332 140.911 26.4517 141.052 26.5835C141.194 26.7104 141.328 26.8423 141.455 26.979C141.582 27.1157 141.707 27.272 141.829 27.4478C141.956 27.6187 142.095 27.8188 142.246 28.0483L144.114 31ZM137.734 21.9106V25.3237H139.185C139.453 25.3237 139.7 25.2822 139.924 25.1992C140.154 25.1162 140.352 24.9966 140.518 24.8403C140.684 24.6841 140.813 24.4937 140.906 24.269C140.999 24.0444 141.045 23.793 141.045 23.5146C141.045 23.0117 140.886 22.6187 140.569 22.3354C140.251 22.0522 139.795 21.9106 139.199 21.9106H137.734ZM151.013 29.894H150.984V34.4497H149.285V23.5H150.984V24.8184H151.013C151.594 23.8223 152.444 23.3242 153.562 23.3242C154.514 23.3242 155.256 23.6587 155.789 24.3276C156.321 24.9966 156.587 25.895 156.587 27.0229C156.587 28.2729 156.287 29.2739 155.686 30.0259C155.085 30.7778 154.265 31.1538 153.225 31.1538C152.268 31.1538 151.531 30.7339 151.013 29.894ZM150.969 26.9351V27.8652C150.969 28.4121 151.143 28.876 151.489 29.2568C151.841 29.6377 152.285 29.8281 152.822 29.8281C153.452 29.8281 153.945 29.584 154.302 29.0957C154.663 28.6025 154.844 27.9165 154.844 27.0376C154.844 26.3003 154.675 25.7241 154.338 25.3091C154.006 24.8892 153.555 24.6792 152.983 24.6792C152.378 24.6792 151.89 24.894 151.519 25.3237C151.152 25.7534 150.969 26.2905 150.969 26.9351ZM161.648 31.1758C160.491 31.1758 159.565 30.8267 158.872 30.1284C158.184 29.4253 157.839 28.4951 157.839 27.3379C157.839 26.0781 158.198 25.0942 158.916 24.3862C159.639 23.6782 160.61 23.3242 161.831 23.3242C163.003 23.3242 163.916 23.6685 164.57 24.3569C165.225 25.0454 165.552 26 165.552 27.2207C165.552 28.417 165.198 29.3765 164.49 30.0991C163.787 30.8169 162.839 31.1758 161.648 31.1758ZM161.729 24.6792C161.064 24.6792 160.54 24.9111 160.154 25.375C159.768 25.8389 159.575 26.4785 159.575 27.2939C159.575 28.0801 159.771 28.7002 160.161 29.1543C160.552 29.6035 161.074 29.8281 161.729 29.8281C162.397 29.8281 162.91 29.606 163.267 29.1616C163.628 28.7173 163.809 28.085 163.809 27.2646C163.809 26.4395 163.628 25.8022 163.267 25.353C162.91 24.9038 162.397 24.6792 161.729 24.6792ZM171.638 25.1187C171.433 24.9575 171.138 24.877 170.752 24.877C170.249 24.877 169.829 25.104 169.492 25.5581C169.155 26.0122 168.987 26.6299 168.987 27.4111V31H167.288V23.5H168.987V25.0454H169.016C169.182 24.5181 169.436 24.1079 169.778 23.8149C170.125 23.5171 170.51 23.3682 170.935 23.3682C171.243 23.3682 171.477 23.4146 171.638 23.5073V25.1187ZM188.44 31H186.711V24.2031C186.711 23.6465 186.746 22.9653 186.814 22.1597H186.785C186.677 22.6187 186.582 22.9482 186.499 23.1484L183.364 31H182.163L179.021 23.207C178.933 22.9775 178.84 22.6284 178.743 22.1597H178.713C178.752 22.5796 178.772 23.2656 178.772 24.2178V31H177.161V20.4971H179.614L182.375 27.4917C182.585 28.0288 182.722 28.4292 182.786 28.6929H182.822C183.003 28.1411 183.149 27.731 183.262 27.4624L186.074 20.4971H188.44V31ZM197.192 27.7114H192.08C192.1 28.4048 192.312 28.9395 192.717 29.3154C193.127 29.6914 193.689 29.8794 194.402 29.8794C195.203 29.8794 195.938 29.6401 196.606 29.1616V30.5312C195.923 30.9609 195.02 31.1758 193.896 31.1758C192.793 31.1758 191.926 30.8364 191.296 30.1577C190.671 29.4741 190.359 28.5146 190.359 27.2793C190.359 26.1123 190.703 25.1626 191.392 24.4302C192.085 23.6929 192.944 23.3242 193.97 23.3242C194.995 23.3242 195.789 23.6538 196.35 24.313C196.912 24.9722 197.192 25.8877 197.192 27.0596V27.7114ZM195.552 26.5103C195.547 25.8999 195.403 25.4263 195.12 25.0894C194.836 24.7476 194.446 24.5767 193.948 24.5767C193.459 24.5767 193.044 24.7549 192.703 25.1113C192.366 25.4678 192.158 25.9341 192.08 26.5103H195.552ZM196.24 22.1816H195.068L193.889 20.6362L192.739 22.1816H191.604L193.245 19.7793H194.592L196.24 22.1816ZM198.342 30.7656V29.1909C198.977 29.6743 199.678 29.916 200.444 29.916C201.47 29.916 201.982 29.6133 201.982 29.0078C201.982 28.8369 201.938 28.6929 201.851 28.5757C201.763 28.4536 201.643 28.3462 201.492 28.2534C201.345 28.1606 201.169 28.0776 200.964 28.0044C200.764 27.9312 200.54 27.8481 200.291 27.7554C199.983 27.6333 199.705 27.5039 199.456 27.3672C199.211 27.2305 199.006 27.0767 198.84 26.9058C198.679 26.73 198.557 26.5322 198.474 26.3125C198.391 26.0928 198.35 25.8364 198.35 25.5435C198.35 25.1821 198.435 24.8647 198.606 24.5913C198.777 24.313 199.006 24.0811 199.294 23.8955C199.583 23.7051 199.91 23.5635 200.276 23.4707C200.642 23.373 201.021 23.3242 201.411 23.3242C202.104 23.3242 202.725 23.4292 203.271 23.6392V25.126C202.744 24.7646 202.139 24.584 201.455 24.584C201.24 24.584 201.045 24.606 200.869 24.6499C200.698 24.6938 200.552 24.7549 200.43 24.833C200.308 24.9111 200.212 25.0063 200.144 25.1187C200.076 25.2261 200.042 25.3457 200.042 25.4775C200.042 25.6387 200.076 25.7754 200.144 25.8877C200.212 26 200.312 26.1001 200.444 26.188C200.581 26.271 200.742 26.3491 200.928 26.4224C201.118 26.4907 201.335 26.5664 201.58 26.6494C201.902 26.7812 202.19 26.9155 202.444 27.0522C202.703 27.189 202.922 27.3452 203.103 27.521C203.284 27.6919 203.423 27.8921 203.521 28.1216C203.618 28.3462 203.667 28.6147 203.667 28.9272C203.667 29.3081 203.579 29.6401 203.403 29.9233C203.228 30.2065 202.993 30.4409 202.7 30.6265C202.407 30.812 202.068 30.9487 201.682 31.0366C201.301 31.1294 200.898 31.1758 200.474 31.1758C199.653 31.1758 198.943 31.0391 198.342 30.7656Z" fill="white"/>
<rect opacity="0.7" x="10.5" y="43.5" width="299" height="186" fill="white" stroke="#CCD8E6"/>
</g>
<defs>
<linearGradient id="paint0_linear_192_362" x1="149.43" y1="-19.5225" x2="10.1597" y2="173.167" gradientUnits="userSpaceOnUse">
<stop stop-color="#E3F3FA"/>
<stop offset="1" stop-color="#FDFEFE"/>
</linearGradient>
<linearGradient id="paint1_linear_192_362" x1="151.065" y1="-9.41826" x2="144.326" y2="61.147" gradientUnits="userSpaceOnUse">
<stop offset="0.0169824" stop-color="#E3F3F4"/>
<stop offset="0.5" stop-color="#FDFEFE"/>
<stop offset="1" stop-color="#E3F3F4"/>
</linearGradient>
<clipPath id="clip0_192_362">
<rect width="320" height="240" fill="white"/>
</clipPath>
</defs>
</svg>
