<svg width="320" height="240" viewBox="0 0 320 240" fill="none" xmlns="http://www.w3.org/2000/svg">
<g clip-path="url(#clip0_192_394)">
<rect width="320" height="240" fill="url(#paint0_linear_192_394)"/>
<path d="M230 135.5C314.829 135.5 383.5 197.111 383.5 273C383.5 348.889 314.829 410.5 230 410.5C145.171 410.5 76.5 348.889 76.5 273C76.5 197.111 145.171 135.5 230 135.5Z" stroke="#CBE4F3"/>
<path d="M97 -57.5C165.813 -57.5 221.5 -7.52953 221.5 54C221.5 115.53 165.813 165.5 97 165.5C28.1875 165.5 -27.5 115.53 -27.5 54C-27.5 -7.52953 28.1875 -57.5 97 -57.5Z" stroke="#CBE4F3"/>
<path d="M22 7.5H298C304.351 7.5 309.5 12.6487 309.5 19V42.5H10.5V19C10.5 12.6487 15.6487 7.5 22 7.5Z" fill="#0079C2" stroke="url(#paint1_linear_192_394)"/>
<path d="M80.7153 25.7705C79.9731 25.7705 79.3823 25.5337 78.9429 25.0601C78.5034 24.5815 78.2837 23.9443 78.2837 23.1484C78.2837 22.2793 78.5156 21.5957 78.9795 21.0977C79.4482 20.5947 80.0781 20.3433 80.8691 20.3433C81.6357 20.3433 82.229 20.5752 82.6489 21.0391C83.0737 21.5029 83.2861 22.1548 83.2861 22.9946C83.2861 23.8345 83.0493 24.5083 82.5757 25.0161C82.1021 25.519 81.4819 25.7705 80.7153 25.7705ZM80.8179 21.3687C80.4175 21.3687 80.1001 21.5225 79.8657 21.8301C79.6362 22.1377 79.5215 22.5601 79.5215 23.0972C79.5215 23.6245 79.6338 24.0347 79.8584 24.3276C80.0879 24.6206 80.4004 24.7671 80.7959 24.7671C81.1914 24.7671 81.5015 24.6157 81.7261 24.313C81.9507 24.0054 82.063 23.5806 82.063 23.0386C82.063 22.5112 81.9507 22.1011 81.7261 21.8081C81.5063 21.5151 81.2036 21.3687 80.8179 21.3687ZM87.8271 20.4971L81.0889 31.0732H80.0415L86.7725 20.4971H87.8271ZM86.8823 31.1611C86.1401 31.1611 85.5493 30.9243 85.1099 30.4507C84.6704 29.9722 84.4507 29.335 84.4507 28.5391C84.4507 27.6699 84.6826 26.9863 85.1465 26.4883C85.6152 25.9854 86.2451 25.7339 87.0361 25.7339C87.8027 25.7339 88.396 25.9658 88.8159 26.4297C89.2407 26.8936 89.4531 27.5454 89.4531 28.3853C89.4531 29.2251 89.2163 29.8989 88.7427 30.4067C88.269 30.9097 87.6489 31.1611 86.8823 31.1611ZM86.9849 26.7593C86.5845 26.7593 86.2671 26.9131 86.0327 27.2207C85.8032 27.5283 85.6885 27.9507 85.6885 28.4878C85.6885 29.0151 85.8008 29.4253 86.0254 29.7183C86.2549 30.0112 86.5674 30.1577 86.9629 30.1577C87.3584 30.1577 87.6685 30.0063 87.8931 29.7036C88.1177 29.396 88.23 28.9712 88.23 28.4292C88.23 27.9019 88.1177 27.4917 87.8931 27.1987C87.6733 26.9058 87.3706 26.7593 86.9849 26.7593ZM103.94 20.4971L100.168 31H98.2202L94.5142 20.4971H96.4185L99.0112 28.4658C99.0942 28.7197 99.1577 29.0151 99.2017 29.3521H99.231C99.2651 29.0737 99.3359 28.7734 99.4434 28.4512L102.095 20.4971H103.94ZM107.5 31.1758C106.343 31.1758 105.417 30.8267 104.724 30.1284C104.036 29.4253 103.691 28.4951 103.691 27.3379C103.691 26.0781 104.05 25.0942 104.768 24.3862C105.491 23.6782 106.462 23.3242 107.683 23.3242C108.855 23.3242 109.768 23.6685 110.422 24.3569C111.077 25.0454 111.404 26 111.404 27.2207C111.404 28.417 111.05 29.3765 110.342 30.0991C109.639 30.8169 108.691 31.1758 107.5 31.1758ZM107.581 24.6792C106.917 24.6792 106.392 24.9111 106.006 25.375C105.62 25.8389 105.427 26.4785 105.427 27.2939C105.427 28.0801 105.623 28.7002 106.013 29.1543C106.404 29.6035 106.926 29.8281 107.581 29.8281C108.25 29.8281 108.762 29.606 109.119 29.1616C109.48 28.7173 109.661 28.085 109.661 27.2646C109.661 26.4395 109.48 25.8022 109.119 25.353C108.762 24.9038 108.25 24.6792 107.581 24.6792ZM114.846 31H113.14V19.8965H114.846V31ZM122.822 31H121.174V29.8281H121.145C120.627 30.7266 119.868 31.1758 118.867 31.1758C118.13 31.1758 117.551 30.9756 117.131 30.5752C116.716 30.1748 116.509 29.645 116.509 28.9858C116.509 27.5698 117.324 26.7446 118.955 26.5103L121.182 26.1953C121.182 25.126 120.674 24.5913 119.658 24.5913C118.765 24.5913 117.959 24.8989 117.241 25.5142V24.0273C118.032 23.5586 118.945 23.3242 119.98 23.3242C121.875 23.3242 122.822 24.2568 122.822 26.1221V31ZM121.182 27.3159L119.607 27.5356C119.119 27.5991 118.75 27.7188 118.501 27.8945C118.257 28.0654 118.135 28.3682 118.135 28.8027C118.135 29.1201 118.247 29.3813 118.472 29.5864C118.701 29.7866 119.006 29.8867 119.387 29.8867C119.905 29.8867 120.332 29.7061 120.669 29.3447C121.011 28.9785 121.182 28.5195 121.182 27.9678V27.3159ZM128.857 30.9194C128.525 31.0854 128.088 31.1685 127.546 31.1685C126.091 31.1685 125.364 30.4702 125.364 29.0737V24.833H124.111V23.5H125.364V21.7642L127.063 21.2808V23.5H128.857V24.833H127.063V28.583C127.063 29.0273 127.144 29.3447 127.305 29.5352C127.466 29.7256 127.734 29.8208 128.11 29.8208C128.398 29.8208 128.647 29.7378 128.857 29.5718V30.9194ZM131.179 21.9253C130.901 21.9253 130.662 21.835 130.461 21.6543C130.266 21.4736 130.168 21.2441 130.168 20.9658C130.168 20.6875 130.266 20.4556 130.461 20.27C130.662 20.0845 130.901 19.9917 131.179 19.9917C131.467 19.9917 131.711 20.0845 131.912 20.27C132.112 20.4556 132.212 20.6875 132.212 20.9658C132.212 21.2295 132.112 21.4565 131.912 21.647C131.711 21.8325 131.467 21.9253 131.179 21.9253ZM132.021 31H130.322V23.5H132.021V31ZM135.955 31H134.248V19.8965H135.955V31ZM139.031 21.9253C138.752 21.9253 138.513 21.835 138.313 21.6543C138.118 21.4736 138.02 21.2441 138.02 20.9658C138.02 20.6875 138.118 20.4556 138.313 20.27C138.513 20.0845 138.752 19.9917 139.031 19.9917C139.319 19.9917 139.563 20.0845 139.763 20.27C139.963 20.4556 140.063 20.6875 140.063 20.9658C140.063 21.2295 139.963 21.4565 139.763 21.647C139.563 21.8325 139.319 21.9253 139.031 21.9253ZM139.873 31H138.174V23.5H139.873V31ZM148.918 31H147.219V29.7256H147.19C146.643 30.6924 145.801 31.1758 144.663 31.1758C143.74 31.1758 143 30.8413 142.444 30.1724C141.892 29.4985 141.616 28.583 141.616 27.4258C141.616 26.1855 141.921 25.1919 142.532 24.4448C143.147 23.6978 143.965 23.3242 144.985 23.3242C145.996 23.3242 146.731 23.7295 147.19 24.54H147.219V19.8965H148.918V31ZM147.241 27.5723V26.5908C147.241 26.0586 147.068 25.6069 146.721 25.2358C146.375 24.8647 145.933 24.6792 145.396 24.6792C144.761 24.6792 144.26 24.916 143.894 25.3896C143.533 25.8633 143.352 26.52 143.352 27.3599C143.352 28.1216 143.525 28.7246 143.872 29.1689C144.224 29.6084 144.695 29.8281 145.286 29.8281C145.867 29.8281 146.338 29.6157 146.699 29.1909C147.061 28.7612 147.241 28.2217 147.241 27.5723ZM156.895 31H155.247V29.8281H155.217C154.7 30.7266 153.94 31.1758 152.939 31.1758C152.202 31.1758 151.624 30.9756 151.204 30.5752C150.789 30.1748 150.581 29.645 150.581 28.9858C150.581 27.5698 151.396 26.7446 153.027 26.5103L155.254 26.1953C155.254 25.126 154.746 24.5913 153.73 24.5913C152.837 24.5913 152.031 24.8989 151.313 25.5142V24.0273C152.104 23.5586 153.018 23.3242 154.053 23.3242C155.947 23.3242 156.895 24.2568 156.895 26.1221V31ZM155.254 27.3159L153.679 27.5356C153.191 27.5991 152.822 27.7188 152.573 27.8945C152.329 28.0654 152.207 28.3682 152.207 28.8027C152.207 29.1201 152.319 29.3813 152.544 29.5864C152.773 29.7866 153.079 29.8867 153.459 29.8867C153.977 29.8867 154.404 29.7061 154.741 29.3447C155.083 28.9785 155.254 28.5195 155.254 27.9678V27.3159ZM165.793 31H164.094V29.7256H164.065C163.518 30.6924 162.676 31.1758 161.538 31.1758C160.615 31.1758 159.875 30.8413 159.319 30.1724C158.767 29.4985 158.491 28.583 158.491 27.4258C158.491 26.1855 158.796 25.1919 159.407 24.4448C160.022 23.6978 160.84 23.3242 161.86 23.3242C162.871 23.3242 163.606 23.7295 164.065 24.54H164.094V19.8965H165.793V31ZM164.116 27.5723V26.5908C164.116 26.0586 163.943 25.6069 163.596 25.2358C163.25 24.8647 162.808 24.6792 162.271 24.6792C161.636 24.6792 161.135 24.916 160.769 25.3896C160.408 25.8633 160.227 26.52 160.227 27.3599C160.227 28.1216 160.4 28.7246 160.747 29.1689C161.099 29.6084 161.57 29.8281 162.161 29.8281C162.742 29.8281 163.213 29.6157 163.574 29.1909C163.936 28.7612 164.116 28.2217 164.116 27.5723ZM174.363 27.7114H169.25C169.27 28.4048 169.482 28.9395 169.888 29.3154C170.298 29.6914 170.859 29.8794 171.572 29.8794C172.373 29.8794 173.108 29.6401 173.777 29.1616V30.5312C173.093 30.9609 172.19 31.1758 171.067 31.1758C169.963 31.1758 169.097 30.8364 168.467 30.1577C167.842 29.4741 167.529 28.5146 167.529 27.2793C167.529 26.1123 167.874 25.1626 168.562 24.4302C169.255 23.6929 170.115 23.3242 171.14 23.3242C172.166 23.3242 172.959 23.6538 173.521 24.313C174.082 24.9722 174.363 25.8877 174.363 27.0596V27.7114ZM172.722 26.5103C172.717 25.8999 172.573 25.4263 172.29 25.0894C172.007 24.7476 171.616 24.5767 171.118 24.5767C170.63 24.5767 170.215 24.7549 169.873 25.1113C169.536 25.4678 169.329 25.9341 169.25 26.5103H172.722ZM181.841 29.894H181.812V34.4497H180.112V23.5H181.812V24.8184H181.841C182.422 23.8223 183.271 23.3242 184.39 23.3242C185.342 23.3242 186.084 23.6587 186.616 24.3276C187.148 24.9966 187.415 25.895 187.415 27.0229C187.415 28.2729 187.114 29.2739 186.514 30.0259C185.913 30.7778 185.093 31.1538 184.053 31.1538C183.096 31.1538 182.358 30.7339 181.841 29.894ZM181.797 26.9351V27.8652C181.797 28.4121 181.97 28.876 182.317 29.2568C182.668 29.6377 183.113 29.8281 183.65 29.8281C184.28 29.8281 184.773 29.584 185.129 29.0957C185.491 28.6025 185.671 27.9165 185.671 27.0376C185.671 26.3003 185.503 25.7241 185.166 25.3091C184.834 24.8892 184.382 24.6792 183.811 24.6792C183.206 24.6792 182.717 24.894 182.346 25.3237C181.98 25.7534 181.797 26.2905 181.797 26.9351ZM192.476 31.1758C191.318 31.1758 190.393 30.8267 189.7 30.1284C189.011 29.4253 188.667 28.4951 188.667 27.3379C188.667 26.0781 189.026 25.0942 189.744 24.3862C190.466 23.6782 191.438 23.3242 192.659 23.3242C193.831 23.3242 194.744 23.6685 195.398 24.3569C196.052 25.0454 196.379 26 196.379 27.2207C196.379 28.417 196.025 29.3765 195.317 30.0991C194.614 30.8169 193.667 31.1758 192.476 31.1758ZM192.556 24.6792C191.892 24.6792 191.367 24.9111 190.981 25.375C190.596 25.8389 190.403 26.4785 190.403 27.2939C190.403 28.0801 190.598 28.7002 190.989 29.1543C191.379 29.6035 191.902 29.8281 192.556 29.8281C193.225 29.8281 193.738 29.606 194.094 29.1616C194.456 28.7173 194.636 28.085 194.636 27.2646C194.636 26.4395 194.456 25.8022 194.094 25.353C193.738 24.9038 193.225 24.6792 192.556 24.6792ZM202.466 25.1187C202.261 24.9575 201.965 24.877 201.58 24.877C201.077 24.877 200.657 25.104 200.32 25.5581C199.983 26.0122 199.814 26.6299 199.814 27.4111V31H198.115V23.5H199.814V25.0454H199.844C200.01 24.5181 200.264 24.1079 200.605 23.8149C200.952 23.5171 201.338 23.3682 201.763 23.3682C202.07 23.3682 202.305 23.4146 202.466 23.5073V25.1187ZM216.616 31H214.705L213.76 28.3267H209.629L208.721 31H206.816L210.75 20.4971H212.712L216.616 31ZM213.298 26.9058L211.841 22.7163C211.797 22.5796 211.75 22.3599 211.702 22.0571H211.672C211.628 22.3354 211.58 22.5552 211.526 22.7163L210.083 26.9058H213.298ZM221.582 30.9194C221.25 31.0854 220.813 31.1685 220.271 31.1685C218.816 31.1685 218.088 30.4702 218.088 29.0737V24.833H216.836V23.5H218.088V21.7642L219.788 21.2808V23.5H221.582V24.833H219.788V28.583C219.788 29.0273 219.868 29.3447 220.029 29.5352C220.19 29.7256 220.459 29.8208 220.835 29.8208C221.123 29.8208 221.372 29.7378 221.582 29.5718V30.9194ZM223.904 21.9253C223.625 21.9253 223.386 21.835 223.186 21.6543C222.991 21.4736 222.893 21.2441 222.893 20.9658C222.893 20.6875 222.991 20.4556 223.186 20.27C223.386 20.0845 223.625 19.9917 223.904 19.9917C224.192 19.9917 224.436 20.0845 224.636 20.27C224.836 20.4556 224.937 20.6875 224.937 20.9658C224.937 21.2295 224.836 21.4565 224.636 21.647C224.436 21.8325 224.192 21.9253 223.904 21.9253ZM224.746 31H223.047V23.5H224.746V31ZM233.433 23.5L230.532 31H228.694L225.933 23.5H227.778L229.441 28.7441C229.568 29.1299 229.646 29.4668 229.675 29.7549H229.697C229.741 29.3936 229.81 29.0664 229.902 28.7734L231.646 23.5H233.433ZM237.798 31.1758C236.641 31.1758 235.715 30.8267 235.022 30.1284C234.333 29.4253 233.989 28.4951 233.989 27.3379C233.989 26.0781 234.348 25.0942 235.066 24.3862C235.789 23.6782 236.76 23.3242 237.981 23.3242C239.153 23.3242 240.066 23.6685 240.72 24.3569C241.375 25.0454 241.702 26 241.702 27.2207C241.702 28.417 241.348 29.3765 240.64 30.0991C239.937 30.8169 238.989 31.1758 237.798 31.1758ZM237.878 24.6792C237.214 24.6792 236.689 24.9111 236.304 25.375C235.918 25.8389 235.725 26.4785 235.725 27.2939C235.725 28.0801 235.92 28.7002 236.311 29.1543C236.702 29.6035 237.224 29.8281 237.878 29.8281C238.547 29.8281 239.06 29.606 239.417 29.1616C239.778 28.7173 239.958 28.085 239.958 27.2646C239.958 26.4395 239.778 25.8022 239.417 25.353C239.06 24.9038 238.547 24.6792 237.878 24.6792Z" fill="white"/>
<rect opacity="0.7" x="10.5" y="43.5" width="299" height="186" fill="white" stroke="#CCD8E6"/>
</g>
<defs>
<linearGradient id="paint0_linear_192_394" x1="149.43" y1="-19.5225" x2="10.1597" y2="173.167" gradientUnits="userSpaceOnUse">
<stop stop-color="#E3F3FA"/>
<stop offset="1" stop-color="#FDFEFE"/>
</linearGradient>
<linearGradient id="paint1_linear_192_394" x1="151.065" y1="-9.41826" x2="144.326" y2="61.147" gradientUnits="userSpaceOnUse">
<stop offset="0.0169824" stop-color="#E3F3F4"/>
<stop offset="0.5" stop-color="#FDFEFE"/>
<stop offset="1" stop-color="#E3F3F4"/>
</linearGradient>
<clipPath id="clip0_192_394">
<rect width="320" height="240" fill="white"/>
</clipPath>
</defs>
</svg>
